<?xml version="1.0" encoding="UTF-8" standalone="no"?>
<!-- Created with Inkscape (http://www.inkscape.org/) -->

<svg
   xmlns:dc="http://purl.org/dc/elements/1.1/"
   xmlns:cc="http://creativecommons.org/ns#"
   xmlns:rdf="http://www.w3.org/1999/02/22-rdf-syntax-ns#"
   xmlns:svg="http://www.w3.org/2000/svg"
   xmlns="http://www.w3.org/2000/svg"
   xmlns:sodipodi="http://sodipodi.sourceforge.net/DTD/sodipodi-0.dtd"
   xmlns:inkscape="http://www.inkscape.org/namespaces/inkscape"
   width="11in"
   height="8.5in"
   viewBox="0 0 279.4 215.9"
   version="1.1"
   id="svg8"
   inkscape:version="0.92.2 (5c3e80d, 2017-08-06)"
   sodipodi:docname="spoiler room.svg"
   inkscape:export-filename="/home/cassidyjames/spoiler-room.png"
   inkscape:export-xdpi="300"
   inkscape:export-ydpi="300">
  <defs
     id="defs2" />
  <sodipodi:namedview
     id="base"
     pagecolor="#ffffff"
     bordercolor="#666666"
     borderopacity="1.0"
     inkscape:pageopacity="0.0"
     inkscape:pageshadow="2"
     inkscape:zoom="0.7"
     inkscape:cx="135.13459"
     inkscape:cy="420.8816"
     inkscape:document-units="mm"
     inkscape:current-layer="layer1"
     showgrid="false"
     units="in"
     inkscape:window-width="2560"
     inkscape:window-height="1371"
     inkscape:window-x="0"
     inkscape:window-y="33"
     inkscape:window-maximized="1" />
  <metadata
     id="metadata5">
    <rdf:RDF>
      <cc:Work
         rdf:about="">
        <dc:format>image/svg+xml</dc:format>
        <dc:type
           rdf:resource="http://purl.org/dc/dcmitype/StillImage" />
        <dc:title />
      </cc:Work>
    </rdf:RDF>
  </metadata>
  <g
     inkscape:label="Layer 1"
     inkscape:groupmode="layer"
     id="layer1"
     transform="translate(0,-81.1)">
    <path
       style="fill:none;stroke-width:1.41111111;stroke:#db0d0f;stroke-opacity:1;stroke-miterlimit:4;stroke-dasharray:none"
       d="m 51.665505,168.10398 0.0084,-6.13966 13.983376,-0.0167 c 11.993744,-0.0143 13.99352,-0.0234 14.054664,-0.0641 0.161387,-0.10725 0.227619,-0.363 0.13636,-0.52655 -0.02232,-0.04 -0.131111,-0.16781 -0.241757,-0.28402 -2.594103,-2.72443 -3.798202,-4.05813 -4.263692,-4.72262 -0.721005,-1.02923 -1.409284,-2.515 -1.765381,-3.81088 -0.296342,-1.07842 -0.419371,-2.04585 -0.390624,-3.07164 0.02413,-0.861 0.10552,-1.41922 0.323969,-2.22197 0.611694,-2.24783 2.212888,-4.47447 4.125052,-5.73637 1.571954,-1.03737 3.828804,-1.84157 5.653736,-2.01463 0.242111,-0.023 8.35712,-0.0342 24.693702,-0.0342 l 24.33309,-3e-5 v 5.66352 5.66352 h -7.51796 -7.51794 v 11.72799 11.72799 h -6.18142 -6.18142 v -11.7447 -11.7447 h -8.070782 -8.070779 l -0.08201,0.082 c -0.0633,0.0633 -0.08201,0.11708 -0.08201,0.23567 0,0.14739 0.01192,0.16624 0.292365,0.46214 4.09074,4.31622 4.737962,5.06041 5.460243,6.27829 0.99032,1.66984 1.461911,3.50413 1.463931,5.69414 0.002,1.73096 -0.31537,3.20361 -1.014916,4.71524 -0.944836,2.04166 -2.453286,3.64489 -4.447436,4.72686 -0.999272,0.54218 -2.192937,0.95017 -3.349307,1.14478 -0.927528,0.1561 -0.125122,0.14953 -18.294108,0.14991 l -17.065823,3.5e-4 z m 75.888135,6.05773 c -0.0506,-0.0506 -0.0821,-0.12046 -0.0821,-0.182 0,-0.0877 0.53179,-1.89155 1.41949,-4.81486 0.15346,-0.50538 0.58974,-1.94882 0.96951,-3.20766 0.84803,-2.81104 2.37534,-7.86427 4.38292,-14.50128 0.8366,-2.76577 1.97743,-6.53747 2.53518,-8.38157 0.55775,-1.84409 1.0386,-3.39028 1.06854,-3.43598 0.12418,-0.18953 -0.51603,-0.17775 9.66279,-0.1777 8.86585,5e-5 9.3881,0.003 9.49636,0.0585 0.063,0.0321 0.14133,0.096 0.17403,0.14196 0.0327,0.0459 0.80542,2.48927 1.71717,5.42963 0.91175,2.94035 2.36225,7.61651 3.22333,10.39147 2.0412,6.57802 4.87415,15.72374 5.46064,17.62873 0.13917,0.45208 0.25305,0.85224 0.25305,0.88925 0,0.037 -0.0396,0.10693 -0.0881,0.15537 l -0.0881,0.0881 h -6.17609 -6.1761 l -0.053,-0.0809 c -0.0292,-0.0445 -0.39043,-1.13837 -0.80281,-2.4308 -0.62162,-1.94818 -0.76436,-2.36272 -0.83506,-2.42505 l -0.0853,-0.0752 h -5.77703 c -4.16328,0 -5.79977,0.0104 -5.85846,0.0371 -0.0448,0.0204 -0.0985,0.0693 -0.11932,0.10859 -0.0208,0.0393 -0.3611,1.10896 -0.75613,2.37699 -0.39503,1.26803 -0.74587,2.34309 -0.77965,2.38904 l -0.0614,0.0835 -6.27113,0.008 -6.27114,0.008 z m 23.06659,-14.55301 c 0.13158,-0.19329 0.29999,0.40397 -1.8183,-6.44872 -0.84505,-2.73375 -0.91169,-2.94036 -0.9484,-2.94036 -0.0415,0 -0.0901,0.14539 -0.60358,1.80431 -0.55714,1.80001 -2.06129,6.68445 -2.17623,7.06687 -0.0907,0.30195 -0.0806,0.43976 0.0422,0.5704 l 0.0766,0.0815 2.67406,-0.009 2.67406,-0.009 z m 19.57512,14.57383 c -0.0513,-0.0567 -0.0553,-1.31231 -0.0553,-17.39199 v -17.33089 l 12.40461,0.009 12.40461,0.009 0.55131,0.0884 c 3.02607,0.48511 5.50821,1.6872 7.40146,3.58448 1.85185,1.8558 2.84115,3.98675 3.05892,6.58894 0.053,0.63299 0.0241,2.19829 -0.0504,2.73484 -0.16971,1.22202 -0.49292,2.3018 -0.98575,3.29315 -0.62272,1.25265 -1.48145,2.30092 -2.6412,3.2242 -0.60663,0.48294 -1.57931,1.17042 -2.00829,1.41944 -0.64857,0.3765 -0.72945,0.48447 -0.58462,0.7805 0.19037,0.38911 0.72492,0.6315 1.58799,0.72007 0.23132,0.0237 3.12548,0.0352 8.86033,0.0352 h 8.51679 v 6.14801 6.148 h -10.55985 c -7.27229,0 -10.66086,-0.0111 -10.88431,-0.0357 -0.77575,-0.0854 -1.76362,-0.29147 -2.47961,-0.51716 -1.05255,-0.33179 -2.18412,-0.91547 -2.94035,-1.51667 -0.11945,-0.095 -1.91018,-1.86475 -3.97939,-3.93285 -3.17024,-3.16854 -3.77484,-3.75841 -3.8425,-3.74885 l -0.0803,0.0113 -0.008,4.86996 -0.008,4.86995 h -6.81098 c -6.55594,0 -6.81305,-0.002 -6.86628,-0.0611 z m 21.78149,-20.50485 c 0.10953,-0.0277 0.34097,-0.1199 0.51431,-0.20496 0.57728,-0.28325 0.96304,-0.7715 1.09188,-1.38196 0.0773,-0.36622 0.0481,-0.93305 -0.0665,-1.28903 -0.17248,-0.53604 -0.53309,-0.94103 -1.06722,-1.19855 -0.59748,-0.28808 -0.23372,-0.26556 -4.47568,-0.27711 -2.55592,-0.007 -3.78879,8.8e-4 -3.83269,0.0244 -0.0356,0.019 -0.0782,0.0835 -0.0947,0.14328 -0.0296,0.10711 -0.0178,3.9116 0.0125,4.05801 0.0373,0.17996 -0.10947,0.17347 3.95865,0.17492 3.24167,0.001 3.78777,-0.006 3.95945,-0.049 z"
       id="path827"
       inkscape:connector-curvature="0"
       sodipodi:nodetypes="cccccccccscccccccccccccccccsccccccscccsccsccsccsccsccccccccsccsccccccssccccccccsccccccccscccscccscccsccccsccccccccccccc" />
    <g
       aria-label="SPOILER  ROOM"
       style="font-style:normal;font-variant:normal;font-weight:bold;font-stretch:normal;font-size:24.11927223px;line-height:1.25;font-family:'ITC Serif Gothic Std';-inkscape-font-specification:'ITC Serif Gothic Std Bold';letter-spacing:0px;word-spacing:0px;fill:#000000;fill-opacity:1;stroke:none;stroke-width:0.14132385"
       id="text823">
      <path
         d="m 40.250658,180.07763 h -0.04824 c -0.265312,0.26531 -0.506505,0.28943 -0.892413,0.28943 -0.361789,0 -0.699459,-0.0724 -1.061248,-0.14472 -0.361789,-0.0724 -0.771817,-0.14471 -1.302441,-0.14471 -2.821955,0 -4.558542,2.14661 -4.558542,4.82385 0,4.14852 5.595671,4.6309 5.595671,7.40462 0,1.20596 -0.892413,2.0019 -2.194854,2.0019 -1.447156,0 -2.411927,-0.89241 -3.30434,-2.02602 v 5.74039 c 0.217073,-0.1206 0.699459,-0.28943 1.085367,-0.28943 0.385909,0 0.771817,0.0724 1.181844,0.14471 0.434147,0.0724 0.868294,0.14472 1.35068,0.14472 3.690248,0 6.029818,-2.14662 6.029818,-5.57155 0,-5.18565 -5.595671,-5.83687 -5.595671,-7.76641 0,-0.43415 0.192954,-0.89241 1.157725,-0.89241 1.157725,0 1.929541,0.72358 2.556643,1.23008 z"
         style="font-style:normal;font-variant:normal;font-weight:bold;font-stretch:normal;font-family:'ITC Serif Gothic Std';-inkscape-font-specification:'ITC Serif Gothic Std Bold';letter-spacing:0px;stroke-width:0.14132385"
         id="path824" />
      <path
         d="m 54.915669,197.63646 c -0.458266,-0.26531 -0.602982,-0.86829 -0.602982,-1.78483 v -3.40081 c 0.289432,0.0482 0.578863,0.0724 0.916533,0.0724 3.810845,0 6.319249,-2.87019 6.319249,-6.19865 0,-3.03903 -2.267212,-6.24689 -6.560442,-6.24689 -1.181844,0 -2.701358,0.45827 -3.473175,0.45827 -0.434147,0 -0.820055,-0.14472 -1.181845,-0.45827 v 15.774 c 0,0.91654 -0.144715,1.51952 -0.602981,1.78483 z m -0.602982,-13.43444 c 0.192955,-0.0965 0.506505,-0.14471 0.771817,-0.14471 1.350679,0 2.31545,0.77182 2.31545,2.24309 0,1.47128 -0.964771,2.24309 -2.31545,2.24309 -0.265312,0 -0.578862,-0.0482 -0.771817,-0.14471 z"
         style="font-style:normal;font-variant:normal;font-weight:bold;font-stretch:normal;font-family:'ITC Serif Gothic Std';-inkscape-font-specification:'ITC Serif Gothic Std Bold';letter-spacing:0px;stroke-width:0.14132385"
         id="path826" />
      <path
         d="m 74.839798,184.05731 c 3.207863,0 5.113286,2.46016 5.113286,4.99269 0,2.53252 -1.905423,4.99269 -5.113286,4.99269 -3.207863,0 -5.113286,-2.46017 -5.113286,-4.99269 0,-2.53253 1.905423,-4.99269 5.113286,-4.99269 z m 0,-3.97968 c -4.920331,0 -9.2618,3.81084 -9.2618,8.97237 0,5.16152 4.341469,8.97237 9.2618,8.97237 4.920332,0 9.261801,-3.81085 9.261801,-8.97237 0,-5.16153 -4.341469,-8.97237 -9.261801,-8.97237 z"
         style="font-style:normal;font-variant:normal;font-weight:bold;font-stretch:normal;font-family:'ITC Serif Gothic Std';-inkscape-font-specification:'ITC Serif Gothic Std Bold';letter-spacing:0px;stroke-width:0.14132385"
         id="path828" />
      <path
         d="m 88.887121,195.85163 c 0,0.91654 -0.144715,1.51952 -0.602982,1.78483 h 5.185644 c -0.458266,-0.26531 -0.602982,-0.86829 -0.602982,-1.78483 v -13.60327 c 0,-0.91653 0.144716,-1.51951 0.602982,-1.78482 h -5.185644 c 0.458267,0.26531 0.602982,0.86829 0.602982,1.78482 z"
         style="font-style:normal;font-variant:normal;font-weight:bold;font-stretch:normal;font-family:'ITC Serif Gothic Std';-inkscape-font-specification:'ITC Serif Gothic Std Bold';letter-spacing:0px;stroke-width:0.14132385"
         id="path830" />
      <path
         d="m 111.19756,197.63646 v -4.55854 c -0.48238,0.55474 -1.06124,0.84417 -1.80894,0.84417 h -3.40082 v -11.67373 c 0,-0.91653 0.14472,-1.51951 0.60298,-1.78482 h -5.18564 c 0.45827,0.26531 0.60298,0.86829 0.60298,1.78482 v 13.60327 c 0,0.91654 -0.14471,1.51952 -0.60298,1.78483 z"
         style="font-style:normal;font-variant:normal;font-weight:bold;font-stretch:normal;font-family:'ITC Serif Gothic Std';-inkscape-font-specification:'ITC Serif Gothic Std Bold';letter-spacing:0px;stroke-width:0.14132385"
         id="path832" />
      <path
         d="m 118.79563,195.85163 c 0,0.91654 -0.14472,1.51952 -0.60298,1.78483 h 10.49188 v -4.55854 c -0.48238,0.55474 -1.06125,0.84417 -1.80894,0.84417 h -4.10028 v -3.01491 h 2.70136 c 0.67534,0 0.98889,0.41003 1.35068,0.84418 v -5.40272 c -0.36179,0.43415 -0.67534,0.84417 -1.35068,0.84417 h -2.70136 v -3.0149 h 4.02792 c 0.74769,0 1.32656,0.28943 1.80894,0.84417 v -4.55854 h -10.49188 v 0.0482 c 0.55474,0.31355 0.67534,0.89241 0.67534,1.73658 z"
         style="font-style:normal;font-variant:normal;font-weight:bold;font-stretch:normal;font-family:'ITC Serif Gothic Std';-inkscape-font-specification:'ITC Serif Gothic Std Bold';letter-spacing:0px;stroke-width:0.14132385"
         id="path834" />
      <path
         d="m 141.04954,183.81612 c 0.19295,-0.0241 0.38591,-0.0241 0.60298,-0.0241 1.06125,0 1.85719,0.82005 1.85719,1.85718 0,1.03713 -0.79594,1.85719 -1.85719,1.85719 -0.21707,0 -0.41003,0 -0.60298,-0.0241 z m -3.97968,12.03551 c 0,0.91654 -0.14472,1.51952 -0.60298,1.78483 h 5.18564 c -0.45826,-0.26531 -0.60298,-0.86829 -0.60298,-1.78483 v -5.04092 c 2.65312,0.74769 4.84797,2.53252 4.84797,5.52331 0,0.43415 -0.0482,0.94065 -0.31355,1.30244 h 5.52332 c -0.33767,-0.33767 -0.65122,-0.57886 -0.84418,-1.64011 -0.5065,-2.67724 -1.85718,-6.15042 -4.6309,-6.72928 v -0.0482 c 1.59187,-0.21707 2.02602,-1.85718 2.02602,-3.54553 0,-3.08727 -2.09838,-5.59567 -5.93334,-5.59567 -1.18184,0 -2.70136,0.45827 -3.47318,0.45827 -0.43414,0 -0.82005,-0.14472 -1.18184,-0.45827 z"
         style="font-style:normal;font-variant:normal;font-weight:bold;font-stretch:normal;font-family:'ITC Serif Gothic Std';-inkscape-font-specification:'ITC Serif Gothic Std Bold';letter-spacing:0px;stroke-width:0.14132385"
         id="path836" />
      <path
         d="m 170.49201,183.81612 c 0.19296,-0.0241 0.38591,-0.0241 0.60299,-0.0241 1.06124,0 1.85718,0.82005 1.85718,1.85718 0,1.03713 -0.79594,1.85719 -1.85718,1.85719 -0.21708,0 -0.41003,0 -0.60299,-0.0241 z m -3.97968,12.03551 c 0,0.91654 -0.14471,1.51952 -0.60298,1.78483 h 5.18565 c -0.45827,-0.26531 -0.60299,-0.86829 -0.60299,-1.78483 v -5.04092 c 2.65312,0.74769 4.84798,2.53252 4.84798,5.52331 0,0.43415 -0.0482,0.94065 -0.31355,1.30244 h 5.52331 c -0.33767,-0.33767 -0.65122,-0.57886 -0.84417,-1.64011 -0.50651,-2.67724 -1.85719,-6.15042 -4.6309,-6.72928 v -0.0482 c 1.59187,-0.21707 2.02601,-1.85718 2.02601,-3.54553 0,-3.08727 -2.09837,-5.59567 -5.93334,-5.59567 -1.18184,0 -2.70135,0.45827 -3.47317,0.45827 -0.43415,0 -0.82006,-0.14472 -1.18185,-0.45827 z"
         style="font-style:normal;font-variant:normal;font-weight:bold;font-stretch:normal;font-family:'ITC Serif Gothic Std';-inkscape-font-specification:'ITC Serif Gothic Std Bold';letter-spacing:0px;stroke-width:0.14132385"
         id="path838" />
      <path
         d="m 192.55522,184.05731 c 3.20786,0 5.11329,2.46016 5.11329,4.99269 0,2.53252 -1.90543,4.99269 -5.11329,4.99269 -3.20786,0 -5.11328,-2.46017 -5.11328,-4.99269 0,-2.53253 1.90542,-4.99269 5.11328,-4.99269 z m 0,-3.97968 c -4.92033,0 -9.2618,3.81084 -9.2618,8.97237 0,5.16152 4.34147,8.97237 9.2618,8.97237 4.92033,0 9.2618,-3.81085 9.2618,-8.97237 0,-5.16153 -4.34147,-8.97237 -9.2618,-8.97237 z"
         style="font-style:normal;font-variant:normal;font-weight:bold;font-stretch:normal;font-family:'ITC Serif Gothic Std';-inkscape-font-specification:'ITC Serif Gothic Std Bold';letter-spacing:0px;stroke-width:0.14132385"
         id="path840" />
      <path
         d="m 215.33373,184.05731 c 3.20786,0 5.11328,2.46016 5.11328,4.99269 0,2.53252 -1.90542,4.99269 -5.11328,4.99269 -3.20787,0 -5.11329,-2.46017 -5.11329,-4.99269 0,-2.53253 1.90542,-4.99269 5.11329,-4.99269 z m 0,-3.97968 c -4.92034,0 -9.26181,3.81084 -9.26181,8.97237 0,5.16152 4.34147,8.97237 9.26181,8.97237 4.92033,0 9.2618,-3.81085 9.2618,-8.97237 0,-5.16153 -4.34147,-8.97237 -9.2618,-8.97237 z"
         style="font-style:normal;font-variant:normal;font-weight:bold;font-stretch:normal;font-family:'ITC Serif Gothic Std';-inkscape-font-specification:'ITC Serif Gothic Std Bold';letter-spacing:0px;stroke-width:0.14132385"
         id="path842" />
      <path
         d="m 234.5908,180.46354 h -4.10028 c 0.16884,0.26531 0.31355,0.60298 0.31355,0.98889 0,0.38591 -0.0482,0.84417 -0.12059,1.35068 l -1.97778,12.66261 c -0.14472,0.8683 -0.45827,1.73659 -0.82006,2.17074 h 5.18565 c -0.19296,-0.21707 -0.45827,-0.48239 -0.45827,-0.94065 0,-0.14472 0,-0.45827 0.0482,-0.91653 l 0.7477,-8.34527 h 0.0482 l 3.85909,10.58836 h 0.19295 l 3.78673,-10.58836 h 0.0482 l 0.86829,8.20055 c 0.0482,0.43415 0.0482,0.77182 0.0482,1.06125 0,0.45826 -0.26531,0.72358 -0.45827,0.94065 h 5.20976 c -0.36178,-0.43415 -0.69945,-1.30244 -0.84417,-2.17074 l -1.95366,-12.66261 c -0.0724,-0.50651 -0.1206,-0.96477 -0.1206,-1.35068 0,-0.38591 0.14472,-0.72358 0.31355,-0.98889 h -3.97968 l -2.91843,8.17643 h -0.0482 z"
         style="font-style:normal;font-variant:normal;font-weight:bold;font-stretch:normal;font-family:'ITC Serif Gothic Std';-inkscape-font-specification:'ITC Serif Gothic Std Bold';letter-spacing:0px;stroke-width:0.14132385"
         id="path844" />
    </g>
    <path
       style="fill:none;stroke-width:1.41111111;stroke-miterlimit:4;stroke-dasharray:none;stroke:#db0d0f;stroke-opacity:1"
       d="m 68.049917,237.58891 c -0.0498,-0.0427 -0.293071,-0.78719 -0.903497,-2.76494 -0.459439,-1.48855 -1.161009,-3.75897 -1.559046,-5.04537 -0.398036,-1.28641 -1.141897,-3.69215 -1.653025,-5.3461 -1.097506,-3.55139 -3.877314,-12.54203 -5.460657,-17.66121 -0.617121,-1.99524 -1.122039,-3.67498 -1.122039,-3.73274 0,-0.0662 0.02158,-0.11615 0.05847,-0.13517 0.03379,-0.0174 2.971091,-0.0399 6.958275,-0.0531 5.701853,-0.019 6.910221,-0.0153 6.959809,0.0213 0.04243,0.0313 0.453719,1.37496 1.404287,4.58777 1.265653,4.27776 1.348847,4.54416 1.422375,4.55469 0.04295,0.006 0.09034,-0.001 0.105299,-0.0167 0.01496,-0.0153 0.207642,-0.67443 0.428181,-1.46465 0.220539,-0.79022 0.688807,-2.46672 1.040597,-3.72556 0.35179,-1.25884 0.71454,-2.55944 0.80611,-2.89023 0.09157,-0.33079 0.196374,-0.70296 0.232895,-0.82705 l 0.0664,-0.22562 7.206151,0.008 7.206149,0.008 1.421813,4.55515 c 0.934312,2.99331 1.440018,4.56534 1.474909,4.58487 0.110292,0.0617 0.163065,-0.053 0.415832,-0.90369 0.293138,-0.98658 1.279203,-4.2925 1.958362,-6.56567 0.258056,-0.86373 0.483139,-1.59673 0.500184,-1.62889 0.02935,-0.0554 0.374965,-0.0585 6.538679,-0.0585 5.017,0 6.51688,0.009 6.5478,0.0401 0.0664,0.0664 0.0476,0.17805 -0.12484,0.74108 -0.0907,0.29624 -0.68595,2.25272 -1.32272,4.34772 -1.9133,6.29468 -5.66823,18.63209 -8.769513,28.81355 -0.125069,0.41061 -0.244795,0.76395 -0.266052,0.78521 -0.0289,0.0289 -1.50413,0.0408 -5.846818,0.0473 -5.501357,0.008 -5.811721,0.006 -5.875512,-0.0501 -0.04986,-0.0435 -0.568579,-1.72057 -1.997258,-6.45734 -1.061447,-3.51925 -1.944669,-6.43162 -1.962713,-6.47195 -0.04146,-0.0927 -0.103135,-0.11703 -0.168212,-0.0664 -0.0431,0.0335 -1.21433,3.76661 -3.555703,11.33311 -0.30839,0.9966 -0.510763,1.59787 -0.553863,1.64558 l -0.06791,0.0752 h -5.737525 c -5.416071,0 -5.741343,-0.003 -5.805678,-0.0585 z m 37.850953,0.0348 c -0.0795,-0.0292 -0.17233,-0.12036 -0.20219,-0.19843 -0.0198,-0.0517 0.0519,-0.33615 0.25678,-1.0191 0.27511,-0.91689 3.09963,-10.26542 4.11738,-13.62759 0.27537,-0.90968 1.02164,-3.37556 1.65839,-5.47975 1.26714,-4.18736 2.65092,-8.75677 3.42518,-11.31033 0.27303,-0.90048 0.57915,-1.91073 0.68025,-2.245 0.21231,-0.70183 0.22375,-0.72727 0.36593,-0.81396 0.10476,-0.0639 0.25828,-0.0649 9.56363,-0.065 h 9.45717 l 0.1097,0.0919 c 0.12286,0.1029 -0.0184,-0.33359 1.99242,6.15636 0.52669,1.69989 1.15846,3.73725 1.40393,4.52747 0.24547,0.79022 0.9822,3.16589 1.63719,5.27927 0.65499,2.11338 1.58707,5.12055 2.07129,6.68262 1.05814,3.41346 2.74433,8.86367 3.25556,10.52285 0.20346,0.66033 0.36994,1.22094 0.36994,1.24581 0,0.084 -0.10406,0.20472 -0.20767,0.24084 -0.072,0.0251 -1.93573,0.0359 -6.1901,0.0359 h -6.08708 l -0.0717,-0.0763 c -0.0489,-0.0521 -0.30476,-0.80724 -0.80649,-2.38069 -0.40414,-1.2674 -0.7597,-2.35214 -0.79013,-2.41054 -0.0304,-0.0584 -0.0949,-0.12249 -0.14324,-0.14243 -0.0623,-0.0257 -1.76754,-0.0337 -5.85736,-0.0275 l -5.76942,0.009 -0.0786,0.0739 c -0.0616,0.0578 -0.23819,0.58665 -0.81296,2.43386 -0.56666,1.82118 -0.75251,2.37835 -0.81404,2.44045 l -0.0797,0.0805 -6.20193,-0.003 c -3.41106,-0.001 -6.22449,-0.0109 -6.25205,-0.0211 z m 22.84731,-14.52973 c 0.0895,-0.0627 0.17431,-0.21765 0.17431,-0.31851 0,-0.079 -0.19275,-0.71685 -1.27125,-4.20693 -1.48447,-4.80386 -1.52411,-4.92818 -1.57454,-4.93808 -0.0375,-0.007 -0.16261,0.35719 -0.52758,1.537 -1.17111,3.78582 -1.43299,4.63539 -1.82598,5.92377 -0.22983,0.75346 -0.43849,1.43335 -0.46368,1.51086 -0.0556,0.17107 -0.0175,0.34624 0.10098,0.46477 l 0.0793,0.0793 h 2.61701 c 2.31739,0 2.62554,-0.006 2.69146,-0.0522 z m 20.39711,14.5188 c -0.0416,-0.0167 -0.0905,-0.0694 -0.10859,-0.11701 -0.0215,-0.0565 -0.0329,-6.09489 -0.0329,-17.35899 v -17.27239 h 12.32815 c 12.07033,0 12.33883,0.001 12.83898,0.0658 2.48499,0.3202 4.86123,1.29775 6.64889,2.73526 2.35425,1.89312 3.68535,4.28602 4.00855,7.20614 0.0659,0.59565 0.0569,2.24919 -0.0155,2.82991 -0.33766,2.70964 -1.52856,4.95312 -3.46564,6.52877 -0.6985,0.56817 -1.80943,1.35384 -2.36918,1.67555 -0.52363,0.30094 -0.59264,0.49094 -0.29934,0.82415 0.21454,0.24372 0.50637,0.38665 1.04841,0.51349 0.21301,0.0499 1.03334,0.0556 9.1886,0.0648 8.94531,0.0101 8.95482,0.01 9.06531,-0.0577 0.0611,-0.0374 0.13333,-0.12215 0.16141,-0.18936 0.10187,-0.2438 0.0863,-0.26619 -0.91908,-1.32382 -2.25772,-2.37501 -3.25569,-3.49457 -3.66933,-4.11638 -1.09422,-1.64492 -1.82965,-3.61576 -2.03288,-5.44778 -0.06,-0.54057 -0.0677,-1.55412 -0.0155,-2.03675 0.19975,-1.84797 0.94676,-3.61298 2.19896,-5.19561 0.29766,-0.37621 1.228,-1.3167 1.55961,-1.57663 1.55643,-1.21995 3.81016,-2.14222 6.006,-2.45778 0.38434,-0.0552 1.09964,-0.0588 11.71966,-0.0588 h 11.31033 l 0.008,5.63846 0.008,5.63846 h -8.6222 -8.62219 l -0.0806,0.0806 c -0.0941,0.0941 -0.13257,0.21945 -0.10323,0.33635 0.0114,0.0456 0.31002,0.38784 0.66353,0.76057 2.1794,2.29798 3.51504,3.76207 4.13809,4.53606 0.99007,1.22992 1.61533,2.42103 2.0171,3.84251 0.50283,1.77903 0.55164,3.96511 0.12902,5.77835 -0.5071,2.17568 -1.65124,4.12399 -3.23196,5.50358 -1.74032,1.51888 -3.73493,2.36736 -6.16849,2.62399 -0.3386,0.0357 -3.0362,0.044 -14.25068,0.044 -13.202,0 -13.8536,-0.003 -14.2841,-0.061 -2.19312,-0.29637 -4.048,-1.02893 -5.34087,-2.10931 -0.15908,-0.13293 -1.92221,-1.88127 -3.91809,-3.8852 -1.99586,-2.00393 -3.66226,-3.6614 -3.7031,-3.68326 -0.17969,-0.0962 -0.16928,-0.39606 -0.16928,4.87608 v 4.87936 l -6.77451,-0.002 c -3.98521,-0.001 -6.80566,-0.0146 -6.85017,-0.0325 z m 21.72734,-20.56004 c 0.43071,-0.11558 0.88895,-0.38432 1.13509,-0.6657 0.34125,-0.3901 0.49476,-0.83835 0.49446,-1.44382 -2.6e-4,-0.68199 -0.16659,-1.11536 -0.59088,-1.54025 -0.3054,-0.30585 -0.635,-0.49165 -1.10549,-0.6232 l -0.26731,-0.0747 -3.72918,-0.009 c -3.64582,-0.009 -3.73097,-0.008 -3.80909,0.0553 l -0.0799,0.0647 -0.009,2.03772 -0.009,2.03771 0.0873,0.10369 0.0872,0.10369 3.81447,-5.3e-4 c 3.08434,-2.6e-4 3.84646,-0.009 3.98154,-0.0452 z"
       id="path827-0"
       inkscape:connector-curvature="0"
       sodipodi:nodetypes="cccssscccsccsssccccsccccscccccccccccccsccccccscccccccccccscsccsccccccccccccscccccccsccccscscsccscccscccccccccscccccscccscscsccccscccccccccccccccccccc" />
  </g>
</svg>
