<svg viewBox="0 0 620 464" xmlns="http://www.w3.org/2000/svg"><g style="stroke-width:1.58684"><path d="M1568.605 2090.451v114.74h-114.74Z" style="color:#000;display:inline;overflow:visible;visibility:visible;opacity:.108;fill:#ecedea;fill-opacity:1;fill-rule:nonzero;stroke:none;stroke-width:1.58684;marker:none;enable-background:accumulate" transform="matrix(.67252 0 0 .67187 -593.07 -1093.97)"/><path style="color:#000;display:inline;overflow:visible;visibility:visible;opacity:.108;fill:#f7f7f7;fill-opacity:1;fill-rule:nonzero;stroke:none;stroke-width:1.58684;marker:none;enable-background:accumulate" d="M1341.076 2090.45v.123l-114.617 114.62h229.359l-114.62-114.62v-.122l-.06.06-.062-.06z" transform="matrix(.67252 0 0 .67187 -593.07 -1093.97)"/><path d="M1340.657 2204.77v114.74h-114.74z" style="color:#000;display:inline;overflow:visible;visibility:visible;opacity:.108;fill:#ecedea;fill-opacity:1;fill-rule:nonzero;stroke:none;stroke-width:1.58684;marker:none;enable-background:accumulate" transform="matrix(.67252 0 0 .67187 -593.07 -1093.97)"/><path d="M1683.765 1977.244v-114.74h-114.74ZM1453.865 2091.563v-114.74h114.74zM1341.078 1977.244v-114.74h114.74z" style="color:#000;display:inline;overflow:visible;visibility:visible;opacity:.108;fill:#f7f7f7;fill-opacity:1;fill-rule:nonzero;stroke:none;stroke-width:1.58684;marker:none;enable-background:accumulate" transform="matrix(.67252 0 0 .67187 -593.07 -1093.97)"/><path d="M1340.657 1976.823v114.74h-114.74zM1224.553 2090.451v114.74h-114.74Z" style="color:#000;display:inline;overflow:visible;visibility:visible;opacity:.108;fill:#ecedea;fill-opacity:1;fill-rule:nonzero;stroke:none;stroke-width:1.58684;marker:none;enable-background:accumulate" transform="matrix(.67252 0 0 .67187 -593.07 -1093.97)"/><path d="M1224.553 2319.51v-114.74h-114.74Z" style="color:#000;display:inline;overflow:visible;visibility:visible;opacity:.108;fill:#f7f7f7;fill-opacity:1;fill-rule:nonzero;stroke:none;stroke-width:1.58684;marker:none;enable-background:accumulate" transform="matrix(.67252 0 0 .67187 -593.07 -1093.97)"/><path d="M1109.392 2204.77v114.74h-114.74Z" style="color:#000;display:inline;overflow:visible;visibility:visible;opacity:.108;fill:#ecedea;fill-opacity:1;fill-rule:nonzero;stroke:none;stroke-width:1.58684;marker:none;enable-background:accumulate" transform="matrix(.67252 0 0 .67187 -593.07 -1093.97)"/><path style="color:#000;display:inline;overflow:visible;visibility:visible;opacity:.108;fill:#f7f7f7;fill-opacity:1;fill-rule:nonzero;stroke:none;stroke-width:1.58684;marker:none;enable-background:accumulate" d="M881.865 1976.822v228.37l113.627-113.628h1.112l-.558-.555.558-.558h-1.112l-113.627-113.629z" transform="matrix(.67252 0 0 .67187 -593.07 -1093.97)"/><path d="M996.605 2204.77v114.74h-114.74Z" style="color:#000;display:inline;overflow:visible;visibility:visible;opacity:.108;fill:#ecedea;fill-opacity:1;fill-rule:nonzero;stroke:none;stroke-width:1.58684;marker:none;enable-background:accumulate" transform="matrix(.67252 0 0 .67187 -593.07 -1093.97)"/><path d="M1224.553 1862.504v114.74h-114.74z" style="color:#000;display:inline;overflow:visible;visibility:visible;opacity:.108;fill:#f7f7f7;fill-opacity:1;fill-rule:nonzero;stroke:none;stroke-width:1.58684;marker:none;enable-background:accumulate" transform="matrix(.67252 0 0 .67187 -593.07 -1093.97)"/><path d="M1224.553 1976.823v114.74h-114.74z" style="color:#000;display:inline;overflow:visible;visibility:visible;opacity:.108;fill:#f7f7f7;fill-opacity:1;fill-rule:nonzero;stroke:none;stroke-width:1.58684;marker:none;enable-background:accumulate" transform="matrix(.67252 0 0 .67187 -593.07 -1093.97)"/><path d="M1109.392 1976.823v114.74h-114.74Z" style="color:#000;display:inline;overflow:visible;visibility:visible;opacity:.108;fill:#ecedea;fill-opacity:1;fill-rule:nonzero;stroke:none;stroke-width:1.58684;marker:none;enable-background:accumulate" transform="matrix(.67252 0 0 .67187 -593.07 -1093.97)"/><path style="color:#000;display:inline;overflow:visible;visibility:visible;opacity:.108;fill:#f7f7f7;fill-opacity:1;fill-rule:nonzero;stroke:none;stroke-width:1.58684;marker:none;enable-background:accumulate" d="m1803.773 1628.903-113.627 113.628h-1.112v114.742l113.626-113.629h1.113v-114.741z" transform="matrix(.67252 0 0 .67187 -593.07 -1093.97)"/></g></svg>
