<?xml version="1.0" encoding="UTF-8" standalone="no"?>
<!-- Created with Inkscape (http://www.inkscape.org/) -->

<svg
   xmlns:dc="http://purl.org/dc/elements/1.1/"
   xmlns:cc="http://creativecommons.org/ns#"
   xmlns:rdf="http://www.w3.org/1999/02/22-rdf-syntax-ns#"
   xmlns:svg="http://www.w3.org/2000/svg"
   xmlns="http://www.w3.org/2000/svg"
   xmlns:sodipodi="http://sodipodi.sourceforge.net/DTD/sodipodi-0.dtd"
   xmlns:inkscape="http://www.inkscape.org/namespaces/inkscape"
   width="144.51442mm"
   height="91.809105mm"
   viewBox="0 0 512.05896 325.30786"
   id="svg2"
   version="1.1"
   inkscape:version="0.91 r13725"
   sodipodi:docname="rabbit.svg">
  <defs
     id="defs4" />
  <sodipodi:namedview
     id="base"
     pagecolor="#ffffff"
     bordercolor="#666666"
     borderopacity="1.0"
     inkscape:pageopacity="0.0"
     inkscape:pageshadow="2"
     inkscape:zoom="1.2321862"
     inkscape:cx="585.66265"
     inkscape:cy="245.80103"
     inkscape:document-units="px"
     inkscape:current-layer="layer1"
     showgrid="false"
     fit-margin-top="0"
     fit-margin-left="0"
     fit-margin-right="0"
     fit-margin-bottom="0"
     inkscape:window-width="3200"
     inkscape:window-height="1688"
     inkscape:window-x="0"
     inkscape:window-y="60"
     inkscape:window-maximized="1" />
  <metadata
     id="metadata7">
    <rdf:RDF>
      <cc:Work
         rdf:about="">
        <dc:format>image/svg+xml</dc:format>
        <dc:type
           rdf:resource="http://purl.org/dc/dcmitype/StillImage" />
        <dc:title></dc:title>
      </cc:Work>
    </rdf:RDF>
  </metadata>
  <g
     inkscape:label="Layer 1"
     inkscape:groupmode="layer"
     id="layer1"
     transform="translate(3302.694,-646.72461)">
    <path
       style="opacity:0.8;fill:#ff2a2a;fill-opacity:1"
       d="m -2962.4765,661.67688 c -0.1742,-0.002 -0.2902,0.17215 -0.2902,0.49613 0,0.24627 0.1328,0.37504 0.3865,0.37504 0.2126,0 0.3865,0.11991 0.3865,0.26632 0,0.14643 0.1368,0.37957 0.3038,0.51817 0.2686,0.22287 0.2965,0.16407 0.2416,-0.5079 -0.034,-0.41789 -0.1306,-0.73484 -0.2141,-0.70448 -0.084,0.0304 -0.286,-0.0792 -0.4502,-0.24338 -0.1338,-0.13379 -0.2594,-0.19863 -0.3639,-0.1999 z"
       id="path4350"
       inkscape:connector-curvature="0" />
    <path
       style="fill:#000000;fill-rule:evenodd;stroke:none;stroke-width:1px;stroke-linecap:butt;stroke-linejoin:miter;stroke-opacity:1"
       d="M 333.21094 0.50195312 C 330.83122 0.53019253 325.40292 1.0711612 320.04102 4.9570312 L 320.63672 5.8085938 C 324.7531 7.2320222 327.98415 8.5169588 330.4375 9.6210938 C 333.1748 10.853044 335.01109 11.870081 336.24609 12.650391 C 337.47859 13.429141 338.42198 14.270047 338.42578 14.273438 L 338.42969 14.277344 C 362.73809 37.346574 386.22461 77.572266 386.22461 77.572266 C 386.90205 78.722801 387.09702 80.029005 386.86523 81.251953 L 381.65234 80.265625 C 381.65234 80.265625 358.03533 40.182007 334.74023 18.091797 C 334.74023 18.091797 329.20808 12.742765 299.48438 5.0839844 C 299.48438 5.0839844 297.51233 4.6447375 295.70312 4.8359375 C 293.89393 5.0271275 292.24734 5.8500331 292.89844 8.3769531 C 292.89844 8.3769531 307.56267 56.528465 314.25977 63.597656 C 314.25977 63.597656 334.47599 82.03755 354.71289 96.173828 C 354.71889 96.177828 354.72467 96.181527 354.73047 96.185547 L 342.5332 108.46094 L 207.90234 47.25 C 207.90234 47.25 171.91638 32.308868 132.23438 35.361328 C 132.23438 35.361328 63.948517 38.62492 41.503906 86.412109 C 40.394909 88.623314 38.762324 89.564377 35.976562 89.794922 C 26.78423 90.801581 16.230576 99.04647 8.8398438 111.44531 C -1.751582 129.21372 -2.3312231 149.40086 7.5449219 156.53516 C 13.541993 160.84592 22.222334 159.41938 30.630859 153.17188 C 35.2213 149.89177 36.884055 151.16801 37.705078 154.11523 C 53.051913 193.92938 123.64648 220.24219 123.64648 220.24219 C 122.03768 226.00681 95.761719 265.15234 95.761719 265.15234 C 90.533419 273.73224 95.492187 276.94922 95.492188 276.94922 C 128.87338 298.26494 147.10742 324.80859 147.10742 324.80859 L 212.79688 324.80859 C 213.06498 321.18895 212.12695 313.68164 212.12695 313.68164 C 211.18855 308.45326 205.28906 306.97852 205.28906 306.97852 C 194.16196 304.9676 185.7168 299.4707 185.7168 299.4707 C 154.8827 281.90869 143.08398 266.89453 143.08398 266.89453 C 178.34208 216.35349 181.69336 201.20508 181.69336 201.20508 C 194.83136 155.08805 163.42969 127.83398 163.42969 127.83398 L 168.61523 124.50195 C 168.61523 124.50195 198.89646 151.93798 189.91016 198.93945 L 219.53711 219.12305 L 216.38867 266.89648 L 208.61133 272.82031 C 208.61133 272.82031 197.68679 268.00612 190.65039 270.04297 C 190.65039 270.04297 188.42794 275.78335 190.46484 285.41211 L 216.20312 289.85742 L 232.68359 279.48633 C 232.68359 279.48633 241.38708 262.26619 248.23828 241.52734 C 248.23828 241.52734 348.78311 291.89358 432.84961 216.90039 C 432.84961 216.90039 464.70005 211.53128 488.03125 199.125 C 488.03125 199.125 505.80667 185.05041 511.54688 160.97852 C 511.54688 160.97852 512.6581 150.23901 495.4375 139.12891 C 495.4375 139.12891 492.4744 137.64809 490.4375 125.05664 C 490.4375 125.05664 490.80756 118.57666 484.51172 111.16992 L 468.2168 96.726562 C 468.2168 96.726562 464.84469 92.754219 455.52539 91.599609 C 455.52539 91.599609 434.41224 88.629594 419.40234 83.021484 C 416.32564 81.871964 413.21631 80.629374 401.25781 64.464844 L 366.53711 19.929688 C 366.53711 19.929688 352.65328 2.6275925 334.45898 0.5390625 C 334.45898 0.5390625 334.00418 0.49254003 333.21094 0.50195312 z M 451.80273 112.22266 C 453.40841 112.26476 454.20117 112.87891 454.20117 112.87891 C 454.20117 112.87891 470.12657 122.45142 473.10938 135.68164 C 473.10938 135.68164 476.62121 143.81315 473.87891 146.60352 C 473.87891 146.60352 472.33924 148.81753 466.27734 144.96875 C 466.27734 144.96875 442.07896 132.79518 439.91406 123.6543 C 438.90376 119.13197 444.53125 114.99612 444.53125 114.99609 C 447.77865 112.71089 450.19706 112.18056 451.80273 112.22266 z M 187.4668 205.78125 C 187.4668 205.78125 170.59347 242.42688 151.63867 265.91602 C 151.63867 265.91602 176.14437 292.23124 200.45117 299.36719 L 210.04297 302.00586 C 213.61907 304.13999 217.51765 308.41919 218.40625 311.9707 C 219.76025 317.38234 219.65625 324.79883 219.65625 324.79883 L 249.43359 324.79883 C 249.25729 317.49076 248.17383 312.19141 248.17383 312.19141 C 245.96393 308.81564 242.21615 307.22038 239.28125 306.4668 C 235.09215 305.39024 217.57454 298.43676 207.71094 292.75586 C 193.59074 290.42677 185.2832 287.60938 185.2832 287.60938 L 184.04492 275.43555 L 173.9668 268.10547 L 206.56055 219.2793 L 187.4668 205.78125 z M 375.85742 257.50391 C 375.50142 257.49018 375.08301 257.53853 374.58984 257.66406 C 374.58984 257.66406 343.31302 265.19601 327.60352 264.76562 C 327.60352 264.76562 321.79436 267.7777 321.72266 279.39844 C 321.72266 279.39844 326.09892 283.70277 353.35742 280.76172 C 353.35742 280.76172 360.88827 281.62234 370.57227 270.2168 C 370.57227 270.2168 376.81359 264.33416 377.74609 260.67578 C 377.74609 260.67578 378.34945 257.60001 375.85742 257.50391 z "
       transform="translate(-3302.694,646.72461)"
       id="path4354" />
  </g>
</svg>
