<?xml version="1.0" encoding="UTF-8" standalone="no"?>
<!-- Created with Inkscape (http://www.inkscape.org/) -->

<svg
   xmlns:dc="http://purl.org/dc/elements/1.1/"
   xmlns:cc="http://creativecommons.org/ns#"
   xmlns:rdf="http://www.w3.org/1999/02/22-rdf-syntax-ns#"
   xmlns:svg="http://www.w3.org/2000/svg"
   xmlns="http://www.w3.org/2000/svg"
   xmlns:sodipodi="http://sodipodi.sourceforge.net/DTD/sodipodi-0.dtd"
   xmlns:inkscape="http://www.inkscape.org/namespaces/inkscape"
   width="210mm"
   height="297mm"
   viewBox="0 0 744.09448819 1052.3622047"
   id="svg2"
   version="1.1"
   inkscape:version="0.91 r13725"
   sodipodi:docname="signature.svg">
  <defs
     id="defs4" />
  <sodipodi:namedview
     id="base"
     pagecolor="#ffffff"
     bordercolor="#666666"
     borderopacity="1.0"
     inkscape:pageopacity="0.0"
     inkscape:pageshadow="2"
     inkscape:zoom="1"
     inkscape:cx="-283.93139"
     inkscape:cy="565.22401"
     inkscape:document-units="px"
     inkscape:current-layer="layer1"
     showgrid="false"
     showguides="false"
     inkscape:guide-bbox="true"
     inkscape:window-width="3200"
     inkscape:window-height="1688"
     inkscape:window-x="0"
     inkscape:window-y="60"
     inkscape:window-maximized="1">
    <sodipodi:guide
       position="98.519016,553.04994"
       orientation="0,1"
       id="guide4615" />
  </sodipodi:namedview>
  <metadata
     id="metadata7">
    <rdf:RDF>
      <cc:Work
         rdf:about="">
        <dc:format>image/svg+xml</dc:format>
        <dc:type
           rdf:resource="http://purl.org/dc/dcmitype/StillImage" />
        <dc:title></dc:title>
      </cc:Work>
    </rdf:RDF>
  </metadata>
  <g
     inkscape:label="Layer 1"
     inkscape:groupmode="layer"
     id="layer1">
    <rect
       style="fill:#444c5c;fill-opacity:1;fill-rule:evenodd;stroke:#000000;stroke-width:1.02999473px;stroke-linecap:butt;stroke-linejoin:miter;stroke-opacity:1"
       id="rect4617"
       width="1507.234"
       height="924.59412"
       x="-689.23108"
       y="125.64204" />
    <path
       style="fill:#ffffff;fill-opacity:1;fill-rule:nonzero;stroke:none;stroke-width:1px;stroke-linecap:butt;stroke-linejoin:miter;stroke-opacity:1"
       id="path3770"
       d="m -592.43719,367.98679 c 5.72938,17.90376 12.7241,35.3781 19.74069,52.80779 8.40465,20.5897 18.59754,40.35413 29.70049,59.59917 3.31345,5.70962 6.86033,11.2773 10.54973,16.74961 0,0 -10.94299,0.6344 -10.94299,0.6344 l 0,0 c -3.50828,-5.53638 -6.92305,-11.13239 -10.15052,-16.8382 -10.86132,-19.36728 -20.90377,-39.18914 -29.3255,-59.75376 -7.12576,-17.51662 -14.23725,-35.04819 -20.60295,-52.85908 0,0 11.03105,-0.33993 11.03105,-0.33993 z"
       inkscape:connector-curvature="0" />
    <path
       style="fill:#ffffff;fill-opacity:1;fill-rule:nonzero;stroke:none;stroke-width:1px;stroke-linecap:butt;stroke-linejoin:miter;stroke-opacity:1"
       id="path3772"
       d="m -644.07372,380.54474 c 7.12163,-5.67154 15.55122,-8.18338 24.31742,-10.28489 10.78174,-2.58469 22.47418,-4.37707 33.51,-5.19902 6.15914,-0.45874 12.34508,-0.42486 18.51762,-0.63729 9.42644,0.30018 18.87028,0.25401 28.27931,0.90055 11.34546,0.77959 24.10331,3.12645 35.09886,6.04853 9.52559,2.53144 20.99584,6.51185 29.90164,10.8941 4.30837,2.12 8.32717,4.78371 12.49076,7.17556 3.28234,2.46627 15.82288,11.46744 18.85992,15.23493 6.45955,8.01317 10.15148,21.52516 9.55915,31.72047 -0.21712,3.73726 -1.37125,7.36048 -2.05688,11.04073 -1.58245,3.59178 -2.82152,7.35537 -4.74737,10.77534 -6.48359,11.51376 -16.39893,20.97434 -27.43514,28.08697 -10.21818,6.58542 -14.6367,7.69104 -25.92536,12.16788 -18.15936,5.69125 -37.1331,8.08915 -56.08888,8.9459 -9.55126,0.43169 -19.19478,0.12283 -28.73008,0.0176 -2.89411,-0.22652 -7.8107,-0.4703 -10.85252,-1.15866 -0.97185,-0.21993 -2.05969,-0.3545 -2.81582,-1.00343 -1.65738,-1.42243 -0.46299,-3.97439 0.57386,-5.14822 1.29894,-1.47055 3.04871,-2.47072 4.57306,-3.70607 7.44535,-4.50105 15.55908,-7.66691 23.57885,-10.95397 0,0 10.46608,1.24617 10.46608,1.24617 l 0,0 c -7.93627,3.19219 -15.95703,6.28063 -23.32998,10.68164 -1.44249,1.08832 -3.01345,2.02456 -4.32748,3.26495 -0.71353,0.67353 -2.1529,2.32807 -0.64735,3.24898 0.79286,0.48498 1.75253,0.64016 2.66331,0.82539 3.22302,0.65551 7.38946,0.83922 10.55743,1.07769 -4.72936,0.47739 -7.18518,0.66186 8.17341,0.0692 18.98136,-0.7325 37.98797,-3.03215 56.20213,-8.60983 11.21611,-4.36275 15.66143,-5.45345 25.82985,-11.90584 10.95892,-6.95399 20.78872,-16.22177 27.24774,-27.57561 1.90157,-3.34264 3.13143,-7.02502 4.69714,-10.53753 0.67728,-3.59189 1.81305,-7.12704 2.03185,-10.77568 0.62001,-10.33886 -2.91401,-22.83479 -9.50629,-30.91881 -3.35968,-4.11993 -14.83693,-12.24853 -18.58377,-15.05139 -4.13435,-2.35347 -8.12791,-4.9736 -12.40306,-7.06042 -14.41336,-7.03555 -30.95739,-11.76412 -46.72662,-14.42339 -7.38396,-1.24521 -18.73122,-2.28782 -26.95449,-3.09694 -6.14639,0.18918 -12.30542,0.13063 -18.43918,0.56756 -11.05664,0.7876 -22.35353,2.50451 -33.14465,5.0786 -8.43579,2.01225 -16.61374,4.39984 -23.44314,9.89988 0,0 -10.97133,-0.92154 -10.97133,-0.92154 z"
       inkscape:connector-curvature="0" />
    <path
       style="fill:#ffffff;fill-opacity:1;fill-rule:nonzero;stroke:none;stroke-width:1px;stroke-linecap:butt;stroke-linejoin:miter;stroke-opacity:1"
       id="path3774"
       d="m -413.51174,455.15415 c -9.3405,3.94729 -18.82127,8.1009 -27.04144,14.14169 -1.67201,1.22871 -3.20826,2.63219 -4.81239,3.94829 -1.36858,1.42596 -2.82497,2.77255 -4.10574,4.27788 -3.4095,4.00729 -7.56222,10.16511 -7.46483,15.70819 0.0163,0.92934 0.36677,1.82243 0.55015,2.73365 0.67612,0.30748 2.77003,0.8827 2.02834,0.92244 -2.48721,0.13325 -5.33826,0.6957 -7.44554,-0.63221 -1.24838,-0.78668 2.85994,-0.78598 4.19384,-1.41688 3.63562,-1.71953 6.76646,-4.13717 9.64821,-6.92059 1.66133,-1.60463 3.11468,-3.41147 4.67202,-5.11721 4.07309,-4.9723 7.51602,-10.40891 10.55784,-16.06063 1.77129,-3.29106 3.24007,-6.71862 4.8979,-10.06415 3.38361,-3.69947 2.22874,-2.95614 12.77146,-0.23216 0.82954,0.21433 0.494,1.64227 0.68266,2.47802 1.04064,4.61 1.58367,9.35484 2.31797,14.01854 0.95479,5.14035 1.78435,10.32443 3.08753,15.39372 0.0869,0.33819 0.86065,3.80036 1.7977,4.44507 0.21623,0.14877 0.49875,-0.16372 0.74813,-0.24558 -3.44384,-0.14551 -6.93606,0.15679 -10.33153,-0.43652 -0.48424,-0.0846 0.579,-0.79723 0.82047,-1.22541 1.31886,-2.33853 2.22535,-4.9399 3.35185,-7.37485 0.39116,-0.81397 0.83202,-1.89726 1.44992,-2.59997 2.88457,-3.28045 12.74907,-0.34426 12.99575,-0.31114 0.45618,0.0613 2.55575,3.34179 2.57435,3.36924 1.40794,2.28398 2.54981,4.71588 3.73282,7.11973 0.28481,0.57872 1.32589,2.84358 1.84306,3.47636 0.20247,0.24773 0.52512,0.36566 0.78768,0.54849 -3.41025,-0.16183 -6.85482,0.0235 -10.23075,-0.48547 -0.44724,-0.0674 0.7511,-0.53464 1.01142,-0.90451 0.55175,-0.78395 0.96526,-1.65802 1.39516,-2.51487 2.22488,-4.43453 4.01552,-9.10274 5.97053,-13.65839 2.07862,-4.72666 4.26939,-9.42956 6.9743,-13.83806 0.83881,-1.36712 2.72463,-4.23556 4.03342,-5.44281 0.53481,-0.49333 1.22083,-0.79194 1.83125,-1.18791 4.26944,0.0596 8.58083,-0.42107 12.80831,0.17896 0.86878,0.12331 1.30208,1.19269 1.82422,1.89792 3.35521,4.53173 4.82648,11.07949 6.29146,16.41463 1.86987,7.465 2.97405,15.08674 3.68068,22.7408 0.0436,0.55828 0.0872,1.11657 0.13087,1.67485 0,0 -11.0663,0.0712 -11.0663,0.0712 l 0,0 c -0.0279,-0.55224 -0.0558,-1.10448 -0.0837,-1.65671 -0.53178,-7.5921 -1.5795,-15.15131 -3.45533,-22.53688 -1.26428,-4.47611 -2.41625,-9.07768 -4.69171,-13.18171 -0.50816,-0.91653 -1.06705,-1.82229 -1.77526,-2.59475 -0.50051,-0.54591 -2.51772,-1.12475 -1.79908,-1.30388 2.94982,-0.73526 6.07035,-0.34486 9.10553,-0.5173 -0.61964,0.26458 -1.32294,0.38544 -1.85891,0.79372 -1.32204,1.00708 -3.37815,4.0154 -4.14936,5.2188 -2.77594,4.33157 -4.98666,8.99979 -7.04736,13.70224 -0.72728,1.72158 -1.46748,3.43775 -2.18184,5.16472 -1.56456,3.78236 -2.96228,7.70124 -4.89228,11.32401 -0.30165,0.56622 -0.38715,1.55296 -1.02412,1.62959 -3.93091,0.4729 -7.91835,-0.0517 -11.87752,-0.0775 -1.14471,-1.3479 -1.76588,-2.84202 -2.53721,-4.43108 -1.14716,-2.36335 -2.29078,-4.74094 -3.74589,-6.9353 -0.45508,-0.58911 -0.85297,-1.22721 -1.36524,-1.76733 -0.36273,-0.38245 -1.76052,-0.89269 -1.24076,-0.98036 3.27736,-0.5528 6.63927,-0.32677 9.95891,-0.49015 -0.28428,0.0618 -0.61474,0.0183 -0.85284,0.1855 -0.6354,0.44609 -1.19567,1.80915 -1.48832,2.39044 -1.17639,2.46452 -2.14347,5.02286 -3.33076,7.48015 -0.24775,0.51275 -0.23759,1.39977 -0.79596,1.51165 -3.86756,0.77496 -7.86007,0.67351 -11.79011,1.01027 -0.25334,-0.21803 -0.57432,-0.37618 -0.76001,-0.6541 -0.83808,-1.25428 -1.27865,-3.49818 -1.57381,-4.76122 -1.19478,-5.11263 -2.08131,-10.29319 -3.02613,-15.45531 -0.21564,-1.29404 -1.44023,-8.72028 -1.7444,-10.26275 -0.23696,-1.20164 -0.48319,-2.40406 -0.81884,-3.58195 -0.18678,-0.65543 -1.402,-1.72486 -0.7445,-1.90421 3.31015,-0.90292 6.83926,-0.63443 10.26982,-0.69405 0.37356,-0.006 -0.65745,0.35513 -0.98617,0.5327 -1.81062,3.32011 -3.33188,6.77297 -5.14768,10.09316 -3.11725,5.69989 -6.59223,11.20725 -10.66026,16.28334 -1.54608,1.75202 -2.99189,3.59792 -4.63826,5.25606 -2.8607,2.88117 -5.95044,5.39784 -9.53926,7.31702 -1.31868,0.70518 -2.66541,1.54897 -4.15366,1.69499 -13.83281,1.35723 -11.0078,3.04383 -16.36044,-1.68531 -0.16855,-1.0253 -0.50401,-2.03684 -0.50563,-3.0759 -0.009,-5.83688 4.10766,-12.09605 7.68358,-16.37759 1.29114,-1.54592 2.75877,-2.93543 4.13815,-4.40314 1.6144,-1.35281 3.15818,-2.79466 4.84319,-4.05843 8.13385,-6.10042 17.56811,-10.23441 26.77116,-14.40334 0,0 10.90953,1.31155 10.90953,1.31155 z"
       inkscape:connector-curvature="0" />
    <path
       style="fill:#ffffff;fill-opacity:1;fill-rule:nonzero;stroke:none;stroke-width:1px;stroke-linecap:butt;stroke-linejoin:miter;stroke-opacity:1"
       id="path3776"
       d="m -330.34184,469.00411 c 0.0659,8.41594 0.32773,16.82936 0.55454,25.24222 0.0567,2.22368 0.11982,4.44718 0.18457,6.67063 0,0 -11.07171,0.0163 -11.07171,0.0163 l 0,0 c -7.9e-4,-2.22177 -0.007,-4.44354 -0.0366,-6.66515 -0.10917,-8.4238 -0.28961,-16.84749 -0.66765,-25.26403 0,0 11.03688,0 11.03688,0 z"
       inkscape:connector-curvature="0" />
    <path
       style="fill:#ffffff;fill-opacity:1;fill-rule:nonzero;stroke:none;stroke-width:1px;stroke-linecap:butt;stroke-linejoin:miter;stroke-opacity:1"
       id="path3778"
       d="m -316.40257,479.45829 c 4.72661,-0.50492 9.42521,-1.83209 13.06675,-5.04743 2.60126,-2.2968 2.92741,-3.34162 4.67947,-6.2572 1.27648,-2.97801 2.4011,-6.10186 2.49298,-9.38165 0.0303,-1.08206 -0.0617,-2.78523 -0.82687,-3.72987 -0.31299,-0.38639 -0.83017,-0.54761 -1.24525,-0.82141 -5.90501,0.37048 4.12818,-0.34839 6.94523,0.9131 0.98445,0.44085 -1.83347,1.16348 -2.61244,1.9096 -1.051,1.00667 -2.03271,2.10483 -2.84173,3.31457 -2.53837,3.79569 -3.12303,6.22904 -4.69958,10.52939 -1.77879,6.72037 -3.02872,13.87756 -1.41037,20.7786 0.28922,1.23332 0.62939,2.47874 1.2212,3.59878 0.52297,0.98974 1.38359,1.76012 2.07538,2.64018 -1.88477,0.98385 9.07386,2.62848 6.97816,1.50189 -1.78177,-0.95783 -5.54266,0.83617 -5.96007,-1.1432 -0.39212,-1.85947 3.5451,-1.38294 5.25059,-2.22121 4.84052,-2.37919 6.0485,-3.49403 10.49481,-6.61958 5.77016,-4.59534 3.06085,-2.34222 8.15223,-6.73001 0,0 10.782,0.93212 10.782,0.93212 l 0,0 c -5.1953,4.42595 -2.44154,2.14694 -8.28073,6.81346 -4.61421,3.35037 -5.46214,4.23152 -10.46596,6.84314 -1.69585,0.88511 -3.33007,2.06042 -5.21247,2.4009 -5.11158,0.92454 -10.33515,1.1293 -15.52498,1.34994 -3.89413,0.16555 -4.08437,-0.54603 -7.11743,-2.4355 -0.6872,-0.9965 -1.53913,-1.89758 -2.06161,-2.98949 -0.57147,-1.19428 -0.90596,-2.49697 -1.18314,-3.7916 -1.51836,-7.09186 -0.24601,-14.40008 1.54531,-21.29791 1.52227,-4.33078 2.18663,-7.00208 4.58913,-10.90311 0.36929,-0.59963 3.96825,-5.47311 5.35119,-5.7648 10.4071,-2.19507 9.45787,-2.23792 15.01171,-0.57386 0.42244,0.45518 0.95274,0.83011 1.26733,1.36553 2.17138,3.69562 -0.46686,10.57683 -1.84253,14.08805 -1.76493,3.0958 -2.09196,4.18596 -4.70994,6.69393 -3.56747,3.41758 -8.19319,4.97247 -12.97862,5.70982 0,0 -10.92975,-1.67517 -10.92975,-1.67517 z"
       inkscape:connector-curvature="0" />
    <path
       style="fill:#ffffff;fill-opacity:1;fill-rule:nonzero;stroke:none;stroke-width:1px;stroke-linecap:butt;stroke-linejoin:miter;stroke-opacity:1"
       id="path3780"
       d="m -242.09035,383.03382 c 0.87768,17.16621 1.47305,34.34729 1.77884,51.53324 0.33893,16.1872 -0.48016,32.34994 -1.92754,48.46455 -0.37153,3.89583 -0.71188,7.79442 -1.03812,11.69425 0,0 -10.96087,-0.10396 -10.96087,-0.10396 l 0,0 c 0.41547,-3.89797 0.82309,-7.79676 1.24484,-11.69407 1.66701,-16.06071 2.6062,-32.18537 2.31653,-48.34197 -0.31738,-17.16544 -0.86017,-34.35191 -2.45637,-51.45192 0,0 11.04269,-0.10012 11.04269,-0.10012 z"
       inkscape:connector-curvature="0" />
    <path
       style="fill:#ffffff;fill-opacity:1;fill-rule:nonzero;stroke:none;stroke-width:1px;stroke-linecap:butt;stroke-linejoin:miter;stroke-opacity:1"
       id="path4400"
       d="m -132.80386,475.47181 c 1.66182,6.59176 5.90212,12.46847 11.36093,16.50833 1.25138,0.92611 2.66459,1.61076 3.99689,2.41613 -3.48402,1.17363 10.97081,1.93372 8.18118,1.8046 -2.29685,-0.10632 -4.88066,0.62598 -6.87894,-0.51143 -1.11324,-0.63365 2.46957,-0.74599 3.59496,-1.35779 2.96629,-1.61258 3.51899,-2.77484 5.62562,-5.31393 0.60332,-1.15527 1.33268,-2.25303 1.80996,-3.46581 1.2476,-3.17017 1.83252,-7.03336 -0.41957,-9.94628 -1.92823,-2.49404 -3.83548,-2.87952 -6.62862,-4.10997 2.52717,0.24188 -12.09411,-2.58251 -9.351,-1.06066 1.68108,0.93266 4.80771,-1.10586 5.73856,0.57623 0.78988,1.42734 -3.18499,0.72861 -4.73498,1.23728 -3.27717,1.07549 -4.80878,2.00168 -7.79727,3.53925 -3.50895,2.10435 -1.89251,1.07074 -4.86993,3.0683 0,0 -10.94673,-1.07529 -10.94673,-1.07529 l 0,0 c 3.06434,-2.06209 1.40464,-0.99352 4.99835,-3.1756 3.38109,-1.79748 8.87654,-4.77045 12.65343,-5.15157 1.38045,-0.1393 15.44853,-1.17455 20.57264,-0.36641 1.54245,0.24327 3.02058,0.79334 4.53088,1.19001 3.020095,1.5609 4.791705,1.96685 6.753055,4.88103 2.21522,3.29137 1.68535,7.40728 0.37493,10.90521 -0.48104,1.28406 -1.2161,2.45804 -1.82415,3.68707 -2.09539,2.72283 -2.6915,4.00685 -5.667225,5.86099 -5.59918,3.4888 -11.48205,2.19997 -18.30013,2.15761 -1.37042,-0.009 -2.74203,-0.26587 -4.06224,-0.63352 -1.42743,-0.39752 -2.75246,-1.09832 -4.12869,-1.64748 -1.33216,-0.8689 -2.7441,-1.6263 -3.99648,-2.60671 -5.54426,-4.34027 -9.79653,-10.4181 -11.66672,-17.20417 0,0 11.08129,-0.20542 11.08129,-0.20542 z"
       inkscape:connector-curvature="0" />
    <path
       style="fill:#ffffff;fill-opacity:1;fill-rule:nonzero;stroke:none;stroke-width:1px;stroke-linecap:butt;stroke-linejoin:miter;stroke-opacity:1"
       id="path4402"
       d="m -77.850275,498.8398 c -2.69517,-5.82888 -5.46195,-11.84322 -6.29298,-18.28056 -0.14471,-1.12095 -0.14122,-2.25609 -0.21183,-3.38414 0.15428,-3.47735 0.74754,-7.16312 3.30914,-9.75769 1.64916,-1.67039 2.43552,-1.73445 4.62432,-2.67234 4.67902,-1.4395 9.59894,-1.37024 14.43669,-1.5858 3.96218,-0.17654 3.27591,-0.15489 7.13519,-0.45977 4.36481,-0.54271 9.01852,-0.84803 12.8775,-3.15677 0.19954,-0.19122 0.42553,-0.35821 0.59862,-0.57366 0.10599,-0.13194 0.26125,-0.28836 0.22708,-0.45411 -0.0114,-0.0555 -1.87238,0.0211 -1.20879,0.0394 3.19994,0.0881 6.4058,-0.002 9.60173,0.18079 0.51767,0.0296 -1.02003,0.18696 -1.53005,0.28044 -0.56665,0.31817 -1.19176,0.54945 -1.69995,0.95451 -3.03388,2.41816 -4.41606,6.60948 -4.80959,10.32493 -0.1121,1.05843 -0.0587,2.12788 -0.088,3.19182 0.28697,4.14314 1.23918,7.88928 5.36229,9.80119 2.59208,1.20196 4.29575,1.01205 7.11148,1.17294 -2.21317,-0.0922 -4.58313,0.54692 -6.6395,-0.27645 -1.29251,-0.51751 2.764,-0.38546 4.11147,-0.73577 3.47796,-0.90418 6.63453,-2.57074 9.76221,-4.27808 0,0 10.9016,1.16729 10.9016,1.16729 l 0,0 c -3.16444,1.76355 -6.39978,3.56491 -9.89537,4.60377 -6.2568,1.85947 -12.34396,1.01461 -19.01694,1.1276 -3.04134,-0.36902 -4.54568,-0.22592 -7.24305,-1.77197 -3.99984,-2.29257 -5.17523,-6.54823 -5.39679,-10.84097 0.0314,-1.11828 -0.0182,-2.24178 0.0942,-3.35484 0.40657,-4.02614 1.81824,-8.31113 4.76187,-11.21744 0.5091,-0.50264 1.13712,-0.8685 1.70568,-1.30276 5.22222,-1.94452 2.52012,-1.15251 13.94071,-0.40162 0.80373,0.0528 1.28835,1.09733 1.3093,1.74284 0.021,0.64623 -0.5845,1.26305 -0.91537,1.70741 -3.75639,2.76683 -8.63606,3.08033 -13.11604,3.68937 -3.64524,0.31771 -3.43511,0.33683 -7.16597,0.50562 -3.69523,0.16719 -7.43863,0.0875 -11.10999,0.60823 -1.07834,0.15294 -2.13709,0.42158 -3.20563,0.63237 -1.99895,0.66808 -2.94334,0.74458 -4.52704,2.10268 -2.60191,2.23127 -3.16902,5.72134 -3.36407,8.94286 0.0588,1.08177 0.0426,2.17024 0.17652,3.24529 0.79146,6.35384 3.56277,12.30216 6.42383,17.9484 0,0 -11.03446,0.53502 -11.03446,0.53502 z"
       inkscape:connector-curvature="0" />
    <path
       style="fill:#ffffff;fill-opacity:1;fill-rule:nonzero;stroke:none;stroke-width:1px;stroke-linecap:butt;stroke-linejoin:miter;stroke-opacity:1"
       id="path4404"
       d="m -51.725765,438.44066 c 0.9967,-0.55087 1.98959,-1.1087 2.99012,-1.6526 2.04603,-1.11226 7.67588,-4.09842 9.47626,-5.12998 5.29775,-3.03546 10.4364,-6.35999 15.58964,-9.63128 0,0 10.70413,1.08238 10.70413,1.08238 l 0,0 c -5.18342,3.25324 -10.3276,6.60462 -15.61111,9.69405 -1.38299,0.80868 -7.58787,4.18891 -9.28333,5.13955 -0.9555,0.53575 -1.89975,1.09132 -2.84962,1.63698 0,0 -11.01609,-1.1391 -11.01609,-1.1391 z"
       inkscape:connector-curvature="0" />
    <path
       style="fill:#ffffff;fill-opacity:1;fill-rule:nonzero;stroke:none;stroke-width:1px;stroke-linecap:butt;stroke-linejoin:miter;stroke-opacity:1"
       id="path4605"
       d="m -139.64976,392.60428 c -0.30752,1.17244 -0.57957,2.35476 -0.92258,3.51731 -1.19102,4.0367 -2.92605,9.08063 -4.2462,12.97393 -3.0535,9.00515 -6.15577,17.99364 -9.25903,26.98172 -5.37847,15.52308 -10.91801,30.98791 -16.16331,46.55706 -1.7947,5.23312 -3.52007,10.48949 -5.19347,15.76251 0,0 -10.99241,-0.35361 -10.99241,-0.35361 l 0,0 c 1.83416,-5.25685 3.67094,-10.51283 5.53169,-15.76035 5.40081,-15.53827 10.87715,-31.04915 16.37505,-46.55323 3.10279,-8.968 6.17312,-17.94324 9.10059,-26.97039 1.41776,-4.37182 2.77299,-8.47144 3.93295,-12.89758 0.30189,-1.15194 0.51836,-2.32458 0.77753,-3.48688 0,0 11.05919,0.22951 11.05919,0.22951 z"
       inkscape:connector-curvature="0" />
    <path
       style="fill:#ffffff;fill-opacity:1;fill-rule:nonzero;stroke:none;stroke-width:1px;stroke-linecap:butt;stroke-linejoin:miter;stroke-opacity:1"
       id="path4607"
       d="m -150.56944,394.01778 c 8.16519,-2.38353 16.0162,-5.69129 23.4658,-9.79184 1.81962,-1.00159 3.58968,-2.09068 5.38452,-3.13602 6.56995,-4.02685 12.80175,-8.58459 18.69341,-13.5464 0,0 11.011606,0.96972 11.011606,0.96972 l 0,0 c -6.058476,4.95108 -12.397886,9.56428 -19.049726,13.68927 -1.79797,1.06166 -3.57265,2.1638 -5.39392,3.18498 -7.37268,4.13384 -15.1095,7.50861 -23.16725,10.0662 0,0 -10.94444,-1.43591 -10.94444,-1.43591 z"
       inkscape:connector-curvature="0" />
    <path
       style="fill:#ffffff;fill-opacity:1;fill-rule:nonzero;stroke:none;stroke-width:1px;stroke-linecap:butt;stroke-linejoin:miter;stroke-opacity:1"
       id="path4609"
       d="m -163.99604,453.92234 c 10.87394,-1.29308 21.04036,-5.37519 30.89048,-9.95165 3.73669,-1.91137 7.47678,-3.81604 11.21967,-5.71522 0,0 10.86232,1.20724 10.86232,1.20724 l 0,0 c -3.80883,1.87955 -7.61747,3.76018 -11.38248,5.72674 -9.7932,4.58961 -19.87195,8.78403 -30.66116,10.31233 0,0 -10.92883,-1.57944 -10.92883,-1.57944 z"
       inkscape:connector-curvature="0" />
    <text
       xml:space="preserve"
       style="font-style:normal;font-weight:normal;font-size:45.87293625px;line-height:125%;font-family:sans-serif;letter-spacing:0px;word-spacing:0px;opacity:0.8;fill:#000000;fill-opacity:1;stroke:none;stroke-width:1px;stroke-linecap:butt;stroke-linejoin:miter;stroke-opacity:1"
       x="-600.12158"
       y="585.04419"
       id="text5419"
       sodipodi:linespacing="125%"><tspan
         sodipodi:role="line"
         id="tspan5421"
         x="-600.12158"
         y="585.04419"
         style="font-style:normal;font-variant:normal;font-weight:300;font-stretch:normal;font-family:'Open Sans';-inkscape-font-specification:'Open Sans Light';opacity:0.8;fill:#ffffff">Founder of elementary LLC</tspan></text>
    <ellipse
       style="opacity:0.8;fill:#ffffff;fill-opacity:1"
       id="path5423"
       cx="273.93814"
       cy="542.49622"
       rx="4.5713654"
       ry="5.4705148"
       transform="matrix(0.57098142,0.82096298,-0.90790956,0.41916611,0,0)" />
  </g>
</svg>
