<?xml version="1.0" encoding="UTF-8" standalone="no"?>
<svg
   xmlns:dc="http://purl.org/dc/elements/1.1/"
   xmlns:cc="http://creativecommons.org/ns#"
   xmlns:rdf="http://www.w3.org/1999/02/22-rdf-syntax-ns#"
   xmlns:svg="http://www.w3.org/2000/svg"
   xmlns="http://www.w3.org/2000/svg"
   xmlns:sodipodi="http://sodipodi.sourceforge.net/DTD/sodipodi-0.dtd"
   xmlns:inkscape="http://www.inkscape.org/namespaces/inkscape"
   version="1.1"
   width="128"
   height="128"
   id="svg2"
   inkscape:version="0.91 r13725"
   sodipodi:docname="aff.svg">
  <sodipodi:namedview
     pagecolor="#ffffff"
     bordercolor="#666666"
     borderopacity="1"
     objecttolerance="10"
     gridtolerance="10"
     guidetolerance="10"
     inkscape:pageopacity="0"
     inkscape:pageshadow="2"
     inkscape:window-width="3200"
     inkscape:window-height="1688"
     id="namedview14"
     showgrid="false"
     fit-margin-top="0"
     fit-margin-left="0"
     fit-margin-right="0"
     fit-margin-bottom="0"
     inkscape:zoom="5.5078125"
     inkscape:cx="64"
     inkscape:cy="64"
     inkscape:window-x="0"
     inkscape:window-y="60"
     inkscape:window-maximized="1"
     inkscape:current-layer="svg2" />
  <defs
     id="defs4" />
  <metadata
     id="metadata7">
    <rdf:RDF>
      <cc:Work
         rdf:about="">
        <dc:format>image/svg+xml</dc:format>
        <dc:type
           rdf:resource="http://purl.org/dc/dcmitype/StillImage" />
        <dc:title />
      </cc:Work>
    </rdf:RDF>
  </metadata>
  <g
     id="layer9"
     style="display:inline"
     transform="translate(-714.31897,716.05807)" />
  <g
     id="layer10"
     style="display:inline"
     transform="translate(-714.31897,716.05807)" />
  <g
     id="layer11"
     transform="translate(-714.31897,716.05807)" />
  <g
     id="layer14"
     transform="translate(-714.31897,716.05807)" />
  <g
     id="layer15"
     style="display:inline"
     transform="translate(-714.31897,716.05807)" />
  <g
     id="g71291"
     style="display:inline"
     transform="translate(-714.31897,716.05807)" />
  <g
     id="g4953"
     style="display:inline"
     transform="translate(-714.31897,716.05807)" />
  <g
     id="layer12"
     style="display:inline"
     transform="translate(-714.31897,716.05807)" />
  <text
     xml:space="preserve"
     style="font-style:normal;font-variant:normal;font-weight:normal;font-stretch:normal;font-size:26.3473053px;line-height:125%;font-family:Pacifico;-inkscape-font-specification:Pacifico;letter-spacing:0px;word-spacing:0px;fill:#444c5c;fill-opacity:1;stroke:none;stroke-width:1px;stroke-linecap:butt;stroke-linejoin:miter;stroke-opacity:1;"
     x="-2.0079315e-06"
     y="42.032932"
     id="text4153"
     sodipodi:linespacing="125%"><tspan
       sodipodi:role="line"
       id="tspan4155"
       x="-2.0079315e-06"
       y="42.032932"
       style="line-height:124.00000095%;word-spacing:-0.17807144px;fill:#444c5c;fill-opacity:1;">Autumn </tspan><tspan
       sodipodi:role="line"
       x="-2.0079315e-06"
       y="74.70359"
       id="tspan4157"
       style="line-height:124.00000095%;word-spacing:-0.17807144px;fill:#444c5c;fill-opacity:1;">      Fell </tspan><tspan
       sodipodi:role="line"
       x="-2.0079315e-06"
       y="107.37425"
       id="tspan4159"
       style="line-height:124.00000095%;text-align:start;word-spacing:-0.43972746px;text-anchor:start;fill:#444c5c;fill-opacity:1;">        Faster </tspan></text>
  <path
     style="color:#000000;clip-rule:nonzero;display:inline;overflow:visible;visibility:visible;opacity:1;isolation:auto;mix-blend-mode:normal;color-interpolation:sRGB;color-interpolation-filters:linearRGB;solid-color:#000000;solid-opacity:1;fill:#444c5c;fill-opacity:1;fill-rule:nonzero;stroke:none;stroke-width:1px;stroke-linecap:butt;stroke-linejoin:miter;stroke-miterlimit:4;stroke-dasharray:none;stroke-dashoffset:0;stroke-opacity:1;color-rendering:auto;image-rendering:auto;shape-rendering:auto;text-rendering:auto;enable-background:accumulate"
     d="m 32.297702,75.338632 c 0.03732,0.137545 0.02637,0.190038 -0.06273,0.29997 -0.05939,0.07328 -0.194332,0.172656 -0.299848,0.22082 -0.105518,0.04816 -0.304379,0.139549 -0.441917,0.203082 -0.316926,0.146391 -0.692325,0.487714 -1.320285,1.200443 -0.577669,0.655648 -1.825763,1.949407 -3.093081,3.206249 -1.444618,1.432677 -1.928492,2.005641 -2.882832,3.413622 -0.374334,0.552269 -0.478214,0.803241 -0.38921,0.940295 0.06237,0.09605 0.110901,0.104232 0.46668,0.07852 0.158637,-0.01146 0.319063,-0.0034 0.356501,0.01786 0.03744,0.02128 0.147438,0.0589 0.244447,0.08359 0.143516,0.03655 0.242006,0.01207 0.528792,-0.131397 0.446676,-0.223449 0.680518,-0.2679 0.862114,-0.163869 0.314166,0.17998 0.58572,0.225642 0.947103,0.159266 0.477883,-0.08778 0.788271,-0.0351 2.238813,0.379961 1.412182,0.404086 1.615645,0.489711 1.340916,0.564314 -0.05762,0.01569 -0.06228,0.03512 -0.01952,0.08183 0.170242,0.185978 0.169477,0.196244 -0.01048,0.140793 -0.22185,-0.06836 -0.569904,-0.03287 -0.850742,0.08676 -0.232593,0.09908 -0.305211,0.182551 -0.261198,0.300256 0.05004,0.133809 0.713005,0.907964 0.839739,0.980567 0.161362,0.09244 0.940036,0.226867 1.216394,0.209994 0.282156,-0.01723 0.467969,0.0941 0.669971,0.401432 0.192653,0.293063 0.428395,0.469268 0.810275,0.605629 0.685182,0.244653 0.905588,0.37926 0.729091,0.44525 -0.0473,0.01764 -0.120137,0.0126 -0.161874,-0.01132 -0.07976,-0.0457 -0.226298,0.02138 -0.290141,0.132827 -0.05989,0.10453 0.03672,0.958987 0.162098,1.433711 0.09873,0.373837 0.141549,0.458812 0.309297,0.613738 0.107097,0.09887 0.256617,0.30032 0.332297,0.447598 0.108669,0.211476 0.195991,0.310523 0.415269,0.471051 0.275112,0.201416 0.441268,0.409593 0.636164,0.797161 0.09342,0.18577 0.138801,0.221689 0.828897,0.656064 0.401529,0.252766 0.84886,0.552975 0.994047,0.667187 0.417832,0.328656 0.663929,0.45585 0.797673,0.41226 0.158267,-0.05157 0.500616,-0.339565 0.594708,-0.500284 0.0678,-0.115939 0.07776,-0.119639 0.0783,-0.02948 8.57e-4,0.143769 -0.336249,0.635684 -0.549535,0.801887 -0.127214,0.09914 -0.229274,0.13266 -0.381171,0.125333 -0.114103,-0.0055 -0.470289,0.0064 -0.791538,0.02648 -0.380851,0.02381 -0.689279,0.01006 -0.886372,-0.03957 -0.259456,-0.06533 -0.360737,-0.05994 -0.715031,0.03815 -0.227011,0.06288 -0.506646,0.165071 -0.6214,0.22712 -0.11476,0.06203 -0.524717,0.202556 -0.911029,0.312212 -0.386305,0.109688 -0.78191,0.252301 -0.879112,0.316959 -0.298911,0.198867 -0.728226,0.600638 -0.979017,0.916194 -0.131449,0.1654 -0.30822,0.33952 -0.392819,0.386916 l -0.153816,0.08621 -0.119018,0.830011 c -0.07439,0.518802 -0.161133,0.926809 -0.231349,1.088147 -0.154123,0.354131 -0.155236,0.519981 -0.0061,0.902649 0.0705,0.18085 0.137133,0.48981 0.14808,0.68658 0.05936,1.06719 0.227156,1.69963 0.60106,2.26541 0.242537,0.36701 0.407222,0.76474 0.288473,0.6967 -0.02792,-0.016 -0.166025,-0.12116 -0.306876,-0.23369 -0.363283,-0.29029 -1.35,-0.76649 -1.561818,-0.75385 -0.202452,0.0121 -1.390896,0.4003 -1.5742,0.51418 -0.112373,0.0699 -0.208925,0.20455 -0.463213,0.64645 -0.309863,0.53847 -0.328666,0.562 -0.531516,0.66412 -0.39116,0.19697 -0.736944,0.68836 -0.808371,1.1488 -0.02254,0.14536 -0.08176,0.40096 -0.131574,0.56799 -0.04981,0.16704 -0.108541,0.55189 -0.130502,0.85524 -0.02195,0.30335 -0.0698,0.73136 -0.106321,0.95115 -0.03652,0.21978 -0.06551,0.50473 -0.06444,0.63322 0.0036,0.43487 -0.113884,0.19519 -0.424751,-0.86622 -0.372133,-1.27061 -0.561381,-1.71359 -1.02676,-2.40338 -0.408534,-0.60555 -0.523082,-0.72479 -1.064889,-1.10864 -0.418669,-0.29665 -0.573751,-0.499 -0.758496,-0.98988 -0.05615,-0.14921 -0.166886,-0.3358 -0.246058,-0.41464 -0.235405,-0.23441 -0.445859,-0.58841 -0.907905,-1.5272 -0.507846,-1.03186 -0.597733,-1.16316 -0.986318,-1.44076 -0.158526,-0.113274 -0.314081,-0.25672 -0.345656,-0.318802 -0.06754,-0.132794 -0.0843,-0.133749 -0.580552,-0.03295 -0.49635,0.100887 -0.863484,0.282786 -1.135948,0.563072 -0.121279,0.12476 -0.271647,0.26018 -0.334156,0.30093 -0.06252,0.0407 -0.286651,0.2816 -0.498102,0.53524 -0.436778,0.52392 -0.54532,0.60821 -0.925746,0.71888 l -0.271766,0.0791 4.23e-4,0.21398 c 3.3e-4,0.16438 -0.03676,0.27892 -0.159997,0.49417 -0.285848,0.49925 -1.001259,2.03011 -1.115245,2.38642 -0.06101,0.19071 -0.138444,0.52343 -0.172075,0.7394 -0.03363,0.21596 -0.07433,0.39622 -0.09043,0.4006 -0.01615,0.004 -0.09583,-0.19377 -0.17714,-0.44031 -0.36826,-1.11651 -0.416987,-1.18774 -1.06878,-1.56222 -0.832848,-0.47851 -1.266647,-0.57776 -1.910454,-0.43712 -0.137486,0.0305 -0.378405,0.0636 -0.53517,0.0747 -0.156767,0.0111 -0.303906,0.0291 -0.326962,0.0402 -0.02309,0.0109 -0.267142,0.0988 -0.542438,0.19486 -0.493834,0.17226 -0.705894,0.28084 -1.4078223,0.72043 -0.2799341,0.17532 -0.4501296,0.24058 -0.7865466,0.30161 -0.2361458,0.0427 -0.4503837,0.0657 -0.4761143,0.0511 -0.072103,-0.0414 -0.3733659,-0.38661 -0.3943712,-0.45202 -0.021277,-0.0662 0.00833,-0.0553 0.3365069,0.12403 l 0.2291791,0.12516 0.2157734,-0.2919 c 0.2667328,-0.36083 0.4588487,-0.87813 0.5537652,-1.4911 0.056046,-0.36195 0.047447,-0.48845 -0.062678,-0.92196 -0.1365,-0.53735 -0.1852079,-0.62604 -0.7721382,-1.40604 -0.4478285,-0.59523 -0.4968513,-0.62039 -0.9514623,-0.48835 -0.2853762,0.0829 -0.3068762,0.082 -0.2543516,-0.01 0.031545,-0.0551 0.1615256,-0.21709 0.2888316,-0.360053 0.1273035,-0.142941 0.4155557,-0.539461 0.6405592,-0.881159 0.3555024,-0.539857 0.6397661,-0.921697 1.094684,-1.47042 0.087478,-0.105505 0.1423789,-0.276715 0.2371186,-0.739445 0.067809,-0.331184 0.1613053,-0.715766 0.2077701,-0.854632 0.2351178,-0.702691 0.2618378,-2.10834 0.055882,-2.939759 C 9.4439616,92.787672 9.4065332,92.718957 9.3256479,92.702936 9.2693649,92.691767 8.9368544,92.538107 8.5867655,92.3614 8.2366854,92.18472 7.8043689,91.993984 7.6260953,91.937527 7.4478218,91.88107 7.1039098,91.772361 6.8618433,91.695957 6.6197834,91.61954 6.3206819,91.536476 6.1971928,91.511334 6.027254,91.47672 5.7109235,91.320914 4.8959096,90.870295 4.303703,90.542847 3.72858,90.239697 3.6178775,90.196592 3.4206066,90.119786 2.823993,89.998491 2.1234342,89.892728 1.9295824,89.863462 1.520274,89.789212 1.2138584,89.72773 0.57332197,89.599209 0.44972928,89.598482 0.2103346,89.72183 7.7397105e-4,89.829817 -0.06074268,89.81149 0.0646121,89.67843 0.22648596,89.506603 0.39577016,89.41951 0.69494351,89.35415 0.85545398,89.31913 1.0775582,89.26544 1.188536,89.235003 1.5180425,89.144533 2.5083875,88.626907 3.1296921,88.220399 l 0.5795267,-0.37918 0.4704574,-0.824592 C 4.6888006,86.124301 4.6778294,86.155273 4.78383,85.311275 4.8102654,85.10076 4.8580515,84.836646 4.8900202,84.724362 4.9617963,84.472265 4.8678241,84.021625 4.7058791,83.84132 4.6415413,83.769635 4.4493895,83.640208 4.2788949,83.55366 4.0240665,83.424327 3.9015484,83.393177 3.5904067,83.378792 c -0.2081784,-0.0096 -0.3686263,-0.03475 -0.3565503,-0.05583 0.041173,-0.07187 0.5886841,-0.217456 0.9034337,-0.240236 0.1726861,-0.01249 0.7090312,-0.0036 1.1918833,0.01986 0.7997787,0.03879 0.9316734,0.02954 1.4819444,-0.104031 0.3322162,-0.08065 0.7955225,-0.184483 1.0295667,-0.230769 0.2340312,-0.04635 0.5651169,-0.139581 0.7357146,-0.207336 0.1705971,-0.06776 0.5810963,-0.178289 0.9122183,-0.245657 0.331129,-0.06734 0.7153506,-0.17823 0.8538366,-0.246381 0.218071,-0.107327 0.261032,-0.148324 0.320815,-0.306192 0.03796,-0.100243 0.06198,-0.275489 0.05336,-0.389418 -0.0086,-0.113928 0.0032,-0.326569 0.02638,-0.472546 0.05481,-0.345962 0.04531,-0.422729 -0.09203,-0.744083 C 10.387193,79.538986 10.109903,78.657456 10.119213,78.465639 10.13618,78.116085 9.9801025,77.812071 9.4575003,77.176493 9.193275,76.855161 8.8259066,76.426444 8.641122,76.223787 8.3724965,75.929175 8.3140756,75.839747 8.3496662,75.777622 c 0.041975,-0.07327 0.079264,-0.05678 0.6547549,0.289465 0.3843902,0.231264 0.845569,0.468861 1.2460879,0.641894 0.349724,0.151084 0.908594,0.401731 1.241952,0.556962 l 0.60612,0.282214 0.380968,-0.04764 c 0.44864,-0.0561 1.07629,-0.02999 1.449651,0.06032 0.225313,0.0545 0.303742,0.04654 0.513624,-0.05212 0.136238,-0.06405 0.375647,-0.171154 0.532015,-0.238018 0.518549,-0.221728 0.813385,-0.601024 0.86375,-1.111188 0.01634,-0.165372 0.04787,-0.316907 0.07011,-0.336761 0.02225,-0.01987 0.128821,0.153169 0.236857,0.384484 0.108044,0.231321 0.264561,0.516513 0.347831,0.633762 0.143291,0.201772 0.665204,0.688151 1.060247,0.988071 0.132177,0.100319 0.217596,0.223726 0.320228,0.462503 0.135776,0.315865 0.150489,0.332551 0.489959,0.555352 0.192505,0.126311 0.468628,0.335283 0.613649,0.46431 0.322651,0.287103 0.469776,0.339065 0.874659,0.308912 0.286814,-0.02135 0.323925,-0.0377 0.424504,-0.18682 0.149338,-0.221433 0.25997,-0.801849 0.283828,-1.489091 0.01064,-0.306239 0.03611,-0.571774 0.0566,-0.590074 0.0205,-0.01831 0.115101,0.215767 0.210221,0.520153 0.09513,0.304383 0.254998,0.711005 0.355284,0.903595 0.857152,1.646088 0.978919,1.921904 1.155924,2.618348 0.210078,0.826566 0.26751,1.254836 0.212732,1.586384 -0.05782,0.349951 0.02102,0.624967 0.227139,0.792327 0.09241,0.07504 0.2057,0.204639 0.251751,0.288011 0.126196,0.228486 0.240341,0.272493 0.395942,0.152666 0.07281,-0.05607 0.420963,-0.490531 0.773665,-0.965461 1.068419,-1.438667 1.574246,-2.004416 3.572222,-3.995373 0.900752,-0.897588 1.765449,-1.823118 2.115923,-2.26478 0.106693,-0.134447 0.408057,-0.589554 0.6697,-1.011337 0.513384,-0.827603 0.657007,-0.983555 0.988791,-1.073652 0.141401,-0.03843 0.199477,-0.02354 0.434678,0.111198 0.236714,0.135608 0.277258,0.176869 0.31674,0.322237 z"
     id="path4155"
     inkscape:connector-curvature="0" />
</svg>
