<?xml version="1.0" encoding="UTF-8" standalone="no"?>
<svg
   xmlns:dc="http://purl.org/dc/elements/1.1/"
   xmlns:cc="http://creativecommons.org/ns#"
   xmlns:rdf="http://www.w3.org/1999/02/22-rdf-syntax-ns#"
   xmlns:svg="http://www.w3.org/2000/svg"
   xmlns="http://www.w3.org/2000/svg"
   xmlns:sodipodi="http://sodipodi.sourceforge.net/DTD/sodipodi-0.dtd"
   xmlns:inkscape="http://www.inkscape.org/namespaces/inkscape"
   version="1.1"
   width="128"
   height="128"
   id="svg2"
   inkscape:version="0.91 r13725"
   sodipodi:docname="aff.svg">
  <sodipodi:namedview
     pagecolor="#ffffff"
     bordercolor="#666666"
     borderopacity="1"
     objecttolerance="10"
     gridtolerance="10"
     guidetolerance="10"
     inkscape:pageopacity="0"
     inkscape:pageshadow="2"
     inkscape:window-width="3200"
     inkscape:window-height="1688"
     id="namedview14"
     showgrid="false"
     fit-margin-top="0"
     fit-margin-left="0"
     fit-margin-right="0"
     fit-margin-bottom="0"
     inkscape:zoom="5.5078125"
     inkscape:cx="19.06383"
     inkscape:cy="64"
     inkscape:window-x="0"
     inkscape:window-y="60"
     inkscape:window-maximized="1"
     inkscape:current-layer="svg2" />
  <defs
     id="defs4" />
  <metadata
     id="metadata7">
    <rdf:RDF>
      <cc:Work
         rdf:about="">
        <dc:format>image/svg+xml</dc:format>
        <dc:type
           rdf:resource="http://purl.org/dc/dcmitype/StillImage" />
        <dc:title />
      </cc:Work>
    </rdf:RDF>
  </metadata>
  <g
     id="layer9"
     style="display:inline"
     transform="translate(-714.31897,716.05807)" />
  <g
     id="layer10"
     style="display:inline"
     transform="translate(-714.31897,716.05807)" />
  <g
     id="layer11"
     transform="translate(-714.31897,716.05807)" />
  <g
     id="layer14"
     transform="translate(-714.31897,716.05807)" />
  <g
     id="layer15"
     style="display:inline"
     transform="translate(-714.31897,716.05807)" />
  <g
     id="g71291"
     style="display:inline"
     transform="translate(-714.31897,716.05807)" />
  <g
     id="g4953"
     style="display:inline"
     transform="translate(-714.31897,716.05807)" />
  <g
     id="layer12"
     style="display:inline"
     transform="translate(-714.31897,716.05807)" />
  <path
     style="font-style:normal;font-variant:normal;font-weight:normal;font-stretch:normal;font-size:26.3473053px;line-height:125%;font-family:Pacifico;-inkscape-font-specification:Pacifico;letter-spacing:0px;word-spacing:0px;fill:#444c5c;fill-opacity:1;stroke:none;stroke-width:1px;stroke-linecap:butt;stroke-linejoin:miter;stroke-opacity:1;"
     d="M 41.128906 18.978516 C 40.554274 18.978516 40.005594 19.235404 39.482422 19.75 C 38.959249 20.256019 38.47528 20.93412 38.029297 21.783203 C 37.59189 22.62371 37.192248 23.588507 36.832031 24.677734 C 36.480391 25.758386 36.188599 26.877316 35.957031 28.035156 C 35.871265 28.052309 35.712037 28.0625 35.480469 28.0625 C 35.257477 28.053923 35.000589 28.043733 34.708984 28.035156 C 34.425957 28.02658 34.125928 28.02658 33.808594 28.035156 C 33.499836 28.035156 33.216282 28.056726 32.958984 28.099609 C 32.69311 28.142492 32.479362 28.212298 32.316406 28.306641 C 32.144874 28.392407 32.058594 28.519874 32.058594 28.691406 C 32.058594 28.768596 32.063689 28.863114 32.072266 28.974609 C 32.080842 29.077529 32.11065 29.180284 32.162109 29.283203 C 32.213569 29.377546 32.294754 29.463826 32.40625 29.541016 C 32.517746 29.609628 32.676974 29.657864 32.882812 29.683594 C 33.345949 29.735053 33.697355 29.77624 33.9375 29.810547 C 34.186221 29.844853 34.38859 29.879756 34.542969 29.914062 C 34.705924 29.939792 34.854962 29.9696 34.992188 30.003906 C 35.13799 30.029636 35.340358 30.059444 35.597656 30.09375 C 35.520467 30.668382 35.460852 31.248823 35.417969 31.832031 C 35.375086 32.41524 35.353516 32.96392 35.353516 33.478516 C 35.353516 34.785502 35.434184 35.959217 35.59375 37.005859 C 35.41875 37.158051 35.249459 37.310386 35.044922 37.466797 C 34.761894 37.689788 34.459912 37.903537 34.142578 38.109375 C 33.825244 38.306637 33.513836 38.487435 33.205078 38.650391 C 32.904897 38.804769 32.616248 38.929095 32.341797 39.023438 C 32.075922 39.11778 31.848841 39.164062 31.660156 39.164062 C 31.488624 39.164062 31.356061 39.126017 31.261719 39.048828 C 31.175953 38.963062 31.111242 38.846974 31.068359 38.701172 C 31.025476 38.546793 31.000764 38.37109 30.992188 38.173828 C 30.983611 37.96799 30.978516 37.744051 30.978516 37.503906 C 30.978516 37.375257 31.005181 37.148176 31.056641 36.822266 C 31.1081 36.487778 31.170858 36.101469 31.248047 35.664062 C 31.333813 35.226656 31.446759 34.677976 31.583984 34.017578 C 31.729787 33.348604 31.840779 32.778353 31.917969 32.306641 C 32.003735 31.826351 32.071587 31.388664 32.123047 30.994141 C 32.174506 30.591041 32.201172 30.274537 32.201172 30.042969 C 32.201172 29.802824 32.071751 29.605551 31.814453 29.451172 C 31.557155 29.296793 31.210844 29.21875 30.773438 29.21875 C 30.387491 29.21875 30.039226 29.291698 29.730469 29.4375 C 29.430288 29.574726 29.25968 29.747287 29.216797 29.953125 L 27.800781 36.964844 C 27.732168 37.316484 27.629413 37.62475 27.492188 37.890625 C 27.354962 38.165076 27.195734 38.387062 27.015625 38.558594 C 26.844093 38.747279 26.660152 38.893175 26.462891 38.996094 C 26.265629 39.090436 26.073451 39.138672 25.884766 39.138672 C 25.756117 39.138672 25.643171 39.103769 25.548828 39.035156 C 25.454486 38.966543 25.378396 38.877121 25.318359 38.765625 C 25.258323 38.654129 25.210088 38.529804 25.175781 38.392578 C 25.150051 38.246776 25.138672 38.095785 25.138672 37.941406 C 25.138672 37.93283 25.155147 37.800267 25.189453 37.542969 C 25.232336 37.285671 25.288809 36.947597 25.357422 36.527344 C 25.426035 36.107091 25.523695 35.54822 25.652344 34.853516 C 25.789569 34.158811 25.905657 33.528946 26 32.962891 C 26.094343 32.396835 26.183765 31.834823 26.269531 31.277344 C 26.363874 30.719865 26.450154 30.214325 26.527344 29.759766 C 26.527344 29.613963 26.429684 29.494733 26.232422 29.400391 C 26.03516 29.297471 25.708466 29.235903 25.253906 29.21875 C 24.979455 29.227327 24.730804 29.300274 24.507812 29.4375 C 24.293398 29.574726 24.104362 29.750429 23.941406 29.964844 C 23.778451 30.179259 23.63765 30.419672 23.517578 30.685547 C 23.397506 30.951421 23.29475 31.213405 23.208984 31.470703 C 23.131795 31.728001 23.067085 31.968415 23.015625 32.191406 C 22.972742 32.405821 22.942934 32.576429 22.925781 32.705078 C 22.70279 34.437551 22.462376 35.742375 22.205078 36.617188 C 22.148676 36.836528 22.113112 37.128796 22.076172 37.417969 C 22.031108 37.444805 21.993339 37.464543 21.947266 37.492188 C 21.655661 37.663719 21.347395 37.839423 21.021484 38.019531 C 20.70415 38.191063 20.395884 38.348338 20.095703 38.494141 C 19.804099 38.631366 19.523687 38.747454 19.257812 38.841797 C 19.000515 38.927563 18.786766 38.970703 18.615234 38.970703 C 18.520892 38.970703 18.444802 38.954228 18.384766 38.919922 C 18.324729 38.877039 18.276494 38.804091 18.242188 38.701172 C 18.207881 38.598253 18.183169 38.460594 18.166016 38.289062 C 18.157439 38.108954 18.152344 37.881873 18.152344 37.607422 C 18.152344 37.255781 18.160581 36.917708 18.177734 36.591797 C 18.194888 36.265886 18.216458 35.91448 18.242188 35.537109 C 18.370836 35.091126 18.530065 34.567159 18.71875 33.966797 C 18.907435 33.366435 19.099613 32.726379 19.296875 32.048828 C 19.502713 31.371277 19.705082 30.673559 19.902344 29.953125 C 20.108182 29.232691 20.292123 28.519687 20.455078 27.816406 C 20.618033 27.113125 20.747454 26.44012 20.841797 25.796875 C 20.944716 25.15363 20.996094 24.575143 20.996094 24.060547 C 20.996094 23.400149 20.947858 22.876181 20.853516 22.490234 C 20.76775 22.104288 20.648519 21.814449 20.494141 21.617188 C 20.339762 21.411349 20.158963 21.273691 19.953125 21.205078 C 19.747287 21.136465 19.528443 21.093325 19.296875 21.076172 C 19.065307 21.050442 18.829988 21.023777 18.589844 20.998047 C 18.349699 20.96374 18.114381 20.879413 17.882812 20.742188 L 17.882812 20.677734 L 17.882812 20.599609 C 17.891389 20.565303 17.894531 20.527258 17.894531 20.484375 C 17.894531 20.424339 17.883152 20.356486 17.857422 20.279297 C 17.831692 20.202108 17.770124 20.12916 17.675781 20.060547 C 17.590015 19.983358 17.457452 19.921789 17.277344 19.878906 C 17.105812 19.827447 16.873636 19.802734 16.582031 19.802734 C 15.509957 19.802734 14.477307 19.94863 13.482422 20.240234 C 12.487537 20.531839 11.539215 20.934623 10.638672 21.449219 C 9.7381292 21.955238 8.8894204 22.560391 8.0917969 23.263672 C 7.30275 23.958376 6.5732714 24.717662 5.9042969 25.541016 C 5.2353223 26.355792 4.6403599 27.217834 4.1171875 28.126953 C 3.5940151 29.036072 3.1480905 29.952634 2.7792969 30.878906 C 2.4105032 31.805179 2.1269492 32.723693 1.9296875 33.632812 C 1.7410024 34.541932 1.6464844 35.412211 1.6464844 36.244141 C 1.6464844 37.633549 1.8057128 38.739147 2.1230469 39.5625 C 2.4489576 40.385853 2.8866447 41.077287 3.4355469 41.634766 C 3.9844491 42.183668 4.6143143 42.59469 5.3261719 42.869141 C 6.046606 43.152168 6.8058921 43.292969 7.6035156 43.292969 C 8.3325264 43.292969 9.0620049 43.165501 9.7910156 42.908203 C 10.520026 42.650905 11.222839 42.272833 11.900391 41.775391 C 12.586518 41.269371 13.229716 40.574796 13.830078 39.691406 C 14.439016 38.79944 14.982601 37.869546 15.462891 36.900391 C 15.394278 37.303491 15.339758 37.67961 15.296875 38.03125 C 15.253992 38.374314 15.232422 38.695913 15.232422 38.996094 C 15.232422 39.707951 15.30537 40.288392 15.451172 40.734375 C 15.596974 41.180358 15.780915 41.531765 16.003906 41.789062 C 16.235474 42.037784 16.489221 42.208392 16.763672 42.302734 C 17.0467 42.397077 17.325158 42.445312 17.599609 42.445312 C 17.994133 42.445312 18.402012 42.38884 18.822266 42.277344 C 19.251095 42.174425 19.67545 42.033624 20.095703 41.853516 C 20.515956 41.673407 20.926978 41.465943 21.330078 41.234375 C 21.636155 41.058544 21.908225 40.878042 22.179688 40.697266 C 22.285203 40.993311 22.414715 41.248285 22.578125 41.441406 C 22.775387 41.664398 22.997372 41.823626 23.246094 41.917969 C 23.494815 42.012311 23.761894 42.058594 24.044922 42.058594 C 24.387986 42.058594 24.739392 41.990741 25.099609 41.853516 C 25.468403 41.707713 25.828047 41.51044 26.179688 41.261719 C 26.539905 41.012997 26.891311 40.721206 27.234375 40.386719 C 27.577439 40.043655 27.904133 39.670678 28.212891 39.267578 C 28.298657 39.662102 28.396317 40.021746 28.507812 40.347656 C 28.627885 40.66499 28.770638 40.940307 28.933594 41.171875 C 29.105126 41.403443 29.305541 41.582289 29.537109 41.710938 C 29.768677 41.839586 30.047136 41.904297 30.373047 41.904297 C 30.698958 41.904297 31.052317 41.861157 31.429688 41.775391 C 31.807058 41.681048 32.188272 41.561818 32.574219 41.416016 C 32.960166 41.261637 33.34138 41.085934 33.71875 40.888672 C 34.104697 40.69141 34.464341 40.483946 34.798828 40.269531 C 35.141892 40.055116 35.452111 39.841368 35.726562 39.626953 C 35.907099 39.490183 36.035584 39.368489 36.177734 39.242188 C 36.238785 39.405944 36.287736 39.591092 36.355469 39.742188 C 36.689956 40.479775 37.106073 41.046883 37.603516 41.441406 C 38.100958 41.83593 38.676304 42.033203 39.328125 42.033203 C 39.645459 42.033203 39.996866 41.973588 40.382812 41.853516 C 40.777336 41.733443 41.223261 41.552645 41.720703 41.3125 C 42.226722 41.072355 42.802068 40.772326 43.445312 40.412109 C 43.676158 40.282836 43.980333 40.103722 44.234375 39.958984 C 44.262242 40.182002 44.302556 40.384926 44.357422 40.566406 C 44.468918 40.926623 44.619909 41.218415 44.808594 41.441406 C 45.005855 41.664398 45.227841 41.823626 45.476562 41.917969 C 45.725284 42.012311 45.992363 42.058594 46.275391 42.058594 C 46.618454 42.058594 46.969861 41.990741 47.330078 41.853516 C 47.698872 41.707713 48.058516 41.51044 48.410156 41.261719 C 48.770373 41.012997 49.12178 40.721206 49.464844 40.386719 C 49.807908 40.043655 50.134602 39.670678 50.443359 39.267578 C 50.529125 39.662102 50.626785 40.021746 50.738281 40.347656 C 50.858354 40.66499 51.001107 40.940307 51.164062 41.171875 C 51.335594 41.403443 51.53601 41.582289 51.767578 41.710938 C 51.999146 41.839586 52.279558 41.904297 52.605469 41.904297 C 52.931379 41.904297 53.282786 41.861157 53.660156 41.775391 C 54.037527 41.681048 54.418741 41.561818 54.804688 41.416016 C 55.190634 41.261637 55.571848 41.085934 55.949219 40.888672 C 56.259764 40.729949 56.541131 40.560453 56.818359 40.390625 C 56.862304 40.690273 56.936738 40.963837 57.042969 41.208984 C 57.163041 41.457706 57.330507 41.660074 57.544922 41.814453 C 57.759337 41.960255 58.042891 42.033203 58.394531 42.033203 C 58.668982 42.033203 58.917633 41.973588 59.140625 41.853516 C 59.372193 41.724867 59.572609 41.484453 59.744141 41.132812 C 60.335926 39.940666 60.816753 38.949203 61.185547 38.160156 C 61.562917 37.362533 61.871183 36.716193 62.111328 36.21875 C 62.351473 35.721307 62.535414 35.343235 62.664062 35.085938 C 62.801288 34.82864 62.922471 34.636461 63.025391 34.507812 L 63.21875 34.507812 C 63.081524 35.296859 62.965436 36.034575 62.871094 36.720703 C 62.828211 37.012307 62.78507 37.307241 62.742188 37.607422 C 62.699305 37.899026 62.66126 38.177485 62.626953 38.443359 C 62.592647 38.709234 62.565981 38.944552 62.548828 39.150391 C 62.531675 39.356229 62.523438 39.515457 62.523438 39.626953 C 62.523438 39.892828 62.53677 40.168144 62.5625 40.451172 C 62.596806 40.7342 62.656422 40.99423 62.742188 41.234375 C 62.83653 41.465943 62.965951 41.660074 63.128906 41.814453 C 63.291862 41.960255 63.508752 42.033203 63.783203 42.033203 C 64.14342 42.033203 64.461877 41.973588 64.736328 41.853516 C 65.010779 41.724867 65.25943 41.479358 65.482422 41.119141 L 68.09375 34.46875 L 68.287109 34.46875 C 68.218497 35.086265 68.162024 35.699655 68.119141 36.308594 C 68.084834 36.908956 68.068359 37.479206 68.068359 38.019531 C 68.068359 38.594163 68.093072 39.126368 68.144531 39.615234 C 68.204567 40.1041 68.299085 40.528455 68.427734 40.888672 C 68.556383 41.248889 68.723849 41.53049 68.929688 41.736328 C 69.144102 41.93359 69.406086 42.033203 69.714844 42.033203 C 70.340935 42.033203 70.902948 41.952018 71.400391 41.789062 C 71.897833 41.617531 72.351995 41.401829 72.763672 41.144531 C 73.14603 40.902631 73.503989 40.63606 73.84375 40.351562 C 73.886739 40.667333 73.965139 40.952754 74.076172 41.208984 C 74.196244 41.457706 74.36371 41.660074 74.578125 41.814453 C 74.79254 41.960255 75.076094 42.033203 75.427734 42.033203 C 75.710762 42.033203 75.959413 41.968493 76.173828 41.839844 C 76.379666 41.719771 76.571845 41.479358 76.751953 41.119141 L 80.123047 34.429688 L 80.328125 34.429688 C 80.225206 35.115815 80.138925 35.759013 80.070312 36.359375 C 80.0017 36.95116 79.96875 37.504935 79.96875 38.019531 C 79.96875 39.331751 80.126025 40.33145 80.443359 41.017578 C 80.76927 41.695129 81.168912 42.033203 81.640625 42.033203 C 82.112338 42.033203 82.563358 41.963397 82.992188 41.826172 C 83.155143 41.783289 83.57126 41.612681 84.240234 41.3125 C 84.514685 41.192428 85.195928 40.841021 86.285156 40.257812 C 87.039897 39.854712 87.442681 39.630774 87.494141 39.587891 L 88.136719 39.099609 L 88.150391 36.21875 C 87.198388 36.853418 86.379487 37.388765 85.693359 37.826172 C 85.144457 38.177812 84.857761 38.34842 84.832031 38.339844 C 84.814878 38.331267 84.617605 38.474021 84.240234 38.765625 C 84.163045 38.842814 83.982246 38.932237 83.699219 39.035156 C 83.510534 39.112346 83.364638 39.150391 83.261719 39.150391 C 82.978691 39.150391 82.768085 38.979783 82.630859 38.636719 C 82.50221 38.293655 82.4375 37.855968 82.4375 37.324219 C 82.4375 37.006885 82.455928 36.660573 82.490234 36.283203 C 82.533117 35.905833 82.584495 35.522666 82.644531 35.136719 C 82.704567 34.750772 82.769278 34.313085 82.837891 33.824219 C 82.91508 33.335353 82.982933 32.937664 83.042969 32.628906 C 83.103005 32.320149 83.149287 32.055023 83.183594 31.832031 C 83.226477 31.60904 83.248047 31.449811 83.248047 31.355469 C 83.248047 30.720801 83.120579 30.223498 82.863281 29.863281 C 82.61456 29.503064 82.274533 29.322266 81.845703 29.322266 C 81.416873 29.322266 81.027422 29.408546 80.675781 29.580078 C 80.324141 29.75161 80.010779 30.068114 79.736328 30.53125 C 79.676292 30.634169 79.586869 30.793398 79.466797 31.007812 C 79.346725 31.222227 79.214162 31.470879 79.068359 31.753906 C 78.922557 32.028357 78.763329 32.320149 78.591797 32.628906 C 78.428842 32.929087 78.274708 33.275398 78.128906 33.669922 C 77.983104 34.064445 77.853683 34.369569 77.742188 34.583984 C 77.630692 34.789823 77.549506 34.940814 77.498047 35.035156 L 77.240234 35.035156 C 77.240234 34.97512 77.253567 34.859032 77.279297 34.6875 C 77.305027 34.507391 77.334834 34.240312 77.369141 33.888672 C 77.412024 33.528455 77.455164 33.211951 77.498047 32.9375 C 77.54093 32.654472 77.578975 32.384251 77.613281 32.126953 C 77.656164 31.861079 77.691067 31.620665 77.716797 31.40625 C 77.742527 31.183258 77.755859 31.007555 77.755859 30.878906 C 77.755859 30.407193 77.664484 30.029121 77.484375 29.746094 C 77.304266 29.463066 76.982667 29.322266 76.519531 29.322266 C 76.056395 29.322266 75.688514 29.454829 75.414062 29.720703 C 75.148188 29.986578 74.967389 30.316414 74.873047 30.710938 C 74.752975 31.216957 74.628649 31.827205 74.5 32.539062 C 74.371351 33.25092 74.255263 34.053346 74.152344 34.945312 C 74.051313 35.81249 73.968362 36.608807 73.900391 37.34375 C 73.804587 37.43951 73.709535 37.542452 73.613281 37.632812 C 73.433173 37.804344 73.244137 37.97181 73.046875 38.134766 C 72.849613 38.289144 72.647245 38.426803 72.441406 38.546875 C 72.235568 38.666947 72.035152 38.764608 71.837891 38.841797 C 71.640629 38.918986 71.451593 38.958984 71.271484 38.958984 C 71.099952 38.958984 70.954057 38.813089 70.833984 38.521484 C 70.713912 38.22988 70.654297 37.851808 70.654297 37.388672 C 70.654297 36.796887 70.684104 36.239969 70.744141 35.716797 C 70.804177 35.185048 70.8936 34.59637 71.013672 33.953125 C 71.133744 33.30988 71.22512 32.723155 71.285156 32.191406 C 71.345192 31.659657 71.375 31.097645 71.375 30.505859 C 71.375 30.119913 71.232246 29.824979 70.949219 29.619141 C 70.674768 29.404726 70.336694 29.296875 69.933594 29.296875 C 69.573377 29.296875 69.268253 29.416105 69.019531 29.65625 C 68.77081 29.887818 68.522159 30.176467 68.273438 30.519531 C 68.01614 30.871172 67.737681 31.277098 67.4375 31.740234 C 67.145896 32.203371 66.867437 32.646153 66.601562 33.066406 C 66.344265 33.486659 66.103851 33.911014 65.880859 34.339844 C 65.657868 34.760097 65.538638 34.982083 65.521484 35.007812 L 65.378906 34.853516 C 65.378906 34.836362 65.384002 34.803413 65.392578 34.751953 C 65.418308 34.588998 65.44302 34.464672 65.46875 34.378906 C 65.623129 33.847157 65.730979 33.439278 65.791016 33.15625 C 65.868205 32.830339 65.936058 32.555023 65.996094 32.332031 C 66.047553 32.13477 66.098931 31.842978 66.150391 31.457031 C 66.193274 31.15685 66.214844 30.840347 66.214844 30.505859 C 66.214844 30.119913 66.087376 29.824979 65.830078 29.619141 C 65.57278 29.404726 65.264514 29.296875 64.904297 29.296875 C 64.51835 29.296875 64.183418 29.412963 63.900391 29.644531 C 63.62594 29.876099 63.363956 30.167891 63.115234 30.519531 C 62.857936 30.871172 62.587715 31.277098 62.304688 31.740234 C 62.02166 32.194794 61.756534 32.632481 61.507812 33.052734 C 61.267668 33.472988 61.040587 33.897342 60.826172 34.326172 C 60.620334 34.755002 60.507388 34.982083 60.490234 35.007812 L 60.349609 34.853516 C 60.478258 34.133081 60.602584 33.481646 60.722656 32.898438 C 60.731233 32.881284 60.766136 32.659299 60.826172 32.230469 C 60.860478 32.007477 60.885191 31.788634 60.902344 31.574219 C 60.928074 31.359804 60.944548 31.157435 60.953125 30.96875 C 60.970278 30.780065 60.980469 30.612599 60.980469 30.466797 C 60.980469 30.200922 60.970278 29.992269 60.953125 29.837891 C 60.935972 29.683512 60.881452 29.567424 60.787109 29.490234 C 60.701343 29.404468 60.563685 29.353091 60.375 29.335938 C 60.194891 29.310208 59.941145 29.296875 59.615234 29.296875 C 59.400819 29.296875 59.225116 29.31335 59.087891 29.347656 C 58.950665 29.373386 58.831435 29.433001 58.728516 29.527344 C 58.634173 29.61311 58.547892 29.737435 58.470703 29.900391 C 58.393514 30.063346 58.312328 30.28219 58.226562 30.556641 C 58.140797 30.822515 58.046279 31.165684 57.943359 31.585938 C 57.84044 32.006191 57.737685 32.470543 57.634766 32.976562 C 57.540423 33.482582 57.424335 34.077544 57.287109 34.763672 C 57.15846 35.441223 57.0608 36.046376 56.992188 36.578125 C 56.938676 36.992843 56.89919 37.378302 56.861328 37.761719 C 56.699665 37.878119 56.544755 37.997997 56.373047 38.109375 C 56.055713 38.306637 55.744304 38.487435 55.435547 38.650391 C 55.135366 38.804769 54.846717 38.929095 54.572266 39.023438 C 54.306391 39.11778 54.07931 39.164062 53.890625 39.164062 C 53.719093 39.164062 53.58653 39.126017 53.492188 39.048828 C 53.406422 38.963062 53.341711 38.846974 53.298828 38.701172 C 53.255945 38.546793 53.231233 38.37109 53.222656 38.173828 C 53.21408 37.96799 53.208984 37.744051 53.208984 37.503906 C 53.208984 37.375257 53.23565 37.148176 53.287109 36.822266 C 53.338569 36.487778 53.401326 36.101469 53.478516 35.664062 C 53.564282 35.226656 53.677228 34.677976 53.814453 34.017578 C 53.960255 33.348604 54.071248 32.778353 54.148438 32.306641 C 54.234203 31.826351 54.302056 31.388664 54.353516 30.994141 C 54.404975 30.591041 54.431641 30.274537 54.431641 30.042969 C 54.431641 29.802824 54.30222 29.605551 54.044922 29.451172 C 53.787624 29.296793 53.441313 29.21875 53.003906 29.21875 C 52.617959 29.21875 52.269695 29.291698 51.960938 29.4375 C 51.660757 29.574726 51.490149 29.747287 51.447266 29.953125 L 50.03125 36.964844 C 49.962637 37.316484 49.859882 37.62475 49.722656 37.890625 C 49.585431 38.165076 49.426202 38.387062 49.246094 38.558594 C 49.074562 38.747279 48.890621 38.893175 48.693359 38.996094 C 48.496098 39.090436 48.30392 39.138672 48.115234 39.138672 C 47.986585 39.138672 47.873639 39.103769 47.779297 39.035156 C 47.684954 38.966543 47.608864 38.877121 47.548828 38.765625 C 47.488792 38.654129 47.440556 38.529804 47.40625 38.392578 C 47.38052 38.246776 47.369141 38.095785 47.369141 37.941406 C 47.369141 37.93283 47.385615 37.800267 47.419922 37.542969 C 47.462805 37.285671 47.519278 36.947597 47.587891 36.527344 C 47.656503 36.107091 47.754164 35.54822 47.882812 34.853516 C 48.020038 34.158811 48.136126 33.528946 48.230469 32.962891 C 48.324811 32.396835 48.414234 31.834823 48.5 31.277344 C 48.594343 30.719865 48.680623 30.214325 48.757812 29.759766 C 48.757812 29.613963 48.660152 29.494733 48.462891 29.400391 C 48.265629 29.297471 47.938935 29.235903 47.484375 29.21875 C 47.209924 29.227327 46.961273 29.300274 46.738281 29.4375 C 46.523866 29.574726 46.33483 29.750429 46.171875 29.964844 C 46.00892 30.179259 45.868119 30.419672 45.748047 30.685547 C 45.627975 30.951421 45.525219 31.213405 45.439453 31.470703 C 45.362264 31.728001 45.297553 31.968415 45.246094 32.191406 C 45.203211 32.405821 45.173403 32.576429 45.15625 32.705078 C 44.933258 34.437551 44.692845 35.742375 44.435547 36.617188 C 44.407882 36.724772 44.394076 36.88538 44.371094 37.009766 C 44.175561 37.162488 43.986772 37.320046 43.779297 37.466797 C 43.436233 37.706942 43.084826 37.928927 42.724609 38.134766 C 42.372969 38.340604 42.032942 38.521403 41.707031 38.675781 C 41.389697 38.821583 41.094764 38.937672 40.820312 39.023438 C 40.554438 39.109203 40.330499 39.150391 40.150391 39.150391 C 39.858786 39.150391 39.59366 39.109203 39.353516 39.023438 C 39.121948 38.929095 38.924674 38.783199 38.761719 38.585938 C 38.598763 38.380099 38.474438 38.118115 38.388672 37.800781 C 38.302906 37.483447 38.259766 37.092042 38.259766 36.628906 L 38.259766 36.037109 C 38.268342 35.822694 38.27658 35.600709 38.285156 35.369141 L 38.3125 34.673828 C 38.321077 34.433683 38.329314 34.20346 38.337891 33.980469 C 38.36362 33.465873 38.393428 32.941905 38.427734 32.410156 C 38.642149 32.144282 38.874326 31.847395 39.123047 31.521484 C 39.380345 31.186997 39.632138 30.848923 39.880859 30.505859 L 44.822266 30.505859 C 45.028104 30.505859 45.215187 30.411341 45.386719 30.222656 C 45.558251 30.033971 45.644531 29.790415 45.644531 29.490234 C 45.644531 29.241513 45.606486 29.036002 45.529297 28.873047 C 45.452108 28.710092 45.327782 28.623811 45.15625 28.615234 C 45.010448 28.606658 44.826507 28.59842 44.603516 28.589844 C 44.380524 28.581267 44.14011 28.571077 43.882812 28.5625 C 43.625515 28.553923 43.358435 28.545686 43.083984 28.537109 C 42.809533 28.519956 42.552645 28.508577 42.3125 28.5 C 42.080932 28.482847 41.875421 28.472656 41.695312 28.472656 C 41.515204 28.472656 41.385783 28.469514 41.308594 28.460938 C 41.617351 27.972071 41.909143 27.477911 42.183594 26.980469 C 42.466621 26.483026 42.71213 25.993961 42.917969 25.513672 C 43.123807 25.024806 43.286178 24.549074 43.40625 24.085938 C 43.526322 23.614225 43.585938 23.1683 43.585938 22.748047 C 43.585937 22.250604 43.526322 21.774872 43.40625 21.320312 C 43.294754 20.857176 43.132384 20.454392 42.917969 20.111328 C 42.703554 19.768264 42.44157 19.492948 42.132812 19.287109 C 41.832632 19.081271 41.4977 18.978516 41.128906 18.978516 z M 40.845703 21.861328 C 41.008658 21.861328 41.132984 21.894278 41.21875 21.962891 C 41.313093 22.031503 41.382898 22.117784 41.425781 22.220703 C 41.468664 22.323622 41.493377 22.434615 41.501953 22.554688 C 41.519106 22.666183 41.527344 22.768939 41.527344 22.863281 C 41.527344 23.137732 41.454396 23.491092 41.308594 23.919922 C 41.162792 24.348752 40.978851 24.811151 40.755859 25.308594 C 40.532868 25.79746 40.279121 26.299857 39.996094 26.814453 C 39.721643 27.320472 39.456517 27.791109 39.199219 28.228516 C 39.061993 28.211362 38.92943 28.19803 38.800781 28.189453 L 38.414062 28.138672 C 38.568441 27.443968 38.735907 26.727822 38.916016 25.990234 C 39.104701 25.252647 39.301974 24.579641 39.507812 23.970703 C 39.722227 23.353188 39.941071 22.847648 40.164062 22.453125 C 40.395631 22.058602 40.622712 21.861328 40.845703 21.861328 z M 16.132812 22.271484 C 16.432993 22.271484 16.74126 22.293055 17.058594 22.335938 C 17.384504 22.370244 17.697866 22.431812 17.998047 22.517578 L 15.322266 32.449219 C 15.2365 32.826589 15.095699 33.275656 14.898438 33.798828 C 14.701176 34.313424 14.447429 34.850724 14.138672 35.408203 C 13.838491 35.965682 13.481989 36.590452 13.070312 37.285156 C 12.667212 37.971284 12.221288 38.533297 11.732422 38.970703 C 11.243556 39.399533 10.711351 39.747797 10.136719 40.013672 C 9.5706634 40.279546 8.9706057 40.412109 8.3359375 40.412109 C 7.3153225 40.412109 6.5611316 40.082273 6.0722656 39.421875 C 5.5919762 38.7529 5.3515625 37.66692 5.3515625 36.166016 C 5.3515625 35.557077 5.4296056 34.892309 5.5839844 34.171875 C 5.7383631 33.442864 5.9603488 32.696911 6.2519531 31.933594 C 6.5435574 31.1617 6.8918218 30.391034 7.2949219 29.619141 C 7.6980219 28.847247 8.1470886 28.104436 8.6445312 27.392578 C 9.1505505 26.672144 9.690993 26.004234 10.265625 25.386719 C 10.848834 24.760627 11.459082 24.220185 12.09375 23.765625 C 12.736995 23.302489 13.396668 22.93775 14.074219 22.671875 C 14.75177 22.406 15.438108 22.271484 16.132812 22.271484 z M 78.011719 50.003906 C 77.471393 50.003906 76.939188 50.166277 76.416016 50.492188 C 75.892843 50.818098 75.392399 51.267165 74.912109 51.841797 C 74.43182 52.407852 73.972563 53.077716 73.535156 53.849609 C 73.09775 54.612926 72.68987 55.436923 72.3125 56.320312 C 71.943706 57.203702 71.608775 58.125359 71.308594 59.085938 C 71.016989 60.046516 70.765196 61.003076 70.550781 61.955078 C 70.336366 62.90708 70.173996 63.831879 70.0625 64.732422 C 69.951004 65.624388 69.894531 66.45348 69.894531 67.216797 C 69.894531 68.105247 69.969656 68.953384 70.099609 69.773438 C 70.046445 69.815169 70.014067 69.850283 69.958984 69.892578 C 69.478695 70.252795 68.96806 70.587727 68.427734 70.896484 C 67.887409 71.205242 67.330491 71.46213 66.755859 71.667969 C 66.189804 71.873807 65.649361 71.976562 65.134766 71.976562 C 64.97181 71.976562 64.817677 71.958135 64.671875 71.923828 C 64.534649 71.889522 64.400133 71.829907 64.271484 71.744141 C 64.142835 71.658375 64.015368 71.539144 63.886719 71.384766 C 63.766646 71.230387 63.642321 71.036256 63.513672 70.804688 C 64.259836 70.598849 64.949316 70.312153 65.583984 69.943359 C 66.227229 69.574566 66.781004 69.155307 67.244141 68.683594 C 67.707277 68.211881 68.110061 67.644773 68.453125 66.984375 C 68.804765 66.323977 68.980469 65.729015 68.980469 65.197266 C 68.980469 64.7084 68.894188 64.265617 68.722656 63.871094 C 68.551124 63.47657 68.312664 63.141639 68.003906 62.867188 C 67.703725 62.58416 67.347224 62.365316 66.935547 62.210938 C 66.52387 62.056559 66.077946 61.980469 65.597656 61.980469 C 65.005871 61.980469 64.465429 62.088319 63.976562 62.302734 C 63.649197 62.443034 63.35002 62.63173 63.0625 62.84375 C 63.056444 62.827419 63.057587 62.806896 63.050781 62.791016 C 62.999322 62.662367 62.918136 62.559611 62.806641 62.482422 C 62.695145 62.396656 62.535916 62.353516 62.330078 62.353516 L 55.189453 62.353516 C 55.292372 61.324324 55.38689 60.435617 55.472656 59.689453 C 55.558422 58.943289 55.636465 58.310282 55.705078 57.787109 C 55.773691 57.25536 55.828211 56.820815 55.871094 56.486328 C 55.922553 56.151841 55.965694 55.878477 56 55.664062 C 56.034306 55.449648 56.060972 55.282182 56.078125 55.162109 C 56.095278 55.042037 56.103516 54.934186 56.103516 54.839844 C 56.472309 54.788384 56.828811 54.745244 57.171875 54.710938 C 57.472056 54.676631 57.780322 54.646824 58.097656 54.621094 C 58.423567 54.595364 58.702026 54.582031 58.933594 54.582031 C 59.714064 54.582031 60.481588 54.595364 61.236328 54.621094 C 61.999645 54.638247 62.737361 54.67315 63.449219 54.724609 C 64.161076 54.767492 64.842319 54.827108 65.494141 54.904297 C 66.145962 54.97291 66.751115 55.054095 67.308594 55.148438 C 67.351477 55.157014 67.389522 55.165252 67.423828 55.173828 L 67.541016 55.173828 C 67.755431 55.173828 67.939371 55.127546 68.09375 55.033203 C 68.256705 54.930284 68.384173 54.800863 68.478516 54.646484 C 68.572858 54.492106 68.642664 54.32464 68.685547 54.144531 C 68.737006 53.964423 68.761719 53.793815 68.761719 53.630859 C 68.761719 53.382138 68.677391 53.14682 68.505859 52.923828 C 68.342904 52.700837 68.040922 52.528275 67.603516 52.408203 C 66.085458 52.193788 64.611979 52.04475 63.179688 51.958984 C 61.755972 51.873218 60.391533 51.830078 59.087891 51.830078 C 57.12385 51.830078 55.326819 51.967736 53.697266 52.242188 C 52.076289 52.516639 50.682042 52.944135 49.515625 53.527344 C 48.357784 54.110552 47.457698 54.861601 46.814453 55.779297 C 46.171208 56.688416 45.849609 57.782634 45.849609 59.060547 C 45.849609 59.189196 45.862942 59.316664 45.888672 59.445312 C 45.922978 59.565385 46.004164 59.678331 46.132812 59.78125 C 46.270038 59.875593 46.475549 59.951683 46.75 60.011719 C 47.033028 60.063178 47.424432 60.089844 47.921875 60.089844 C 48.290669 60.089844 48.569127 60.041608 48.757812 59.947266 C 48.955074 59.852923 49.095875 59.745072 49.181641 59.625 C 49.267407 59.504928 49.315642 59.393935 49.324219 59.291016 C 49.332795 59.188096 49.335938 59.128481 49.335938 59.111328 C 49.335938 58.759688 49.422218 58.400044 49.59375 58.03125 C 49.765282 57.662456 50.030408 57.305954 50.390625 56.962891 C 50.750842 56.619827 51.205004 56.298228 51.753906 55.998047 C 52.302808 55.697866 52.951102 55.440977 53.697266 55.226562 C 53.594346 55.775465 53.504924 56.294337 53.427734 56.783203 C 53.350545 57.272069 53.26936 57.794084 53.183594 58.351562 C 53.097828 58.900465 52.995072 59.513855 52.875 60.191406 C 52.754928 60.868957 52.590604 61.666289 52.384766 62.583984 C 52.204657 62.609714 52.007384 62.644617 51.792969 62.6875 C 51.578554 62.730383 51.329903 62.781761 51.046875 62.841797 C 50.772424 62.893256 50.45592 62.957967 50.095703 63.035156 L 48.833984 63.304688 C 48.653876 63.364724 48.526408 63.459242 48.449219 63.587891 C 48.372029 63.71654 48.332031 63.854198 48.332031 64 C 48.332031 64.205838 48.401837 64.376446 48.539062 64.513672 C 48.676288 64.650897 48.843754 64.763843 49.041016 64.849609 C 49.238277 64.926799 49.443788 64.981319 49.658203 65.015625 C 49.872618 65.049931 50.051463 65.068359 50.197266 65.068359 L 51.78125 65.068359 C 51.644024 65.745911 51.493033 66.422058 51.330078 67.099609 C 51.167123 67.777161 50.99142 68.430549 50.802734 69.056641 C 50.614049 69.674156 50.411681 70.252643 50.197266 70.792969 C 49.982851 71.324718 49.75577 71.792212 49.515625 72.195312 C 49.284057 72.589836 49.035406 72.903198 48.769531 73.134766 C 48.503657 73.357757 48.230293 73.46875 47.947266 73.46875 C 47.587049 73.46875 47.230547 73.420514 46.878906 73.326172 C 46.527266 73.231829 46.184097 73.129074 45.849609 73.017578 C 45.515122 72.897506 45.190381 72.791608 44.873047 72.697266 C 44.564289 72.602923 44.267403 72.554688 43.984375 72.554688 C 43.735654 72.554688 43.521905 72.627635 43.341797 72.773438 C 43.170265 72.91924 43.024369 73.091801 42.904297 73.289062 C 42.792801 73.486324 42.706521 73.691835 42.646484 73.90625 C 42.595025 74.112088 42.568359 74.279554 42.568359 74.408203 C 42.568359 74.656924 42.641307 74.875768 42.787109 75.064453 C 42.932912 75.261715 43.121948 75.432323 43.353516 75.578125 C 43.585084 75.723927 43.847068 75.845111 44.138672 75.939453 C 44.438853 76.042372 44.738882 76.123558 45.039062 76.183594 C 45.339243 76.24363 45.62594 76.28677 45.900391 76.3125 C 46.174842 76.33823 46.412113 76.349609 46.609375 76.349609 C 47.552801 76.349609 48.388177 76.213904 49.117188 75.939453 C 49.846198 75.673579 50.489396 75.295507 51.046875 74.806641 C 51.604354 74.317775 52.085181 73.73105 52.488281 73.044922 C 52.891381 72.358794 53.237693 71.599508 53.529297 70.767578 C 53.829478 69.927072 54.078129 69.025032 54.275391 68.064453 C 54.472652 67.103874 54.650309 66.106128 54.804688 65.068359 C 55.027679 65.068359 55.357515 65.063264 55.794922 65.054688 C 56.240905 65.037534 56.72997 65.021059 57.261719 65.003906 C 57.802044 64.986753 58.358962 64.968325 58.933594 64.951172 C 59.508226 64.925442 60.035336 64.903872 60.515625 64.886719 C 60.8555 64.87458 61.113997 64.869172 61.380859 64.861328 C 61.207246 65.181763 61.045677 65.510173 60.914062 65.853516 C 60.725377 66.368111 60.541437 66.957979 60.361328 67.626953 C 60.18122 68.287351 60.091797 68.859554 60.091797 69.339844 C 60.091797 70.051701 60.189457 70.732944 60.386719 71.384766 C 60.592557 72.02801 60.897681 72.598261 61.300781 73.095703 C 61.703881 73.584569 62.206279 73.974021 62.806641 74.265625 C 63.415579 74.557229 64.121534 74.703125 64.927734 74.703125 C 65.44233 74.703125 65.949823 74.648605 66.447266 74.537109 C 66.953285 74.417037 67.437254 74.260951 67.900391 74.072266 C 68.372103 73.875004 68.818028 73.653018 69.238281 73.404297 C 69.667111 73.155576 70.066753 72.901829 70.435547 72.644531 C 70.560766 72.555992 70.677614 72.451831 70.800781 72.359375 C 70.812871 72.388705 70.821681 72.424176 70.833984 72.453125 C 71.134165 73.139253 71.480477 73.687933 71.875 74.099609 C 72.2781 74.502709 72.712645 74.703125 73.175781 74.703125 C 73.467386 74.703125 73.778794 74.66508 74.113281 74.587891 C 74.447769 74.502125 74.790938 74.391132 75.142578 74.253906 C 75.494219 74.116681 75.842483 73.962548 76.185547 73.791016 C 76.537187 73.610907 76.875261 73.430109 77.201172 73.25 C 77.451376 73.106205 77.704898 72.946359 77.957031 72.789062 C 78.216759 73.309939 78.499324 73.762627 78.822266 74.099609 C 79.225366 74.502709 79.657958 74.703125 80.121094 74.703125 C 80.412698 74.703125 80.72606 74.66508 81.060547 74.587891 C 81.395034 74.502125 81.738203 74.391132 82.089844 74.253906 C 82.441484 74.116681 82.789749 73.962548 83.132812 73.791016 C 83.484453 73.610907 83.822527 73.430109 84.148438 73.25 C 84.894601 72.82117 85.648792 72.332105 86.412109 71.783203 L 85.357422 69.082031 C 84.765637 69.553744 84.200482 69.969861 83.660156 70.330078 C 83.428588 70.484457 83.188174 70.63859 82.939453 70.792969 C 82.690732 70.938771 82.445223 71.071334 82.205078 71.191406 C 81.97351 71.302902 81.751524 71.392325 81.537109 71.460938 C 81.331271 71.52955 81.14733 71.564453 80.984375 71.564453 C 80.915762 71.564453 80.842814 71.518171 80.765625 71.423828 C 80.688436 71.320909 80.615488 71.186393 80.546875 71.023438 C 80.478262 70.851906 80.418647 70.664823 80.367188 70.458984 C 80.324305 70.244569 80.302734 70.025726 80.302734 69.802734 L 80.302734 69.621094 C 80.328464 69.449562 80.361414 69.273859 80.404297 69.09375 C 80.44718 68.913641 80.49032 68.746176 80.533203 68.591797 C 80.576086 68.428842 80.619226 68.279804 80.662109 68.142578 C 80.713569 68.005353 80.761805 67.89436 80.804688 67.808594 C 81.199211 67.0367 81.61847 66.247606 82.064453 65.441406 C 82.519013 64.62663 82.970033 63.802633 83.416016 62.970703 C 83.861999 62.130197 84.289495 61.28463 84.701172 60.435547 C 85.112849 59.586464 85.474446 58.74285 85.783203 57.902344 C 86.100537 57.053261 86.349188 56.212789 86.529297 55.380859 C 86.717982 54.540353 86.8125 53.716356 86.8125 52.910156 C 86.8125 52.549939 86.780739 52.198533 86.720703 51.855469 C 86.669244 51.503828 86.576679 51.190467 86.439453 50.916016 C 86.302228 50.641565 86.113192 50.422721 85.873047 50.259766 C 85.632902 50.088234 85.327778 50.003906 84.958984 50.003906 C 84.418659 50.003906 83.886454 50.166277 83.363281 50.492188 C 82.840109 50.818098 82.339664 51.267165 81.859375 51.841797 C 81.379086 52.407852 80.919828 53.077716 80.482422 53.849609 C 80.113352 54.493672 79.769687 55.190374 79.443359 55.919922 C 79.488418 55.740293 79.543314 55.559696 79.582031 55.380859 C 79.770716 54.540353 79.865234 53.716356 79.865234 52.910156 C 79.865234 52.549939 79.835427 52.198533 79.775391 51.855469 C 79.723931 51.503828 79.629413 51.190467 79.492188 50.916016 C 79.354962 50.641565 79.165926 50.422721 78.925781 50.259766 C 78.685637 50.088234 78.380512 50.003906 78.011719 50.003906 z M 77.046875 53.296875 C 77.115488 53.296875 77.153533 53.386298 77.162109 53.566406 C 77.179263 53.737938 77.189453 53.948544 77.189453 54.197266 C 77.112264 54.977736 76.931465 55.821349 76.648438 56.730469 C 76.36541 57.631011 76.030478 58.536193 75.644531 59.445312 C 75.258584 60.354432 74.847563 61.238043 74.410156 62.095703 C 73.981326 62.953363 73.573447 63.725982 73.1875 64.412109 C 73.1875 63.588756 73.247115 62.743189 73.367188 61.876953 C 73.48726 61.00214 73.651584 60.153431 73.857422 59.330078 C 74.06326 58.506725 74.293483 57.730964 74.550781 57.001953 C 74.816656 56.272942 75.091972 55.632887 75.375 55.083984 C 75.666604 54.535082 75.9533 54.10249 76.236328 53.785156 C 76.527932 53.459246 76.798154 53.296875 77.046875 53.296875 z M 83.994141 53.296875 C 84.062753 53.296875 84.100798 53.386298 84.109375 53.566406 C 84.126528 53.737938 84.136719 53.948544 84.136719 54.197266 C 84.059529 54.977736 83.878731 55.821349 83.595703 56.730469 C 83.312675 57.631011 82.977744 58.536193 82.591797 59.445312 C 82.20585 60.354432 81.794828 61.238043 81.357422 62.095703 C 80.928592 62.953363 80.520712 63.725982 80.134766 64.412109 C 80.134766 63.588756 80.194381 62.743189 80.314453 61.876953 C 80.434525 61.00214 80.598849 60.153431 80.804688 59.330078 C 81.010526 58.506725 81.240749 57.730964 81.498047 57.001953 C 81.763921 56.272942 82.039238 55.632887 82.322266 55.083984 C 82.61387 54.535082 82.900566 54.10249 83.183594 53.785156 C 83.475198 53.459246 83.745419 53.296875 83.994141 53.296875 z M 78.068359 59.75 C 77.857788 60.487277 77.662958 61.222874 77.498047 61.955078 C 77.283632 62.90708 77.119308 63.831879 77.007812 64.732422 C 76.896317 65.624388 76.841797 66.45348 76.841797 67.216797 C 76.841797 68.206121 76.922846 69.152126 77.083984 70.056641 C 76.963298 70.140794 76.831114 70.251263 76.712891 70.330078 C 76.481323 70.484457 76.240909 70.63859 75.992188 70.792969 C 75.743466 70.938771 75.49991 71.071334 75.259766 71.191406 C 75.028198 71.302902 74.804259 71.392325 74.589844 71.460938 C 74.384005 71.52955 74.200065 71.564453 74.037109 71.564453 C 73.968497 71.564453 73.895549 71.518171 73.818359 71.423828 C 73.74117 71.320909 73.668222 71.186393 73.599609 71.023438 C 73.530997 70.851906 73.471381 70.664823 73.419922 70.458984 C 73.377039 70.244569 73.355469 70.025726 73.355469 69.802734 L 73.355469 69.621094 C 73.381199 69.449562 73.414148 69.273859 73.457031 69.09375 C 73.499914 68.913641 73.543055 68.746176 73.585938 68.591797 C 73.62882 68.428842 73.671961 68.279804 73.714844 68.142578 C 73.766303 68.005353 73.814539 67.89436 73.857422 67.808594 C 74.251945 67.0367 74.671204 66.247606 75.117188 65.441406 C 75.571747 64.62663 76.022767 63.802633 76.46875 62.970703 C 76.914733 62.130197 77.34223 61.28463 77.753906 60.435547 C 77.865133 60.206141 77.964645 59.978779 78.068359 59.75 z M 65.880859 64.4375 C 66.086698 64.4375 66.257306 64.561826 66.394531 64.810547 C 66.540333 65.059268 66.613281 65.375772 66.613281 65.761719 C 66.613281 66.03617 66.464243 66.384434 66.164062 66.804688 C 65.863882 67.224941 65.553662 67.559872 65.236328 67.808594 C 64.927571 68.057315 64.589497 68.262826 64.220703 68.425781 C 63.860486 68.58016 63.525554 68.65625 63.216797 68.65625 C 63.216797 68.467565 63.226987 68.240484 63.244141 67.974609 C 63.261294 67.708735 63.337384 67.370661 63.474609 66.958984 C 63.620412 66.547308 63.744737 66.204139 63.847656 65.929688 C 63.959152 65.64666 64.099952 65.398009 64.271484 65.183594 C 64.451593 64.960602 64.670436 64.779804 64.927734 64.642578 C 65.193609 64.505353 65.512066 64.4375 65.880859 64.4375 z M 31.728516 74.896484 C 31.666921 74.880723 31.617576 74.885082 31.546875 74.904297 C 31.215091 74.994394 31.070025 75.150913 30.556641 75.978516 C 30.294998 76.400299 29.995365 76.855787 29.888672 76.990234 C 29.538198 77.431896 28.672236 78.356318 27.771484 79.253906 C 25.773508 81.244863 25.267638 81.811333 24.199219 83.25 C 23.846517 83.72493 23.498591 84.158774 23.425781 84.214844 C 23.27018 84.334671 23.155493 84.290986 23.029297 84.0625 C 22.983246 83.979128 22.871707 83.850431 22.779297 83.775391 C 22.573178 83.608031 22.492961 83.332373 22.550781 82.982422 C 22.605559 82.650874 22.547969 82.22305 22.337891 81.396484 C 22.160886 80.70004 22.038793 80.423432 21.181641 78.777344 C 21.081355 78.584754 20.923255 78.179383 20.828125 77.875 C 20.733005 77.570614 20.637687 77.335206 20.617188 77.353516 C 20.596698 77.371816 20.571187 77.63712 20.560547 77.943359 C 20.536689 78.630601 20.426682 79.212161 20.277344 79.433594 C 20.176765 79.582714 20.138376 79.599744 19.851562 79.621094 C 19.446679 79.651247 19.299214 79.59765 18.976562 79.310547 C 18.831541 79.18152 18.555786 78.973967 18.363281 78.847656 C 18.023811 78.624855 18.008823 78.606881 17.873047 78.291016 C 17.770415 78.052239 17.684911 77.928444 17.552734 77.828125 C 17.157691 77.528205 16.637432 77.043569 16.494141 76.841797 C 16.410871 76.724548 16.254528 76.438352 16.146484 76.207031 C 16.038448 75.975716 15.930453 75.802396 15.908203 75.822266 C 15.885963 75.84212 15.854231 75.994784 15.837891 76.160156 C 15.787526 76.67032 15.493158 77.049756 14.974609 77.271484 C 14.818241 77.338348 14.579597 77.443763 14.443359 77.507812 C 14.233477 77.606472 14.155 77.615047 13.929688 77.560547 C 13.556327 77.470237 12.929109 77.4439 12.480469 77.5 L 12.097656 77.548828 L 11.492188 77.265625 C 11.15883 77.110394 10.599724 76.860068 10.25 76.708984 C 9.8494811 76.535951 9.3882965 76.29767 9.0039062 76.066406 C 8.4284154 75.720161 8.3915844 75.704074 8.3496094 75.777344 C 8.3140188 75.839469 8.3719995 75.929997 8.640625 76.224609 C 8.8254096 76.427266 9.192806 76.854449 9.4570312 77.175781 C 9.9796334 77.811359 10.136108 78.11529 10.119141 78.464844 C 10.109831 78.656661 10.386605 79.539063 10.650391 80.15625 C 10.787731 80.477604 10.796997 80.554429 10.742188 80.900391 C 10.719008 81.046368 10.708197 81.259119 10.716797 81.373047 C 10.725417 81.486976 10.702022 81.661476 10.664062 81.761719 C 10.60428 81.919587 10.559868 81.961032 10.341797 82.068359 C 10.203311 82.13651 9.8194103 82.247113 9.4882812 82.314453 C 9.1571593 82.381821 8.746769 82.492787 8.5761719 82.560547 C 8.4055742 82.628302 8.073875 82.721228 7.8398438 82.767578 C 7.6057996 82.813864 7.1427631 82.917397 6.8105469 82.998047 C 6.2602759 83.131618 6.1298568 83.142306 5.3300781 83.103516 C 4.847226 83.080056 4.3094048 83.069541 4.1367188 83.082031 C 3.8219691 83.104811 3.275548 83.250396 3.234375 83.322266 C 3.222299 83.343346 3.3816654 83.369306 3.5898438 83.378906 C 3.9009854 83.393291 4.0244685 83.423401 4.2792969 83.552734 C 4.4497915 83.639282 4.6407403 83.770112 4.7050781 83.841797 C 4.8670231 84.022102 4.9624011 84.472512 4.890625 84.724609 C 4.8586563 84.836893 4.8096385 85.100032 4.7832031 85.310547 C 4.6772025 86.154545 4.6888119 86.125252 4.1796875 87.017578 L 3.7089844 87.841797 L 3.1289062 88.220703 C 2.5076016 88.627211 1.5189596 89.143905 1.1894531 89.234375 C 1.0784753 89.264812 0.85582297 89.318496 0.6953125 89.353516 C 0.39613915 89.418876 0.22632698 89.505907 0.064453125 89.677734 C -0.060901655 89.810794 0.001376871 89.830643 0.2109375 89.722656 C 0.45033218 89.599308 0.5723542 89.599995 1.2128906 89.728516 C 1.5193062 89.789998 1.9291951 89.863312 2.1230469 89.892578 C 2.8236057 89.998341 3.4199166 90.12046 3.6171875 90.197266 C 3.72789 90.240371 4.3042778 90.543646 4.8964844 90.871094 C 5.7114983 91.321713 6.0273268 91.477105 6.1972656 91.511719 C 6.3207547 91.536861 6.6192682 91.618895 6.8613281 91.695312 C 7.1033946 91.771717 7.4486796 91.881043 7.6269531 91.9375 C 7.8052267 91.993957 8.2358574 92.184648 8.5859375 92.361328 C 8.9360264 92.538035 9.2698889 92.691956 9.3261719 92.703125 C 9.4070572 92.719146 9.4437483 92.78862 9.5039062 93.03125 C 9.7098621 93.862669 9.6823834 95.268012 9.4472656 95.970703 C 9.4008008 96.109569 9.3080434 96.493035 9.2402344 96.824219 C 9.1454947 97.286949 9.0913843 97.458948 9.0039062 97.564453 C 8.5489884 98.113176 8.2637055 98.495299 7.9082031 99.035156 C 7.6831996 99.376854 7.3948816 99.773075 7.2675781 99.916016 C 7.1402721 100.05898 7.0100606 100.22029 6.9785156 100.27539 C 6.925991 100.36739 6.9489988 100.36806 7.234375 100.28516 C 7.688986 100.15312 7.7377184 100.17821 8.1855469 100.77344 C 8.7724772 101.55344 8.8205313 101.64234 8.9570312 102.17969 C 9.0671563 102.6132 9.0755773 102.73961 9.0195312 103.10156 C 8.9246147 103.71453 8.7335297 104.23292 8.4667969 104.59375 L 8.25 104.88477 L 8.0214844 104.75977 C 7.6933075 104.58044 7.6642699 104.57052 7.6855469 104.63672 C 7.7065522 104.70213 8.006022 105.04649 8.078125 105.08789 C 8.1038556 105.10249 8.3185417 105.07981 8.5546875 105.03711 C 8.8911045 104.97608 9.0618628 104.90969 9.3417969 104.73438 C 10.043725 104.29478 10.256166 104.18788 10.75 104.01562 C 11.025296 103.91957 11.267926 103.83121 11.291016 103.82031 C 11.314072 103.80921 11.462374 103.7904 11.619141 103.7793 C 11.775906 103.7682 12.016811 103.73558 12.154297 103.70508 C 12.798104 103.56444 13.231605 103.66407 14.064453 104.14258 C 14.716246 104.51706 14.764553 104.58857 15.132812 105.70508 C 15.214123 105.95162 15.294397 106.14853 15.310547 106.14453 C 15.326647 106.14015 15.366761 105.9601 15.400391 105.74414 C 15.434022 105.52817 15.511256 105.19462 15.572266 105.00391 C 15.686252 104.6476 16.401652 103.11839 16.6875 102.61914 C 16.810737 102.40389 16.847986 102.28938 16.847656 102.125 L 16.847656 101.91016 L 17.119141 101.83008 C 17.499567 101.71941 17.608144 101.63525 18.044922 101.11133 C 18.256373 100.85769 18.480449 100.61687 18.542969 100.57617 C 18.605478 100.53542 18.755674 100.40015 18.876953 100.27539 C 19.149417 99.995105 19.517322 99.813778 20.013672 99.712891 C 20.509924 99.612092 20.52621 99.6133 20.59375 99.746094 C 20.625325 99.808176 20.780927 99.951179 20.939453 100.06445 C 21.328038 100.34205 21.417935 100.474 21.925781 101.50586 C 22.387827 102.44465 22.598579 102.79879 22.833984 103.0332 C 22.913156 103.11204 23.023928 103.29806 23.080078 103.44727 C 23.264823 103.93815 23.419222 104.14085 23.837891 104.4375 C 24.379698 104.82135 24.495763 104.93937 24.904297 105.54492 C 25.369676 106.23471 25.557554 106.67861 25.929688 107.94922 C 26.240554 109.01063 26.359069 109.24932 26.355469 108.81445 C 26.354399 108.68596 26.383402 108.40142 26.419922 108.18164 C 26.456443 107.96185 26.503441 107.53382 26.525391 107.23047 C 26.547352 106.92712 26.60644 106.54204 26.65625 106.375 C 26.706064 106.20797 26.764569 105.95395 26.787109 105.80859 C 26.858536 105.34815 27.204543 104.85517 27.595703 104.6582 C 27.798553 104.55608 27.81709 104.53261 28.126953 103.99414 C 28.381241 103.55224 28.479424 103.41756 28.591797 103.34766 C 28.775101 103.23378 29.963564 102.84608 30.166016 102.83398 C 30.377834 102.82134 31.36328 103.2976 31.726562 103.58789 C 31.867413 103.70042 32.005283 103.80627 32.033203 103.82227 C 32.151952 103.89031 31.988631 103.49201 31.746094 103.125 C 31.37219 102.55922 31.203891 101.92656 31.144531 100.85938 C 31.133584 100.66261 31.066594 100.35468 30.996094 100.17383 C 30.846958 99.79116 30.84783 99.623662 31.001953 99.269531 C 31.072169 99.108193 31.159985 98.700443 31.234375 98.181641 L 31.353516 97.351562 L 31.505859 97.265625 C 31.590458 97.218229 31.766989 97.044306 31.898438 96.878906 C 32.149228 96.56335 32.579995 96.161758 32.878906 95.962891 C 32.976108 95.898233 33.371507 95.756172 33.757812 95.646484 C 34.144124 95.536828 34.553209 95.396014 34.667969 95.333984 C 34.782723 95.271935 35.062052 95.170302 35.289062 95.107422 C 35.643357 95.009332 35.74445 95.003029 36.003906 95.068359 C 36.200999 95.117989 36.509774 95.131232 36.890625 95.107422 C 37.211874 95.087342 37.569491 95.076531 37.683594 95.082031 C 37.835491 95.089358 37.937239 95.056171 38.064453 94.957031 C 38.277739 94.790828 38.614138 94.298066 38.613281 94.154297 C 38.612741 94.064138 38.602956 94.067655 38.535156 94.183594 C 38.441064 94.344313 38.09772 94.632024 37.939453 94.683594 C 37.805709 94.727184 37.56041 94.60014 37.142578 94.271484 C 36.997391 94.157272 36.549966 93.858235 36.148438 93.605469 C 35.458342 93.171094 35.413733 93.134989 35.320312 92.949219 C 35.125417 92.561651 34.958706 92.35376 34.683594 92.152344 C 34.464316 91.991816 34.376247 91.891164 34.267578 91.679688 C 34.191898 91.532409 34.042644 91.331292 33.935547 91.232422 C 33.767799 91.077496 33.725683 90.992978 33.626953 90.619141 C 33.501575 90.144417 33.404954 89.290077 33.464844 89.185547 C 33.528687 89.0741 33.674146 89.007034 33.753906 89.052734 C 33.795643 89.076654 33.868716 89.082093 33.916016 89.064453 C 34.092513 88.998463 33.872682 88.863794 33.1875 88.619141 C 32.80562 88.48278 32.569606 88.306735 32.376953 88.013672 C 32.174951 87.70634 31.989187 87.594098 31.707031 87.611328 C 31.430673 87.628201 30.651596 87.494784 30.490234 87.402344 C 30.3635 87.329741 29.700431 86.555684 29.650391 86.421875 C 29.606378 86.30417 29.679516 86.220174 29.912109 86.121094 C 30.192947 86.001464 30.541822 85.964843 30.763672 86.033203 C 30.943629 86.088654 30.94368 86.078556 30.773438 85.892578 C 30.730677 85.845868 30.735349 85.826237 30.792969 85.810547 C 31.067698 85.735944 30.865307 85.65018 29.453125 85.246094 C 28.002583 84.831033 27.690774 84.779408 27.212891 84.867188 C 26.851508 84.933563 26.579791 84.887011 26.265625 84.707031 C 26.084029 84.603 25.850973 84.647645 25.404297 84.871094 C 25.117511 85.014561 25.018516 85.040456 24.875 85.003906 C 24.777991 84.979216 24.668299 84.941202 24.630859 84.919922 C 24.593421 84.898662 24.434028 84.890884 24.275391 84.902344 C 23.919612 84.928056 23.870964 84.918316 23.808594 84.822266 C 23.71959 84.685212 23.822932 84.435081 24.197266 83.882812 C 25.151606 82.474831 25.63546 81.901427 27.080078 80.46875 C 28.347396 79.211908 29.596159 77.91932 30.173828 77.263672 C 30.801788 76.550943 31.177215 76.208891 31.494141 76.0625 C 31.631679 75.998967 31.830029 75.907535 31.935547 75.859375 C 32.041063 75.811211 32.174985 75.711952 32.234375 75.638672 C 32.323475 75.52874 32.334195 75.475436 32.296875 75.337891 C 32.257393 75.192523 32.217183 75.151233 31.980469 75.015625 C 31.862868 74.948256 31.79011 74.912245 31.728516 74.896484 z M 101.93555 84.320312 C 101.36091 84.320312 100.81223 84.577201 100.28906 85.091797 C 99.76589 85.597816 99.281921 86.275917 98.835938 87.125 C 98.398531 87.965506 97.998889 88.930303 97.638672 90.019531 C 97.287031 91.100182 96.99524 92.219113 96.763672 93.376953 C 96.677906 93.394106 96.518677 93.402344 96.287109 93.402344 C 96.064118 93.393767 95.807229 93.38553 95.515625 93.376953 C 95.232597 93.368377 94.932568 93.368377 94.615234 93.376953 C 94.306477 93.376953 94.022923 93.398523 93.765625 93.441406 C 93.49975 93.484289 93.286002 93.552142 93.123047 93.646484 C 92.951515 93.73225 92.865234 93.861671 92.865234 94.033203 C 92.865234 94.110392 92.87033 94.20491 92.878906 94.316406 C 92.887483 94.419325 92.91729 94.522081 92.96875 94.625 C 93.02021 94.719343 93.101395 94.805623 93.212891 94.882812 C 93.324386 94.951425 93.483615 94.997708 93.689453 95.023438 C 94.152589 95.074897 94.503996 95.118037 94.744141 95.152344 C 94.992862 95.18665 95.195231 95.221553 95.349609 95.255859 C 95.512565 95.281589 95.661603 95.311397 95.798828 95.345703 C 95.94463 95.371433 96.146999 95.40124 96.404297 95.435547 C 96.327108 96.010179 96.267492 96.588666 96.224609 97.171875 C 96.181726 97.755084 96.160156 98.303764 96.160156 98.818359 C 96.160156 100.00721 96.235164 101.07343 96.367188 102.04688 C 96.165086 102.17702 95.961867 102.29873 95.759766 102.4082 C 95.356666 102.62262 94.962119 102.81989 94.576172 103 C 94.190225 103.18011 93.817248 103.35581 93.457031 103.52734 C 93.105391 103.6903 92.775554 103.87424 92.466797 104.08008 C 92.466797 103.53118 92.488367 102.98759 92.53125 102.44727 C 92.58271 101.90694 92.574472 101.48259 92.505859 101.17383 C 92.445823 100.86507 92.381113 100.59485 92.3125 100.36328 C 92.243887 100.12314 92.176035 99.899198 92.107422 99.693359 C 92.047386 99.478944 91.996008 99.265196 91.953125 99.050781 C 91.918819 98.82779 91.900391 98.582281 91.900391 98.316406 C 91.92612 98.222064 92.025734 98.081263 92.197266 97.892578 C 92.377374 97.695316 92.56641 97.481568 92.763672 97.25 C 92.960934 97.018432 93.139779 96.778018 93.302734 96.529297 C 93.46569 96.280576 93.546875 96.053495 93.546875 95.847656 C 93.546875 95.744737 93.538638 95.623554 93.521484 95.486328 C 93.504331 95.340526 93.444716 95.204821 93.341797 95.076172 C 93.238878 94.947523 93.076507 94.839672 92.853516 94.753906 C 92.630524 94.659564 92.312067 94.611328 91.900391 94.611328 C 91.651669 94.611328 91.424588 94.651326 91.21875 94.728516 C 91.021488 94.797128 90.837548 94.891646 90.666016 95.011719 C 90.50306 95.123215 90.352069 95.250682 90.214844 95.396484 C 90.077618 95.542287 89.953293 95.693278 89.841797 95.847656 C 89.292895 96.533784 88.84697 97.107176 88.503906 97.570312 C 88.160842 98.024872 87.871004 98.411182 87.630859 98.728516 C 87.390715 99.04585 87.180109 99.321166 87 99.552734 C 86.828468 99.784302 86.59315 100.08433 86.292969 100.45312 C 85.992788 100.81334 85.690806 101.12985 85.390625 101.4043 C 85.301042 101.4862 85.146639 101.61681 85.041016 101.71094 L 84.966797 101.36719 C 84.613901 101.84713 84.265057 102.2752 83.917969 102.67383 C 83.915543 102.67565 83.914557 102.6759 83.912109 102.67773 C 83.774884 102.78065 83.637226 102.90184 83.5 103.03906 C 83.392949 103.14611 83.304923 103.27701 83.21875 103.41016 C 83.182446 103.44448 83.152376 103.48158 83.115234 103.51562 C 82.917973 103.69573 82.715604 103.8581 82.509766 104.00391 C 82.312504 104.14971 82.11523 104.26894 81.917969 104.36328 C 81.720707 104.44905 81.531671 104.49219 81.351562 104.49219 C 81.111418 104.49219 80.952189 104.38119 80.875 104.1582 C 80.806387 103.92664 80.773438 103.60818 80.773438 103.20508 C 80.773438 102.73337 80.846385 102.16312 80.992188 101.49414 C 81.13799 100.82517 81.262315 100.2302 81.365234 99.707031 C 81.468154 99.175282 81.562672 98.659552 81.648438 98.162109 C 81.734203 97.65609 81.777344 97.198786 81.777344 96.787109 C 81.777344 96.521235 81.750678 96.310629 81.699219 96.15625 C 81.656336 96.001871 81.591625 95.880688 81.505859 95.794922 C 81.420093 95.709156 81.322433 95.654636 81.210938 95.628906 C 81.099442 95.603176 80.978258 95.589844 80.849609 95.589844 C 80.755267 95.589844 80.657607 95.594939 80.554688 95.603516 L 80.271484 95.603516 C 80.159989 95.603516 80.048996 95.59842 79.9375 95.589844 C 79.834581 95.572691 79.731825 95.542883 79.628906 95.5 C 79.525987 95.457117 79.439707 95.389264 79.371094 95.294922 C 79.302481 95.200579 79.229533 95.106061 79.152344 95.011719 C 79.083731 94.9088 78.992355 94.817424 78.880859 94.740234 C 78.769364 94.663045 78.61523 94.625 78.417969 94.625 C 77.826184 94.625 77.244554 94.754421 76.669922 95.011719 C 76.103866 95.26044 75.563424 95.598514 75.048828 96.027344 C 74.92401 96.131359 74.807777 96.252641 74.6875 96.365234 C 74.689225 96.326919 74.701172 96.300053 74.701172 96.259766 C 74.701172 96.131117 74.696077 95.996601 74.6875 95.859375 C 74.678923 95.713573 74.649116 95.58101 74.597656 95.460938 C 74.546197 95.332289 74.465011 95.229533 74.353516 95.152344 C 74.24202 95.066578 74.082791 95.023438 73.876953 95.023438 L 66.738281 95.023438 C 66.8412 93.994246 66.933765 93.107492 67.019531 92.361328 C 67.105297 91.615164 67.18334 90.980204 67.251953 90.457031 C 67.320566 89.925282 67.377039 89.49269 67.419922 89.158203 C 67.471381 88.823716 67.514522 88.548399 67.548828 88.333984 C 67.583135 88.119569 67.607847 87.952104 67.625 87.832031 C 67.642153 87.711959 67.650391 87.606061 67.650391 87.511719 C 68.019184 87.460259 68.375686 87.417119 68.71875 87.382812 C 69.018931 87.348506 69.327197 87.318699 69.644531 87.292969 C 69.970442 87.267239 70.248901 87.253906 70.480469 87.253906 C 71.260939 87.253906 72.028463 87.267239 72.783203 87.292969 C 73.54652 87.310122 74.284236 87.343072 74.996094 87.394531 C 75.707951 87.437414 76.391147 87.497029 77.042969 87.574219 C 77.69479 87.642832 78.29799 87.72597 78.855469 87.820312 C 78.898352 87.828889 78.93835 87.837127 78.972656 87.845703 L 79.087891 87.845703 C 79.302306 87.845703 79.486246 87.797468 79.640625 87.703125 C 79.80358 87.600206 79.933001 87.472738 80.027344 87.318359 C 80.121686 87.163981 80.189539 86.996515 80.232422 86.816406 C 80.283881 86.636298 80.310547 86.463737 80.310547 86.300781 C 80.310547 86.05206 80.224266 85.816742 80.052734 85.59375 C 79.889779 85.370758 79.58975 85.20015 79.152344 85.080078 C 77.634286 84.865663 76.158854 84.714672 74.726562 84.628906 C 73.302847 84.54314 71.938408 84.5 70.634766 84.5 C 68.670725 84.5 66.873694 84.637658 65.244141 84.912109 C 63.623164 85.18656 62.23087 85.61601 61.064453 86.199219 C 59.906613 86.782427 59.006526 87.531523 58.363281 88.449219 C 57.720036 89.358338 57.396484 90.452556 57.396484 91.730469 C 57.396484 91.859118 57.409817 91.988539 57.435547 92.117188 C 57.469853 92.23726 57.551039 92.348253 57.679688 92.451172 C 57.816913 92.545514 58.024377 92.621604 58.298828 92.681641 C 58.581856 92.7331 58.971307 92.759766 59.46875 92.759766 C 59.837544 92.759766 60.116002 92.713483 60.304688 92.619141 C 60.501949 92.524798 60.64275 92.416947 60.728516 92.296875 C 60.814282 92.176803 60.862517 92.06581 60.871094 91.962891 C 60.87967 91.859971 60.884766 91.798403 60.884766 91.78125 C 60.884766 91.42961 60.969093 91.069966 61.140625 90.701172 C 61.312157 90.332378 61.579236 89.975876 61.939453 89.632812 C 62.29967 89.289749 62.753832 88.96815 63.302734 88.667969 C 63.851637 88.367788 64.497977 88.110899 65.244141 87.896484 C 65.141221 88.445387 65.051799 88.964259 64.974609 89.453125 C 64.89742 89.941991 64.816235 90.465959 64.730469 91.023438 C 64.644703 91.57234 64.541947 92.18573 64.421875 92.863281 C 64.301803 93.540832 64.139432 94.338164 63.933594 95.255859 C 63.753485 95.281589 63.556212 95.316492 63.341797 95.359375 C 63.127382 95.402258 62.878731 95.453636 62.595703 95.513672 C 62.321252 95.565131 62.002795 95.627889 61.642578 95.705078 L 60.382812 95.976562 C 60.202704 96.036599 60.073283 96.131117 59.996094 96.259766 C 59.918904 96.388415 59.880859 96.52412 59.880859 96.669922 C 59.880859 96.87576 59.948712 97.048321 60.085938 97.185547 C 60.223163 97.322772 60.390629 97.433765 60.587891 97.519531 C 60.785152 97.596721 60.990663 97.653194 61.205078 97.6875 C 61.419493 97.721806 61.600292 97.738281 61.746094 97.738281 L 63.328125 97.738281 C 63.190899 98.415832 63.039908 99.093933 62.876953 99.771484 C 62.713998 100.44904 62.538295 101.10047 62.349609 101.72656 C 62.160924 102.34408 61.960509 102.92257 61.746094 103.46289 C 61.531679 103.99464 61.304598 104.46213 61.064453 104.86523 C 60.832885 105.25976 60.584234 105.57312 60.318359 105.80469 C 60.052485 106.02768 59.777168 106.13867 59.494141 106.13867 C 59.133924 106.13867 58.777422 106.09239 58.425781 105.99805 C 58.074141 105.9037 57.730972 105.80095 57.396484 105.68945 C 57.061997 105.56938 56.737256 105.46153 56.419922 105.36719 C 56.111164 105.27284 55.814278 105.22656 55.53125 105.22656 C 55.282529 105.22656 55.06878 105.29951 54.888672 105.44531 C 54.71714 105.59111 54.571244 105.76172 54.451172 105.95898 C 54.339676 106.15625 54.253396 106.36176 54.193359 106.57617 C 54.1419 106.78201 54.117188 106.94948 54.117188 107.07812 C 54.117188 107.32685 54.190135 107.54569 54.335938 107.73438 C 54.48174 107.93164 54.670776 108.1042 54.902344 108.25 C 55.133912 108.3958 55.393943 108.51503 55.685547 108.60938 C 55.985728 108.71229 56.28771 108.79348 56.587891 108.85352 C 56.888072 108.91355 57.174768 108.95669 57.449219 108.98242 C 57.72367 109.00815 57.958988 109.02148 58.15625 109.02148 C 59.099676 109.02148 59.937005 108.88383 60.666016 108.60938 C 61.395026 108.3435 62.038224 107.96543 62.595703 107.47656 C 63.153182 106.9877 63.632056 106.40097 64.035156 105.71484 C 64.438256 105.02872 64.786521 104.26943 65.078125 103.4375 C 65.378306 102.59699 65.626957 101.69691 65.824219 100.73633 C 66.02148 99.775749 66.197184 98.776049 66.351562 97.738281 C 66.574554 97.738281 66.90439 97.733186 67.341797 97.724609 C 67.78778 97.707456 68.276845 97.690981 68.808594 97.673828 C 69.348919 97.656675 69.905837 97.6402 70.480469 97.623047 C 71.055101 97.597317 71.582211 97.575747 72.0625 97.558594 C 72.542789 97.541441 72.950669 97.528108 73.285156 97.519531 C 73.488282 97.509115 73.542618 97.507997 73.644531 97.503906 C 73.636508 97.514364 73.627138 97.522696 73.619141 97.533203 C 73.190311 98.107835 72.787527 98.789078 72.410156 99.578125 C 72.032786 100.36717 71.754327 101.09979 71.574219 101.77734 C 71.39411 102.45489 71.304688 103.11652 71.304688 103.75977 C 71.304688 104.32582 71.39411 104.83646 71.574219 105.29102 C 71.754327 105.737 71.994741 106.11821 72.294922 106.43555 C 72.595103 106.7443 72.938272 106.98472 73.324219 107.15625 C 73.718742 107.31921 74.121526 107.40039 74.533203 107.40039 C 74.91915 107.40039 75.305459 107.33568 75.691406 107.20703 C 76.077353 107.07838 76.445235 106.91601 76.796875 106.71875 C 77.157092 106.51291 77.488882 106.28583 77.789062 106.03711 C 78.089243 105.78839 78.341037 105.54288 78.546875 105.30273 C 78.821326 105.99744 79.14802 106.52964 79.525391 106.89844 C 79.902761 107.25865 80.373398 107.43945 80.939453 107.43945 C 81.411166 107.43945 81.883756 107.32336 82.355469 107.0918 C 82.827182 106.86023 83.268011 106.57667 83.679688 106.24219 C 84.065258 105.92891 84.410366 105.59923 84.720703 105.25586 C 84.783559 105.57554 84.877625 105.87004 85.03125 106.11328 C 85.237088 106.43919 85.502214 106.70432 85.828125 106.91016 C 86.162612 107.10742 86.548922 107.25331 86.986328 107.34766 C 87.423735 107.442 87.896325 107.49023 88.402344 107.49023 C 89.105625 107.49023 89.846483 107.41219 90.626953 107.25781 C 91.416 107.09486 92.191761 106.87601 92.955078 106.60156 C 93.726972 106.32711 94.461546 106.01061 95.15625 105.65039 C 95.841176 105.29957 96.44066 104.92306 96.962891 104.52344 C 97.030426 104.70874 97.086176 104.9146 97.162109 105.08398 C 97.496597 105.82157 97.912714 106.38868 98.410156 106.7832 C 98.907599 107.17773 99.482944 107.375 100.13477 107.375 C 100.4521 107.375 100.80351 107.31343 101.18945 107.19336 C 101.58398 107.07329 102.0299 106.89444 102.52734 106.6543 C 103.03336 106.41415 103.60871 106.11412 104.25195 105.75391 C 104.66282 105.52382 105.17191 105.22634 105.65625 104.94727 C 105.81047 105.23872 105.98788 105.51206 106.19336 105.76562 C 106.59646 106.25449 107.09886 106.6459 107.69922 106.9375 C 108.30816 107.2291 109.01607 107.375 109.82227 107.375 C 110.33686 107.375 110.8424 107.31853 111.33984 107.20703 C 111.84586 107.08696 112.32983 106.93283 112.79297 106.74414 C 113.26468 106.54688 113.71061 106.32294 114.13086 106.07422 C 114.52623 105.8449 114.89004 105.61161 115.23438 105.375 C 115.24175 105.47876 115.23925 105.58737 115.25 105.68945 C 115.29288 106.00679 115.37093 106.29348 115.48242 106.55078 C 115.60249 106.7995 115.76996 107.00187 115.98438 107.15625 C 116.19879 107.30205 116.48234 107.375 116.83398 107.375 C 116.98836 107.375 117.12916 107.34833 117.25781 107.29688 C 117.38646 107.23684 117.50569 107.13918 117.61719 107.00195 C 117.72868 106.86473 117.83653 106.68902 117.93945 106.47461 C 118.05095 106.25162 118.16704 105.97121 118.28711 105.63672 L 120.58984 99.21875 L 120.79492 99.21875 C 120.86353 99.759076 120.95491 100.29442 121.06641 100.82617 C 121.1779 101.34934 121.34851 101.82508 121.58008 102.25391 C 121.81165 102.67416 122.12501 103.01733 122.51953 103.2832 C 122.91405 103.5405 123.43293 103.66992 124.07617 103.66992 C 124.43639 103.66992 124.7878 103.61854 125.13086 103.51562 C 125.4825 103.40413 125.81743 103.26961 126.13477 103.11523 C 126.46068 102.95228 126.7658 102.78167 127.04883 102.60156 C 127.33186 102.42145 127.58365 102.25908 127.80664 102.11328 L 128 99.101562 C 127.61405 99.418897 127.21951 99.702451 126.81641 99.951172 C 126.47334 100.16559 126.09527 100.35776 125.68359 100.5293 C 125.27192 100.70083 124.87423 100.78711 124.48828 100.78711 C 124.35106 100.78711 124.21849 100.7624 124.08984 100.71094 C 123.96977 100.65948 123.85683 100.5732 123.75391 100.45312 C 123.65956 100.32448 123.58347 100.15701 123.52344 99.951172 C 123.4634 99.745334 123.43359 99.488445 123.43359 99.179688 C 123.43359 98.999579 123.45516 98.77564 123.49805 98.509766 C 123.54093 98.235315 123.60878 97.889003 123.70312 97.46875 C 123.79747 97.048497 123.86532 96.70847 123.9082 96.451172 C 123.95109 96.185297 123.97266 95.979787 123.97266 95.833984 C 123.97266 95.645299 123.93971 95.477833 123.87109 95.332031 C 123.80248 95.177653 123.70796 95.050185 123.58789 94.947266 C 123.47639 94.844346 123.34383 94.766303 123.18945 94.714844 C 123.03507 94.654808 122.87585 94.625 122.71289 94.625 C 122.24118 94.625 121.82506 94.754421 121.46484 95.011719 C 121.10463 95.26044 120.78303 95.568706 120.5 95.9375 C 120.21697 96.306294 119.94675 96.768693 119.68945 97.326172 C 119.43216 97.883651 119.21841 98.334671 119.04688 98.677734 L 118.9043 98.677734 C 118.88714 98.240328 118.90048 97.729693 118.94336 97.146484 C 118.98624 96.563276 119.00781 96.112256 119.00781 95.794922 C 119.00781 95.529047 118.99958 95.320394 118.98242 95.166016 C 118.97385 95.011637 118.93894 94.895549 118.87891 94.818359 C 118.81887 94.732593 118.72435 94.681216 118.5957 94.664062 C 118.47563 94.638333 118.30502 94.625 118.08203 94.625 C 117.88477 94.625 117.7173 94.638333 117.58008 94.664062 C 117.45143 94.681216 117.33848 94.724356 117.24414 94.792969 C 117.15837 94.853005 117.08228 94.937332 117.01367 95.048828 C 116.94506 95.160324 116.87525 95.311315 116.80664 95.5 C 116.69514 95.783028 116.58415 96.142672 116.47266 96.580078 C 116.36116 97.017485 116.2286 97.566165 116.07422 98.226562 C 115.91984 98.878384 115.79042 99.49687 115.6875 100.08008 C 115.59316 100.65471 115.50883 101.21986 115.43164 101.77734 C 115.41787 101.88923 115.41117 101.98784 115.39844 102.09766 C 115.21289 102.25393 115.06624 102.39766 114.85156 102.5625 C 114.37127 102.92272 113.86064 103.25765 113.32031 103.56641 C 112.77999 103.87516 112.22307 104.13205 111.64844 104.33789 C 111.08238 104.54373 110.54194 104.64648 110.02734 104.64648 C 109.86439 104.64648 109.71026 104.63001 109.56445 104.5957 C 109.42723 104.5614 109.29466 104.50178 109.16602 104.41602 C 109.03737 104.33025 108.90795 104.20907 108.7793 104.05469 C 108.65922 103.90031 108.5349 103.70813 108.40625 103.47656 C 109.15241 103.27072 109.84385 102.98207 110.47852 102.61328 C 111.12176 102.24449 111.67358 101.82523 112.13672 101.35352 C 112.59985 100.8818 113.00459 100.31665 113.34766 99.65625 C 113.6993 98.995852 113.875 98.398937 113.875 97.867188 C 113.875 97.378321 113.78872 96.937492 113.61719 96.542969 C 113.44566 96.148445 113.20524 95.813514 112.89648 95.539062 C 112.5963 95.256035 112.2398 95.037191 111.82812 94.882812 C 111.41645 94.728434 110.97052 94.650391 110.49023 94.650391 C 109.89845 94.650391 109.35801 94.758241 108.86914 94.972656 C 108.38885 95.178495 107.95312 95.462049 107.55859 95.822266 C 107.17265 96.173906 106.83262 96.584928 106.54102 97.056641 C 106.24941 97.519777 106.00586 98.008842 105.80859 98.523438 C 105.61991 99.038033 105.43401 99.629854 105.25391 100.29883 C 105.0738 100.95923 104.98438 101.52948 104.98438 102.00977 C 104.98438 102.16811 105.00782 102.31924 105.01758 102.47461 C 104.87268 102.58476 104.73718 102.69966 104.58594 102.80664 C 104.24287 103.04679 103.89147 103.27072 103.53125 103.47656 C 103.17961 103.6824 102.83958 103.86125 102.51367 104.01562 C 102.19634 104.16143 101.9014 104.27752 101.62695 104.36328 C 101.36108 104.44905 101.13714 104.49219 100.95703 104.49219 C 100.66543 104.49219 100.4003 104.44905 100.16016 104.36328 C 99.928588 104.26894 99.731315 104.12304 99.568359 103.92578 C 99.405404 103.71994 99.281078 103.45991 99.195312 103.14258 C 99.109547 102.82524 99.066406 102.43384 99.066406 101.9707 L 99.066406 101.37891 C 99.074983 101.16449 99.08322 100.94251 99.091797 100.71094 L 99.119141 100.01562 C 99.127717 99.77548 99.135955 99.543304 99.144531 99.320312 C 99.170261 98.805717 99.200069 98.283702 99.234375 97.751953 C 99.44879 97.486079 99.680966 97.189192 99.929688 96.863281 C 100.18699 96.528794 100.43878 96.19072 100.6875 95.847656 L 105.62891 95.847656 C 105.83474 95.847656 106.02183 95.753138 106.19336 95.564453 C 106.36489 95.375768 106.45117 95.130259 106.45117 94.830078 C 106.45117 94.581357 106.41313 94.375846 106.33594 94.212891 C 106.25875 94.049935 106.13442 93.965608 105.96289 93.957031 C 105.81709 93.948455 105.63315 93.938264 105.41016 93.929688 C 105.18716 93.921111 104.94675 93.912873 104.68945 93.904297 C 104.43216 93.89572 104.16508 93.887483 103.89062 93.878906 C 103.61617 93.861753 103.35929 93.84842 103.11914 93.839844 C 102.88757 93.822691 102.68206 93.814453 102.50195 93.814453 C 102.32184 93.814453 102.19242 93.811311 102.11523 93.802734 C 102.42399 93.313868 102.71578 92.819708 102.99023 92.322266 C 103.27326 91.824823 103.51877 91.335758 103.72461 90.855469 C 103.93045 90.366603 104.09282 89.890871 104.21289 89.427734 C 104.33296 88.956022 104.39258 88.510097 104.39258 88.089844 C 104.39258 87.592401 104.33296 87.116669 104.21289 86.662109 C 104.10139 86.198973 103.93902 85.796189 103.72461 85.453125 C 103.51019 85.110061 103.24821 84.834745 102.93945 84.628906 C 102.63927 84.423068 102.30434 84.320312 101.93555 84.320312 z M 101.65234 87.201172 C 101.8153 87.201172 101.93962 87.236075 102.02539 87.304688 C 102.11973 87.3733 102.18954 87.459581 102.23242 87.5625 C 102.2753 87.665419 102.30002 87.776412 102.30859 87.896484 C 102.32575 88.00798 102.33398 88.110736 102.33398 88.205078 C 102.33398 88.479529 102.26104 88.830936 102.11523 89.259766 C 101.96943 89.688595 101.78549 90.152948 101.5625 90.650391 C 101.33951 91.139257 101.08576 91.639701 100.80273 92.154297 C 100.52828 92.660316 100.26316 93.132906 100.00586 93.570312 C 99.868634 93.553159 99.736071 93.539827 99.607422 93.53125 L 99.220703 93.480469 C 99.375082 92.785764 99.542548 92.069619 99.722656 91.332031 C 99.911341 90.594444 100.10861 89.921438 100.31445 89.3125 C 100.52887 88.694985 100.74771 88.187492 100.9707 87.792969 C 101.20227 87.398445 101.42935 87.201172 101.65234 87.201172 z M 78.779297 97.070312 L 77.814453 101.27539 C 77.780147 101.54984 77.702104 101.89301 77.582031 102.30469 C 77.470535 102.71636 77.321498 103.11601 77.132812 103.50195 C 76.944127 103.8879 76.720189 104.21774 76.462891 104.49219 C 76.205593 104.76664 75.918897 104.9043 75.601562 104.9043 C 75.404301 104.9043 75.24193 104.85606 75.113281 104.76172 C 74.984632 104.6588 74.879924 104.53133 74.802734 104.37695 C 74.725545 104.214 74.671025 104.0332 74.636719 103.83594 C 74.610989 103.6301 74.597656 103.41949 74.597656 103.20508 C 74.597656 102.82771 74.645892 102.42492 74.740234 101.99609 C 74.843154 101.56726 75.013762 101.06996 75.253906 100.50391 C 75.494051 99.937851 75.737607 99.462119 75.986328 99.076172 C 76.235049 98.690225 76.505271 98.347056 76.796875 98.046875 C 77.097056 97.746694 77.415513 97.511376 77.75 97.339844 C 78.084487 97.159735 78.427656 97.070312 78.779297 97.070312 z M 110.77344 97.107422 C 110.97928 97.107422 111.15184 97.231747 111.28906 97.480469 C 111.43486 97.72919 111.50781 98.047647 111.50781 98.433594 C 111.50781 98.708045 111.35682 99.054356 111.05664 99.474609 C 110.75646 99.894863 110.44819 100.22979 110.13086 100.47852 C 109.8221 100.72724 109.48403 100.93275 109.11523 101.0957 C 108.75502 101.25008 108.42009 101.32812 108.11133 101.32812 C 108.11133 101.13944 108.11957 100.91236 108.13672 100.64648 C 108.15387 100.38061 108.23192 100.04058 108.36914 99.628906 C 108.51494 99.21723 108.63927 98.87406 108.74219 98.599609 C 108.85368 98.316582 108.99448 98.067931 109.16602 97.853516 C 109.34612 97.630524 109.56497 97.451679 109.82227 97.314453 C 110.08814 97.177228 110.40464 97.107422 110.77344 97.107422 z M 89.431641 100.375 C 89.474524 100.51223 89.520806 100.67969 89.572266 100.87695 C 89.632302 101.06564 89.640539 101.34095 89.597656 101.70117 C 89.56335 102.05281 89.560208 102.34775 89.585938 102.58789 C 89.620244 102.82804 89.636719 103.06531 89.636719 103.29688 C 89.636719 103.56275 89.612006 103.81964 89.560547 104.06836 C 89.509087 104.3085 89.417711 104.52225 89.289062 104.71094 C 89.160414 104.89105 88.98471 105.03694 88.761719 105.14844 C 88.547304 105.25993 88.27394 105.31641 87.939453 105.31641 C 87.665002 105.31641 87.419493 105.2517 87.205078 105.12305 C 86.990663 104.9944 86.801627 104.8536 86.638672 104.69922 C 86.475717 104.54484 86.329821 104.40209 86.201172 104.27344 C 86.0811 104.14479 85.970107 104.08008 85.867188 104.08008 L 89.431641 100.375 z "
     id="text4153" />
</svg>
