<?xml version="1.0" encoding="UTF-8" standalone="no"?>
<svg
   xmlns:dc="http://purl.org/dc/elements/1.1/"
   xmlns:cc="http://creativecommons.org/ns#"
   xmlns:rdf="http://www.w3.org/1999/02/22-rdf-syntax-ns#"
   xmlns:svg="http://www.w3.org/2000/svg"
   xmlns="http://www.w3.org/2000/svg"
   xmlns:sodipodi="http://sodipodi.sourceforge.net/DTD/sodipodi-0.dtd"
   xmlns:inkscape="http://www.inkscape.org/namespaces/inkscape"
   version="1.1"
   width="128"
   height="128"
   id="svg2"
   inkscape:version="0.91 r13725"
   sodipodi:docname="youtube.svg">
  <sodipodi:namedview
     pagecolor="#ffffff"
     bordercolor="#666666"
     borderopacity="1"
     objecttolerance="10"
     gridtolerance="10"
     guidetolerance="10"
     inkscape:pageopacity="0"
     inkscape:pageshadow="2"
     inkscape:window-width="3200"
     inkscape:window-height="1688"
     id="namedview14"
     showgrid="false"
     fit-margin-top="0"
     fit-margin-left="0"
     fit-margin-right="0"
     fit-margin-bottom="0"
     inkscape:zoom="2.7539063"
     inkscape:cx="-143.9773"
     inkscape:cy="-52.198581"
     inkscape:window-x="0"
     inkscape:window-y="60"
     inkscape:window-maximized="1"
     inkscape:current-layer="g4153" />
  <defs
     id="defs4" />
  <metadata
     id="metadata7">
    <rdf:RDF>
      <cc:Work
         rdf:about="">
        <dc:format>image/svg+xml</dc:format>
        <dc:type
           rdf:resource="http://purl.org/dc/dcmitype/StillImage" />
        <dc:title />
      </cc:Work>
    </rdf:RDF>
  </metadata>
  <g
     id="layer9"
     style="display:inline"
     transform="translate(-714.31897,716.05807)" />
  <g
     id="layer10"
     style="display:inline"
     transform="translate(-714.31897,716.05807)" />
  <g
     id="layer11"
     transform="translate(-714.31897,716.05807)" />
  <g
     id="layer14"
     transform="translate(-714.31897,716.05807)" />
  <g
     id="layer15"
     style="display:inline"
     transform="translate(-714.31897,716.05807)" />
  <g
     id="g71291"
     style="display:inline"
     transform="translate(-714.31897,716.05807)" />
  <g
     id="g4953"
     style="display:inline"
     transform="translate(-714.31897,716.05807)" />
  <g
     id="layer12"
     style="display:inline"
     transform="translate(-714.31897,716.05807)" />
  <g
     transform="matrix(1.25,0,0,-1.25,-283.90817,218.91142)"
     inkscape:label="ink_ext_XXXXXX"
     id="g4153">
    <path
       style="color:#000000;clip-rule:nonzero;display:inline;overflow:visible;visibility:visible;opacity:1;isolation:auto;mix-blend-mode:normal;color-interpolation:sRGB;color-interpolation-filters:linearRGB;solid-color:#000000;solid-opacity:1;fill:#444c5c;fill-opacity:1;fill-rule:nonzero;stroke:none;stroke-width:0.80000001px;stroke-linecap:butt;stroke-linejoin:miter;stroke-miterlimit:4;stroke-dasharray:none;stroke-dashoffset:0;stroke-opacity:1;color-rendering:auto;image-rendering:auto;shape-rendering:auto;text-rendering:auto;enable-background:accumulate"
       d="M 89.839844 37.292969 C 89.839844 37.292969 73.825503 37.292322 63.150391 38.060547 C 61.658916 38.237334 58.409275 38.252744 55.507812 41.277344 C 53.220275 43.581994 52.474609 48.816406 52.474609 48.816406 C 52.474609 48.816406 51.712891 54.961409 51.712891 61.107422 L 51.712891 66.869141 C 51.712891 73.014466 52.474609 79.160156 52.474609 79.160156 C 52.474609 79.160156 53.220275 84.392403 55.507812 86.697266 C 58.409275 89.722578 62.220581 89.626497 63.917969 89.943359 C 70.021069 90.526559 89.855469 90.707031 89.855469 90.707031 C 89.855469 90.707031 105.88543 90.683628 116.56055 89.916016 C 118.05151 89.738678 121.30439 89.722578 124.20508 86.697266 C 126.49237 84.392403 127.23828 79.160156 127.23828 79.160156 C 127.23828 79.160156 128 73.014466 128 66.869141 L 128 61.107422 C 128 54.961409 127.23828 48.816406 127.23828 48.816406 C 127.23828 48.816406 126.49237 43.581994 124.20508 41.277344 C 121.30439 38.252744 118.05151 38.237334 116.56055 38.060547 C 105.88543 37.292334 89.873047 37.292969 89.873047 37.292969 L 89.839844 37.292969 z M 0 46.029297 C 1.0922625 49.240384 6.3867188 66.466797 6.3867188 66.466797 L 6.3867188 80.519531 L 11.496094 80.519531 L 11.496094 66.466797 L 17.882812 46.029297 L 12.517578 46.029297 L 8.9511719 59.486328 L 5.3652344 46.029297 L 0 46.029297 z M 90.693359 46.283203 L 95.292969 46.283203 L 95.287109 57.445312 C 96.781134 55.606913 98.472353 54.560547 100.17383 54.560547 C 102.01557 54.560547 103.25386 55.624872 103.87109 57.537109 C 104.17997 58.563872 104.49023 60.216678 104.49023 62.634766 L 104.49023 72.853516 C 104.49023 75.214578 104.28738 76.880616 103.97852 77.962891 C 103.36128 79.861016 102.01557 80.847656 100.17383 80.847656 C 98.529328 80.847656 96.844203 79.857313 95.298828 77.945312 L 95.292969 80.517578 L 90.693359 80.517578 L 90.693359 46.283203 z M 74.087891 46.287109 L 74.087891 51.138672 L 68.46875 51.138672 L 68.46875 80.517578 L 63.357422 80.517578 L 63.357422 51.138672 L 57.994141 51.138672 L 57.994141 46.289062 L 74.087891 46.287109 z M 23.759766 54.527344 C 21.446391 54.527344 19.685794 55.250788 18.394531 57.015625 C 17.399956 58.319063 16.867188 60.410606 16.867188 63.167969 L 16.861328 72.34375 C 16.861328 75.085763 17.335503 76.978881 18.330078 78.269531 C 19.621341 80.029019 21.715953 80.962891 23.759766 80.962891 C 25.803578 80.962891 27.933587 80.029019 29.226562 78.269531 C 30.20555 76.978881 30.65625 75.085763 30.65625 72.34375 L 30.65625 63.146484 C 30.65625 60.389122 30.103988 58.319062 29.125 57.015625 C 27.831775 55.250788 25.803578 54.527344 23.759766 54.527344 z M 114.65234 54.601562 C 116.97259 54.601562 118.81478 55.526488 120.11133 57.273438 C 121.07832 58.564612 121.61523 60.560575 121.61523 63.289062 L 121.61523 68.511719 L 112.41016 68.511719 L 112.41016 73.099609 C 112.39432 75.457172 113.06481 76.644531 114.65234 76.644531 C 115.79101 76.644531 116.45484 76.02535 116.71875 74.789062 C 116.76263 74.536988 116.75391 73.433837 116.75391 71.578125 L 121.60742 71.578125 L 121.60742 72.302734 C 121.60742 73.793184 121.48498 74.847384 121.44336 75.310547 C 121.28726 76.335747 120.92363 77.263681 120.36133 78.082031 C 119.0819 79.935706 117.18413 80.849609 114.76758 80.849609 C 112.34795 80.849609 110.50514 79.978787 109.16797 78.234375 C 108.18541 76.956987 107.55664 75.058553 107.55664 72.345703 L 107.55664 63.402344 C 107.55664 60.673844 108.12875 58.564612 109.11133 57.273438 C 110.449 55.526488 112.29123 54.601562 114.65234 54.601562 z M 34.234375 54.714844 L 34.234375 75.154297 C 34.234375 76.927772 34.458188 78.134878 34.773438 78.908203 C 35.292313 80.179691 36.328337 80.882812 37.820312 80.882812 C 39.520775 80.882812 41.079722 79.818172 42.919922 77.708984 L 42.919922 80.519531 L 47.773438 80.519531 L 47.773438 54.714844 L 42.919922 54.714844 L 42.919922 74.386719 C 41.892647 75.835756 41.052222 76.642578 40.123047 76.642578 C 39.505822 76.642578 39.201066 76.381213 39.087891 75.664062 L 39.087891 73.876953 L 39.087891 54.714844 L 34.234375 54.714844 z M 73.322266 54.972656 L 78.175781 54.972656 L 78.175781 73.876953 L 78.175781 75.666016 C 78.288906 76.383166 78.5937 76.644531 79.210938 76.644531 C 80.1401 76.644531 80.980537 75.837709 82.007812 74.388672 L 82.007812 54.972656 L 86.861328 54.972656 L 86.861328 80.519531 L 82.007812 80.519531 L 82.007812 77.708984 C 80.167613 79.818184 78.608653 80.884766 76.908203 80.884766 C 75.416203 80.884766 74.380203 80.179691 73.861328 78.908203 C 73.546078 78.134866 73.322266 76.927772 73.322266 75.154297 L 73.322266 54.972656 z M 97.699219 58.820312 C 96.938086 58.820968 96.067617 59.223588 95.294922 59.986328 L 95.287109 75.480469 C 96.060684 76.253919 96.937644 76.644531 97.699219 76.644531 C 99.033069 76.644531 99.636719 75.666103 99.636719 73.111328 L 99.634766 73.111328 L 99.634766 62.125 C 99.634766 59.571553 99.033568 58.821092 97.701172 58.820312 L 97.699219 58.820312 z M 114.60938 58.820312 C 113.06475 58.820312 112.41016 59.471675 112.41016 61.859375 L 112.41016 64.685547 L 116.75391 64.679688 L 116.75391 61.890625 C 116.75391 59.52925 116.14274 58.820312 114.60938 58.820312 z M 23.759766 58.882812 C 25.267078 58.882812 26.060162 60.079991 25.804688 62.634766 L 25.802734 72.853516 C 26.058209 75.408278 25.267078 76.675781 23.759766 76.675781 C 22.252453 76.675781 21.459356 75.408278 21.714844 72.853516 L 21.714844 62.634766 C 21.459356 60.079991 22.252453 58.882812 23.759766 58.882812 z "
       transform="matrix(0.8,0,0,-0.8,227.12654,175.12914)"
       id="path4157" />
  </g>
</svg>
