<?xml version="1.0" encoding="UTF-8" standalone="no"?>
<svg
   xmlns:dc="http://purl.org/dc/elements/1.1/"
   xmlns:cc="http://creativecommons.org/ns#"
   xmlns:rdf="http://www.w3.org/1999/02/22-rdf-syntax-ns#"
   xmlns:svg="http://www.w3.org/2000/svg"
   xmlns="http://www.w3.org/2000/svg"
   version="1.1"
   id="svg2"
   viewBox="0 0 845.7549 972.9916"
   height="274.59985mm"
   width="238.69083mm">
  <defs
     id="defs4" />
  <metadata
     id="metadata7">
    <rdf:RDF>
      <cc:Work
         rdf:about="">
        <dc:format>image/svg+xml</dc:format>
        <dc:type
           rdf:resource="http://purl.org/dc/dcmitype/StillImage" />
        <dc:title></dc:title>
      </cc:Work>
    </rdf:RDF>
  </metadata>
  <g
     transform="translate(1188.8764,-62.808189)"
     id="layer1">
    <path
       id="path4149"
       d="m -962.67941,470.93387 c -0.0645,-0.0645 -0.57121,0.31242 -1.5625,1.08984 -1.20313,0.94356 -2.1875,1.92794 -2.1875,2.1875 0,1.0288 1.0272,0.36735 2.66016,-1.71484 0.77742,-0.99129 1.15437,-1.49798 1.08984,-1.5625 z m -142.08199,45.55468 c -0.2281,-0.0117 -0.5595,0.0587 -0.9766,0.21875 -1.067,0.40944 -1.9414,0.96418 -1.9414,1.23438 0,1.01238 2.3831,0.44363 3.1172,-0.74414 0.2737,-0.44286 0.1808,-0.68953 -0.1992,-0.70899 z m 74.7304,6.9961 1.4883,4.25976 c 2.747,7.86316 8.8641,14.88936 17.2012,19.75977 4.4209,2.58265 10.5313,7.0144 13.57811,9.84765 5.1386,4.7784 13.49455,9.16912 46.60352,24.48438 l 9.73046,4.5 0,14.03516 c 0,20.67961 4.161,40.32096 10.75196,50.76171 3.31791,5.25594 3.72641,6.64764 1.55664,5.30665 -0.9013,-0.55704 -1.10396,-0.34371 -0.53906,0.57031 0.49747,0.80488 1.33808,1.1954 1.86914,0.86719 0.53105,-0.32822 2.88324,1.40572 5.22656,3.85351 8.78792,9.1797 21.69277,15.63778 40.21484,20.12109 7.3208,1.77202 14.76324,2.18927 39.04492,2.19727 27.81184,0.008 30.77497,-0.20856 40.625,-2.96875 10.39182,-2.912 18.96134,-6.6966 22.28907,-9.8457 0.9148,-0.8657 2.32105,-1.19662 3.125,-0.73633 0.80397,0.4603 1.14482,0.47706 0.75781,0.0371 -0.38702,-0.43994 2.72208,-4.32777 6.9082,-8.63867 10.48857,-10.80125 16.64379,-23.54429 19.08203,-39.5 1.016,-6.64871 2.03491,-12.74338 2.26368,-13.54493 0.607,-2.12697 13.77165,-4.53517 19.82812,-3.62695 2.86228,0.42923 7.01264,1.88137 9.22461,3.22656 3.4826,2.1179 4.02148,3.13576 4.02148,7.59571 0,11.32394 5.47462,25.82549 15.11719,40.04687 2.62374,3.86962 4.37322,7.43148 3.88867,7.91602 -0.48453,0.48461 -0.30566,0.69402 0.39649,0.46484 0.70215,-0.22916 3.7959,1.62615 6.875,4.12305 10.48282,8.5007 23.18481,13.73521 40.59765,16.73047 6.60228,1.13568 17.85725,1.61934 33.125,1.42187 19.83608,-0.25658 24.60541,-0.71342 33.52344,-3.2168 17.33347,-4.86567 30.91155,-15.1734 40.47461,-30.7246 6.74654,-10.97103 13.50195,-37.62795 13.50195,-53.27344 l 0,-5.95899 5.3125,-0.38281 5.3125,-0.38476 -0.30273,-18.34375 c -0.18794,-11.34066 -1.02306,-21.1056 -2.1875,-25.57618 -1.03594,-3.9772 -1.90193,-11.47256 -1.92383,-16.65625 -0.0371,-8.79138 -0.17036,-9.25578 -1.99805,-6.92382 -4.2348,5.40325 -6.86731,13.91346 -7.71679,24.94921 l -0.8711,11.30079 -15.26757,-0.19922 c -8.3976,-0.1097 -24.42885,-1.1887 -35.625,-2.39649 -12.4753,-1.34577 -30.03653,-2.1944 -45.35743,-2.1914 -29.1917,0.005 -43.53229,2.3607 -58.93164,9.67382 -10.71961,5.09071 -21.69126,15.22342 -24.30273,22.44532 -1.65502,4.5769 -1.83372,4.68495 -6.10938,3.6914 -2.42289,-0.56301 -11.01309,-0.99905 -19.08984,-0.96875 -13.60336,0.051 -14.74292,-0.12796 -15.47656,-2.43945 -0.43558,-1.3724 -2.81412,-5.2038 -5.28516,-8.51367 -9.79923,-13.12567 -30.03454,-22.52021 -57.67969,-26.7793 -19.38046,-2.98575 -70.80693,-3.03857 -100.375,-0.10351 l -21,2.08398 -9.625,-3.60156 c -16.80851,-6.28935 -20.19913,-7.89659 -19.39648,-9.19531 0.44946,-0.72725 0.16145,-0.88268 -0.67578,-0.36524 -1.58013,0.97658 -6.02973,-0.75099 -23.06445,-8.95312 -7.91027,-3.80875 -12.61298,-5.3125 -16.61328,-5.3125 -3.0689,0 -7.6157,-0.85231 -10.1055,-1.89258 -5.6652,-2.36709 -6.5305,-1.68227 -2.1894,1.73242 3.1623,2.48746 9.9862,4.90341 21.16989,7.49414 4.95573,1.14801 4.93447,1.15906 -2.58398,1.28711 -11.08671,0.18881 -20.22591,-2.90744 -25.77931,-8.73242 l -4.6133,-4.83789 z m 184.84769,41.37109 c 7.78389,0.0321 14.73545,0.3552 19.3789,1.02149 5.5,0.78918 10.84375,1.46439 11.875,1.5 8.94706,0.30904 31.78995,7.92193 30.41993,10.13867 -0.47866,0.77448 -0.197,0.92917 0.69336,0.3789 2.59848,-1.60595 12.09837,5.87537 10.58007,8.33203 -0.47406,0.76705 -0.24488,0.98285 0.53321,0.50196 1.67735,-1.03665 6.92689,5.82967 8.85156,11.57812 2.97921,8.89815 0.48332,27.16465 -5.26172,38.50196 -2.74123,5.40954 -8.955,13.62479 -12.69141,16.78125 -9.28975,7.84787 -17.25243,11.9891 -30,15.60156 -5.54993,1.57276 -13.35021,2.2032 -30,2.42773 -12.375,0.16689 -24.1875,0.0618 -26.25,-0.23437 -8.98663,-1.29025 -21.47366,-4.49669 -24.0625,-6.17969 -1.54688,-1.00561 -2.8125,-1.51985 -2.8125,-1.14258 0,0.37725 -1.75145,-0.22089 -3.89257,-1.32812 -5.574,-2.88242 -14.97162,-11.8545 -14.02344,-13.38868 0.45223,-0.73172 0.19983,-0.92613 -0.57813,-0.44531 -1.51004,0.93324 -4.40582,-3.39886 -3.12695,-4.67773 0.43415,-0.43414 0.19423,-0.78906 -0.5332,-0.78906 -3.44895,0 -9.09571,-24.50475 -9.09571,-39.47657 0,-10.20444 2.05091,-19.61342 5.125,-23.52148 3.39221,-4.3125 14.28398,-9.18698 27.13282,-12.14063 9.46164,-2.17501 30.61371,-3.51002 47.73828,-3.43945 z m 206.96679,4.48047 c 13.53338,0.016 28.45994,1.18718 41.78711,3.50976 42.92464,7.4807 55.21716,21.39245 48.19141,54.54102 -4.88148,23.0316 -20.50297,39.58559 -42.29883,44.82031 -9.07365,2.17922 -44.16941,2.64431 -54.21484,0.71875 -17.21671,-3.30019 -29.42898,-8.548 -37.56641,-16.14258 -2.20763,-2.06037 -3.66736,-4.30544 -3.24414,-4.99023 0.42323,-0.68479 0.14963,-0.86167 -0.60937,-0.39258 -1.2577,0.7773 -7.22876,-5.78321 -7.0625,-7.75976 0.0385,-0.45803 -0.88884,-1.86327 -2.0625,-3.12305 -2.3639,-2.53735 -7.77334,-18.20973 -7.23438,-20.96094 0.18828,-0.96112 -0.0791,-2.98731 -0.59375,-4.50195 -2.3584,-6.94115 3.49574,-23.60938 10.94336,-31.16211 3.63322,-3.6845 13.55654,-9.06227 20.54492,-11.13477 7.7477,-2.29769 19.88655,-3.43787 33.41992,-3.42187 z"
       style="fill:#1a1a1a" />
    <path
       id="rect4187"
       d="m -945.83398,62.808313 c -0.15298,-0.009 0.51451,0.47375 1.90625,1.44336 6.89127,4.80098 14.67311,14.26515 20.20507,24.57031 3.20705,5.9742 5.61128,10.86133 5.3418,10.86133 -0.26946,0 -4.30072,-1.43988 -8.95703,-3.20117 -17.64641,-6.67489 -28.04761,-6.26356 -45.86328,1.81445 -21.39041,9.698877 -43.60423,32.058737 -51.67193,52.011717 -1.211,2.99522 -1.2049,3.27099 0.027,1.36914 5.7934,-8.9412 16.9806,-22.72503 22.4981,-27.71875 16.66007,-15.07848 31.22899,-21.07296 49.36523,-20.3164 9.68616,0.40405 12.20978,1.04848 22.17969,5.67382 6.1875,2.87056 14.90625,6.05475 19.375,7.07618 4.46875,1.02143 11.97047,2.73326 16.67187,3.80273 9.22215,2.09786 23.21473,8.64361 35.20313,16.46875 l 7.5,4.89453 -20.53516,0.84961 c -11.29395,0.46737 -21.5803,1.1245 -22.85938,1.45899 -1.27908,0.33448 -8.11831,-0.70123 -15.19726,-2.30078 -25.93873,-5.86107 -46.93951,-14.50351 -58.48242,-24.06837 -5.03703,-4.17384 -4.94576,-3.99912 1.25781,2.44336 3.67593,3.81754 10.8595,9.39958 15.96484,12.4043 l 9.28321,5.46289 -17.65235,1.02344 c -9.70882,0.56303 -18.46519,0.71264 -19.45703,0.33203 -0.99183,-0.3806 -2.6006,-2.5285 -3.57617,-4.77343 -1.0757,-2.47527 -1.79257,-3.19626 -1.82227,-1.83204 -0.0933,4.28628 3.83825,9.81023 8.3125,11.67969 3.52018,1.47084 7.38442,1.67699 18.56836,0.98828 13.98455,-0.86119 14.20309,-0.83188 22.34571,2.97852 8.3175,3.89223 10.77196,6.13893 5.16796,4.73242 -8.75954,-2.1985 -28.89019,-3.29068 -37.80468,-2.05078 -11.63312,1.61802 -17.2998,4.07203 -31.51369,13.64453 -19.7203,13.28085 -34.3972,18.94615 -44.2129,17.06641 -3.2256,-0.61773 -3.5992,-0.49862 -1.8574,0.58984 7.4764,4.67195 26.2444,2.22471 39.1777,-5.10937 15.62625,-8.86114 21.74746,-11.37991 29.33988,-12.06836 5.11582,-0.46389 7.42774,-0.23064 7.42774,0.75 0,0.78298 -0.98438,1.42524 -2.1875,1.42578 -4.33629,0.002 -17.38555,7.25175 -24.71094,13.73047 -4.11278,3.63742 -10.79968,8.78662 -14.85938,11.4414 -8.1417,5.3241 -11.5009,5.80079 -23.4629,3.33008 -6.1311,-1.26637 -9.4542,-1.13714 -21.5976,0.83594 -16.2617,2.64222 -21.2406,1.93469 -28.3145,-4.01758 -3.1026,-2.6107 -3.6976,-2.81268 -2.6641,-0.9043 1.999,3.69112 7.9933,9.01201 11.752,10.43164 1.9681,0.74335 9.6379,0.97677 18.75,0.57032 10.9971,-0.49054 16.4954,-0.23511 19.1699,0.89257 2.2106,0.9321 2.9803,1.7224 1.875,1.92579 -1.0312,0.18976 -4.0195,0.69661 -6.6387,1.125 -2.9301,0.47924 -6.6435,2.47921 -9.6543,5.19921 l -4.8925,4.41993 -3.3203,-2.61133 c -3.8543,-3.0318 -12.4087,-5.61253 -15.1348,-4.56641 -5.5272,2.12097 -17.8594,-5.29285 -17.8594,-10.73633 0,-1.27461 -0.5748,-2.31836 -1.2754,-2.31836 -1.6018,0 -0.3185,5.85107 2.1485,9.79688 1.0047,1.607 6.1411,4.95044 11.414,7.42969 12.8022,6.01944 18.3138,9.73176 20.0254,13.48828 1.8109,3.97438 2.0793,3.90141 -17.3906,4.81445 -24.3491,1.14183 -37.7343,5.5373 -49.6445,16.30274 -3.6285,3.27971 -7.2307,7.14499 -8.004,8.58984 -0.8521,1.59222 0.9739,0.533 4.6348,-2.68945 13.6223,-11.99077 33.2355,-18.25033 48.8242,-15.58008 9.6511,1.65315 24.1239,8.19106 19.6035,8.85547 -5.4668,0.80352 -7.8359,5.85635 -7.8359,16.70507 0,9.62229 -0.068,9.83956 -2.6074,8.48047 -1.4335,-0.76715 -3.6117,-3.6431 -4.8418,-6.39062 l -2.2363,-4.99414 -0.7832,4.16797 c -1.2768,6.8059 2.9472,17.86624 8.2382,21.57226 4.3292,3.03221 -0.1079,2.3587 -5.8007,-0.88086 -3.0586,-1.74054 -6.0007,-4.86633 -7.8125,-8.30078 -2.7594,-5.23049 -2.9037,-5.32532 -2.8516,-1.875 0.049,3.24278 1.3174,7.54632 4.3398,14.7168 0.8387,1.9897 0.6348,2.15201 -1.3925,1.10937 -1.3074,-0.67238 -4.0645,-1.62224 -6.127,-2.11132 -2.893,-0.686 -2.01,0.23968 3.8692,4.05078 4.1914,2.71706 7.9832,5.88396 8.4257,7.03711 1.1306,2.94618 -5.2568,8.38191 -8.0761,6.87304 -4.3456,-2.3257 -13.683,-14.20498 -15.7579,-20.04687 -2.2921,-6.45365 -3.5312,-7.54356 -4.4746,-3.9336 -0.3144,1.20313 -0.637,-1.50758 -0.7168,-6.02343 -0.1739,-9.84953 2.1915,-18.44933 7.2832,-26.47657 4.4913,-7.08049 3.1886,-7.76911 -2.4804,-1.3125 -14.5101,16.5261 -12.4855,39.50338 5.2871,60.01563 l 5.1855,5.98437 -5.4121,1.15821 c -5.291,1.13178 -19.9727,-0.28095 -25.6328,-2.4668 -2.1767,-0.8406 -2.0959,-0.52241 0.625,2.47266 3.9945,4.39703 6.4192,5.69538 15.625,8.36132 l 7.5,2.17188 -9.4902,0.0898 c -9.2129,0.0865 -15.1578,-1.17869 -25.5098,-5.42382 l -5,-2.05079 4.3027,3.76172 c 6.2506,5.46229 15.1733,8.16394 26.5997,8.05273 l 9.6523,-0.0957 -2.7773,4.95313 c -4.0525,7.22273 -17.6412,20.44733 -27.7442,27 -4.8308,3.13319 -13.5644,7.52117 -19.4082,9.75195 -5.8437,2.23079 -9.4904,4.07486 -8.1016,4.09766 3.8194,0.0627 19.5732,-4.53583 27.4063,-8 3.8191,-1.68902 6.9453,-2.81003 6.9453,-2.49024 0,0.97902 -17.1752,11.75577 -22.8164,14.31641 -7.0664,3.20756 -2.8178,3.12234 6.918,-0.13867 8.1616,-2.73376 18.2589,-8.32619 23.1953,-12.84571 l 2.9238,-2.67578 -0.9238,5 c -0.508,2.75 -2.5273,10.6245 -4.4863,17.49805 -2.3197,8.13867 -3.5606,15.42134 -3.5606,20.88086 l 0,8.38281 -4.0625,0.67773 c -2.2344,0.37233 -6.5937,0.83572 -9.6875,1.03126 l -5.625,0.35546 3.6192,1.5625 c 1.9905,0.85928 6.865,1.90157 10.8339,2.31641 7.2592,0.75872 8.5918,1.92742 8.6543,7.5918 0.026,2.35848 -8.9823,7.52785 -16.4453,9.4375 l -6.6621,1.70507 5,1.6836 c 2.75,0.92525 7.6289,1.7255 10.8438,1.7793 9.4874,0.1588 3.139,2.52485 -6.8809,2.56445 -8.0801,0.032 -8.7325,-0.18513 -12.1875,-4.04883 -4.0213,-4.49698 -4.9652,-2.71118 -1.8008,3.4082 4.571,8.8392 13.7544,11.58243 27.3613,8.16993 9.9842,-2.50392 10.3897,-2.28293 15.1192,8.25585 4.2762,9.52863 3.6585,14.33583 -2.5391,19.77735 -5.1495,4.52135 -6.6187,4.70023 -10.9082,1.32617 -6.6727,-5.24878 -7.3282,-16.42909 -1.2441,-21.21484 2.095,-1.64795 2.5507,-2.51563 1.3222,-2.51563 -6.2642,0 -12.0829,11.70896 -10.3808,20.88867 2.8062,15.13395 19.267,21.85722 28.4824,11.63477 l 3.4375,-3.8125 0,4.95898 c 0,15.26502 -5.9639,25.57126 -15.6348,27.02149 -11.7785,1.7663 -19.2713,-5.95622 -19.4668,-20.06641 l -0.1035,-7.5 -1.9121,4.375 c -4.4014,10.07267 1.1236,27.46552 10.0742,31.71289 9.2639,4.39597 23.3913,1.44726 29.3477,-6.125 l 2.543,-3.23242 2.2343,3.41211 c 1.4176,2.16349 2.4124,6.55505 2.7207,12.01172 0.9283,16.42812 -5.3182,24.76243 -20.3984,27.2168 -3.9859,0.64872 -7.4988,1.43045 -7.8066,1.73828 -0.3079,0.30781 2.6117,0.95512 6.4882,1.43945 6.8055,0.85029 12.8562,0.4046 17.0489,-1.25781 1.7258,-0.6843 1.9274,0.0703 1.4219,5.33203 -0.4245,4.41761 0.1062,7.70144 1.9023,11.76172 l 2.4922,5.63281 -7.9414,2.80469 c -4.3678,1.54196 -12.0358,3.28059 -17.0391,3.86328 l -9.0957,1.05859 10,-0.49609 c 5.5,-0.27313 13.5955,-1.61639 17.9902,-2.98438 l 7.9903,-2.48632 5.9844,5.04687 c 6.4615,5.44845 7.3983,6.97396 7.4277,12.0918 0.015,2.61255 0.2833,2.92769 1.2324,1.45898 2.234,-3.45685 1.2882,-10.82039 -2.3027,-17.93945 -1.9534,-3.87265 -3.2653,-7.32655 -2.916,-7.67578 0.3492,-0.34924 2.2562,-0.63477 4.2382,-0.63477 2.978,0 3.4043,-0.35699 2.4532,-2.05664 -0.823,-1.47053 -0.3222,-3.27873 1.7578,-6.34375 3.1856,-4.69431 8.0195,-16.7413 8.0195,-19.98828 0,-1.75629 0.3983,-1.69037 2.8125,0.4668 1.5469,1.38216 5.9063,4.35335 9.6875,6.60351 13.0116,7.74301 14.692,10.83022 10.0488,18.44531 -3.0434,4.99134 -8.3222,7.78739 -16.5488,8.76172 -5.7103,0.6763 -6.1305,0.9252 -4.0703,2.43164 3.005,2.19735 13.2769,2.14911 18.6309,-0.0879 l 4.2304,-1.76757 0,5.3789 c 0,6.62881 2.4643,11.58591 8.3125,16.7207 2.4653,2.16455 4.6896,3.93555 4.9434,3.93555 0.2538,0 -0.609,-2.8188 -1.918,-6.26367 -1.414,-3.7214 -2.3789,-9.42073 -2.3789,-14.04297 l 0,-7.7793 2.3125,4.31641 c 3.4124,6.36282 7.5995,9.02371 13.4141,8.52734 l 4.8984,-0.41796 -4.375,-1.97657 c -2.4062,-1.08696 -5.1514,-2.91138 -6.0996,-4.05468 -2.2517,-2.71514 -1.2714,-11.68567 1.7871,-16.35352 l 2.2969,-3.50586 1.6562,4.78125 c 2.6925,7.77693 10.28623,14.26953 16.69145,14.26953 2.49033,0 2.35697,-0.38732 -1.66211,-4.83594 -4.21605,-4.66667 -7.82524,-12.57302 -6.94534,-15.21289 0.6711,-2.01311 10.59542,5.93579 13.71682,10.98633 1.5517,2.5107 3.5592,7.12421 4.46094,10.25195 l 1.64062,5.68555 -0.54296,-7.04687 c -0.29787,-3.87577 -1.46242,-8.8275 -2.58789,-11.00391 l -2.04493,-3.95703 3.75391,1.94141 c 2.06492,1.06781 4.62603,1.9414 5.69141,1.9414 3.06757,0 2.25007,-2.14899 -1.14063,-3 -1.69217,-0.4247 -5.09205,-3.44002 -7.55664,-6.69922 -7.77706,-10.2845 -16.72155,-18.63863 -25.28325,-23.61328 -8.5936,-4.99324 -14.6605,-11.90581 -17.4453,-19.87695 l -1.4883,-4.25977 4.6133,4.83985 c 5.5534,5.82498 14.6907,8.91928 25.77738,8.73047 7.51845,-0.12805 7.54166,-0.1391 2.58594,-1.28711 -11.18362,-2.59073 -18.00762,-5.00668 -21.16992,-7.49414 -4.3411,-3.41469 -3.4778,-4.09756 2.1875,-1.73047 5.2916,2.21096 14.4545,2.31053 21.33788,0.23242 4.8035,-1.45024 4.76199,-1.4668 -3.75,-1.4668 -6.43088,0 -9.71098,-0.64804 -12.97658,-2.5664 -3.9262,-2.30645 -10.0039,-9.50012 -10.0039,-11.83985 0,-0.50138 2.3906,-0.65374 5.3125,-0.33789 2.9219,0.31587 6.7188,0.0229 8.4375,-0.65234 2.9343,-1.15273 2.9725,-1.27951 0.625,-2.06446 -1.375,-0.45978 -4.75,-1.88005 -7.5,-3.15625 l -5,-2.32031 5,0.73047 5,0.72852 -4.0625,-3.82422 c -2.2344,-2.1035 -4.0625,-4.44381 -4.0625,-5.19922 0,-4.0352 10.0022,1.95074 13.9981,8.37695 l 2.8769,4.625 0.3809,-5.25195 0.3808,-5.25195 3.99417,2.43554 c 2.19648,1.33928 5.94884,2.43646 8.33985,2.43946 l 4.34765,0.004 -4.68554,-3.86133 c -4.55491,-3.75455 -7.06198,-7.49933 -9.74219,-14.54882 l -1.30273,-3.42579 3.00586,2.82227 c 5.94187,5.58211 17.91475,6.85172 26.75976,2.83594 6.08512,-2.76274 9.18497,-7.79442 9.05664,-14.69727 l -0.0879,-4.75 -2.24609,5 c -3.09329,6.88613 -6.50019,9.56122 -13.13086,10.3086 -6.90491,0.77827 -12.18113,-1.24068 -16.42578,-6.28516 -2.46801,-2.93306 -2.81163,-4.01012 -1.53711,-4.81836 2.35687,-1.4946 7.17616,-1.22538 12.58008,0.70313 5.97015,2.13058 6.03451,0.50383 0.125,-3.14844 -3.39286,-2.09692 -7.08419,-2.96503 -14.40235,-3.38867 l -9.83986,-0.57032 10.24221,-9.70507 10.24218,-9.70704 6.34766,1.83985 c 7.65168,2.21963 20.18648,9.43703 31.65039,18.2207 8.01715,6.14275 8.25569,6.23843 4.67773,1.89453 -6.01292,-7.30009 -18.69011,-16.8035 -29.29687,-21.96484 l -9.80078,-4.76953 4.04492,-5.57227 c 5.05304,-6.96298 8.62926,-13.79832 4.20508,-8.03711 -1.58383,2.06249 -4.69028,5.76667 -6.90235,8.23047 -3.99303,4.44744 -4.06669,4.47118 -10.21875,3.21094 -4.97186,-1.01847 -7.2024,-0.87558 -11.29102,0.73047 -2.8027,1.10092 -5.0957,1.73469 -5.0957,1.4082 0,-2.51331 13.9888,-21.48704 20.33204,-27.57813 10.7188,-10.29273 19.29352,-14.59174 29.28906,-14.68164 5.16415,-0.0465 7.33086,-0.48705 6.49805,-1.32031 -0.68712,-0.6875 -4.18536,-1.22285 -7.77344,-1.18945 -6.8596,0.0639 -20.09322,5.3361 -27.68945,11.03125 -7.40745,5.55359 -7.41982,4.59242 -0.0312,-2.34766 4.125,-3.87461 10.73437,-9.27701 14.6875,-12.0039 3.95312,-2.7269 7.1875,-5.23257 7.1875,-5.56836 0,-0.85498 -6.91653,2.79123 -14.6875,7.74218 -3.60938,2.29956 -6.5625,3.73144 -6.5625,3.1836 0,-1.64026 13.62126,-12.89145 24.10546,-19.91016 5.3915,-3.60938 9.47563,-6.5625 9.07422,-6.5625 -0.40141,0 -4.058,1.35329 -8.125,3.00586 -9.92161,4.03151 -20.14533,10.96149 -30.32422,20.55469 l -8.41992,7.93359 1.9668,-6.68359 c 6.44003,-21.89373 20.72978,-51.55395 27.22461,-56.50781 21.53267,-16.42377 50.00922,-22.03845 67.47851,-13.30664 5.12055,2.55945 5.12984,2.55926 2.18165,0.0293 -5.40144,-4.63509 -15.33326,-6.58675 -30.61915,-6.01562 -11.86571,0.44334 -15.34363,1.08561 -23.57226,4.35742 -8.29138,3.29679 -9.47815,3.51443 -8.41992,1.53711 2.518,-4.70492 14.34903,-11.88902 24.64453,-14.96484 2.9263,-0.87424 5.09634,-1.81186 4.82422,-2.08399 -0.46729,-0.46728 -13.10236,2.51987 -17.91797,4.23633 -1.551,0.55284 -1.09169,-0.49821 1.51367,-3.46094 l 3.74219,-4.25586 -4.99219,4.57227 c -2.74563,2.51456 -10.33398,7.10558 -16.86523,10.20312 -6.53125,3.09756 -14.33246,7.15846 -17.33399,9.02344 l -5.45703,3.39062 3.50195,-6.09374 c 13.10432,-22.80842 25.33773,-33.27132 40.76758,-34.86524 l 6.64649,-0.6875 4.375,6.27149 c 2.40625,3.44843 6.0625,7.51895 8.125,9.04687 l 3.75,2.7793 -3.49805,-4.17578 c -3.18984,-3.80735 -8.37695,-12.7476 -8.37695,-14.4375 0,-0.38321 2.43426,1.84534 5.41015,4.95117 6.51523,6.79966 10.09298,7.55357 4.67969,0.98633 -4.43607,-5.38174 -4.78604,-7.37078 -1.48047,-8.41992 2.8918,-0.91783 8.89063,-6.34038 8.89063,-8.03711 0,-0.68047 -2.39063,0.13018 -5.3125,1.80078 -9.06274,5.18171 -10.60724,3.99789 -13.58399,-10.41406 -1.42855,-6.91639 -1.35026,-7.66232 1.16406,-11.19336 1.48149,-2.08055 5.15449,-4.93884 8.16407,-6.35352 4.80845,-2.26023 19.56836,-16.62373 19.56836,-19.04297 0,-1.97526 9.17065,-5.05186 18.57031,-6.23047 12.10296,-1.51759 29.61275,0.18975 39.36328,3.83789 7.70697,2.88355 17.88598,9.7232 29.50586,19.82618 7.40308,6.43666 7.76918,6.61866 4.45508,2.21484 -11.63608,-15.46233 -31.23482,-27.49242 -56.51367,-34.68561 -13.97832,-3.9776 -16.16753,-5.44916 -14.74609,-9.92773 1.60088,-5.04391 21.25534,-14.28423 33.42774,-15.71485 9.6072,-1.12914 18.73962,1.27606 24.11914,6.34961 3.64636,3.43896 4.31836,3.70155 4.31836,1.69532 0,-4.04991 -3.69307,-11.47681 -7.87696,-15.84375 -3.89284,-4.06315 -13.31215,-9.59762 -19.62304,-11.5293 -2.78569,-0.85267 -2.63262,-0.96868 1.41796,-1.06445 6.55694,-0.15504 16.43101,3.3717 21.77344,7.77539 6.0034,4.94851 11.80564,17.08262 11.80664,24.69531 10e-4,5.83987 -2.77125,9.82447 -9.37304,13.4668 -2.22641,1.22836 -2.25682,1.38412 -0.26954,1.41797 4.04227,0.0689 8.70493,-4.13429 11.68555,-10.53516 5.54621,-11.91041 3.27138,-29.09951 -5.34375,-40.39453 l -3.48437,-4.56836 4.5,3.43164 c 8.70939,6.64297 13.47381,15.81418 13.63672,26.24805 l 0.10156,6.48046 2.36718,-5 c 1.30133,-2.75 2.38044,-6.91266 2.39844,-9.25 l 0.0332,-4.25 16.5625,0.73633 c 27.25075,1.21107 44.06183,5.40024 79.18945,19.73242 30.93132,12.62008 38.73022,18.63037 54.22266,41.78125 6.16444,9.21172 13.41721,17.8757 21.97265,26.25 l 12.76953,12.5 4.65625,14.99414 c 5.41675,17.44957 10.56818,28.23118 18.59571,38.91016 8.56676,11.3963 18.43214,18.02649 26.67773,17.92969 2.73956,-0.0321 2.10608,-0.51497 -2.98242,-2.27344 -18.27305,-6.31468 -28.13446,-23.06373 -36.17188,-61.43555 -0.55735,-2.66085 0.42468,-2.08635 6.61328,3.8711 3.99748,3.84817 11.32991,9.64809 16.29493,12.88672 10.78013,7.0318 17.74023,14.74811 23.19531,25.71679 3.8353,7.71175 4.0293,8.78683 4.0293,22.5 0,11.65684 -0.45476,15.31601 -2.38477,19.20313 -2.89146,5.82355 -5.04584,6.83957 -8.28711,3.90625 -1.96309,-1.77657 -2.45312,-1.85758 -2.45312,-0.40235 0,2.97139 2.7298,4.81836 7.12109,4.81836 4.55318,0 13.355,-6.84783 14.84766,-11.55078 0.76356,-2.40576 0.92197,-2.43811 2.05468,-0.41406 0.67495,1.20605 1.52128,6.50227 1.88086,11.76758 0.74489,10.90678 -1.42804,21.37632 -6.52148,31.42773 -3.80197,7.50284 -2.51903,8.0356 3.44726,1.43164 l 4.3711,-4.83789 1.39844,4.66992 c 0.76967,2.56891 1.40039,6.18039 1.40039,8.02539 0,10.27845 -11.45511,17.19274 -21.90235,13.22071 -2.53534,-0.96393 -3.19176,-0.89052 -2.79492,0.3125 1.8015,5.46135 19.12444,6.18812 26.01758,1.09179 2.13135,-1.57578 4.05138,-2.67382 4.26562,-2.4414 1.40765,1.52713 4.76439,14.08262 5.31055,19.86328 0.76024,8.04642 -1.79027,14.26345 -9.22266,22.49023 l -4.46484,4.94336 3.72656,0 c 2.04979,0 5.16981,-1.13408 6.9336,-2.52148 l 3.20703,-2.52344 1.96094,2.80078 c 1.14285,1.63165 1.96289,5.39164 1.96289,9.00781 0,10.03046 -7.29257,18.23633 -16.20508,18.23633 -2.2047,0 -3.61636,0.52938 -3.20117,1.20117 1.23738,2.00214 9.10048,2.90031 13.12304,1.49805 2.07977,-0.72501 3.78321,-1.11284 3.78321,-0.86133 0,0.2515 -1.36101,3.17594 -3.02344,6.49805 -3.75192,7.49766 -6.05873,19.78034 -4.98047,26.52344 0.97984,6.12754 2.38901,5.73275 3.46094,-0.97071 0.88877,-5.55807 4.57265,-14.52364 7.5039,-18.26367 1.82774,-2.33202 1.96095,-1.86648 1.99805,6.91602 0.045,10.67253 2.25442,20.59241 5.74414,25.79687 l 2.37109,3.53711 0.92774,-9.04297 c 1.61026,-15.71155 7.19615,-22.32595 18.60156,-22.02929 5.69183,0.14804 10.14158,3.0631 13.1211,8.5957 1.28906,2.39369 2.71808,4.35156 3.17578,4.35156 1.25428,0 3.52921,-14.36828 2.74804,-17.35547 -0.37481,-1.4333 -0.33638,-3.50229 0.084,-4.59765 0.62064,-1.61738 1.37894,-1.26098 4.03906,1.90039 3.92061,4.65939 8.21455,7.02953 14.89648,8.22461 l 4.95704,0.88672 -5.28907,-3.89454 c -6.54776,-4.82225 -11.07882,-11.55678 -12.70508,-18.88281 -1.58705,-7.14945 -0.72824,-7.7387 10.60547,-7.25586 10.76811,0.45875 17.43898,4.26119 23.08008,13.15625 2.0258,3.19426 3.68214,4.99397 3.68164,4 0,-2.49244 -6.95083,-16.96604 -10.01953,-20.86719 -1.3826,-1.75769 -2.31235,-3.39865 -2.06445,-3.64648 1.6591,-1.65907 20.91024,9.56583 28.96094,16.88672 2.75,2.5007 1.28283,0.61444 -3.25977,-4.19141 -7.4414,-7.87251 -8.46325,-9.59243 -10.31055,-17.36523 -1.1277,-4.74498 -3.69402,-11.91686 -5.70312,-15.9375 -2.0091,-4.02065 -3.16,-7.31055 -2.5586,-7.31055 1.7017,0 13.12057,14.62688 17.48047,22.39063 2.1572,3.84156 3.61388,6.00225 3.23828,4.80078 -0.3755,-1.20146 0.36198,-4.01396 1.63868,-6.25 1.2767,-2.23603 2.68455,-6.13767 3.12695,-8.66992 0.6734,-3.85462 1.50719,-4.83659 5.12109,-6.0293 2.3741,-0.78352 4.67318,-2.00111 5.10938,-2.70703 0.4985,-0.8065 -0.16139,-0.77406 -1.77539,0.0898 -4.0709,2.1787 -8.97982,1.7363 -9.01172,-0.8125 -0.1079,-8.59874 -11.15471,-20.73327 -25.34961,-27.8457 -8.9089,-4.46384 -9.46633,-4.95761 -6.45703,-5.71289 5.3931,-1.3536 15.50857,0.44752 22.32617,3.97461 l 6.38477,3.30273 -3.75,-4.04687 c -2.0625,-2.22589 -7.125,-5.66502 -11.25,-7.64063 l -7.5,-3.5918 5.625,-0.006 c 3.0937,-0.004 7.875,-0.67623 10.625,-1.49219 l 5,-1.48438 -8.48438,-0.91015 c -8.4761,-0.90984 -17.34248,-4.37237 -17.23828,-6.73243 0.03,-0.6875 3.58017,-1.53124 7.88867,-1.875 l 7.83399,-0.625 -5.0586,-2.70898 c -2.782,-1.48948 -7.00752,-3.07441 -9.39062,-3.52148 -2.3831,-0.44708 -5.65749,-1.81086 -7.27539,-3.03125 -2.915,-2.19876 -2.87926,-2.21277 3.90234,-1.65039 6.299,0.52236 7.18033,0.25697 11.08203,-3.33204 l 4.24024,-3.90039 -3.75,1.87696 c -8.1371,4.07174 -18.08604,1.21071 -28.125,-8.08789 -3.1905,-2.95521 -4.54301,-4.83282 -3.125,-4.33789 11.97316,4.17887 21.56185,4.59818 29.47265,1.28906 1.4562,-0.60909 2.57341,0.50476 4.25781,4.24023 2.9433,6.52709 3.78904,5.69921 1.36524,-1.33594 -1.7534,-5.08919 -1.71872,-5.60783 0.51758,-7.98828 2.6414,-2.81163 6.7493,-11.81504 5.8164,-12.74804 -0.3253,-0.32528 -1.52341,1.37191 -2.66211,3.77148 -1.1387,2.39959 -3.09214,5.28487 -4.33984,6.41406 -2.1417,1.93821 -2.45016,1.72681 -5.53516,-3.79296 -1.7974,-3.21578 -3.26757,-6.0174 -3.26757,-6.22657 0,-0.20917 1.6875,0.10376 3.75,0.69531 5.4122,1.5522 4.60806,0.4969 -1.76954,-2.32421 -3.035,-1.34251 -6.18239,-3.68476 -6.99609,-5.20508 -0.8136,-1.52034 -4.99805,-6.79741 -9.29687,-11.72656 -6.52078,-7.47683 -7.64494,-9.42324 -6.78711,-11.74219 2.96688,-8.02021 4.92838,-22.44918 3.75976,-27.65039 l -1.21289,-5.40039 4.36719,4.21094 c 2.40134,2.31623 6.57519,7.51151 9.27539,11.54297 2.7002,4.03147 4.91016,6.74985 4.91016,6.04101 0,-2.37126 -4.92368,-12.80924 -8.54688,-18.11914 -6.94021,-10.17105 -10.39095,-16.1401 -8.74414,-15.12891 0.91552,0.56215 3.91602,2.53662 6.66602,4.38868 2.75,1.85205 8.31333,4.83308 12.36523,6.625 l 7.36719,3.25976 -0.69336,9.18945 c -0.8364,11.05829 -4.78559,20.91259 -10.15039,25.33008 l -3.88867,3.20313 4.21875,-2.31055 c 7.8522,-4.29819 13.90625,-17.08797 13.90625,-29.38281 l 0,-6.05274 7.1875,-0.0937 c 3.9531,-0.0519 11.9688,-0.85362 17.8125,-1.78125 l 10.625,-1.68554 -11.875,0.58789 c -16.0321,0.79426 -22.7028,-0.48145 -23.77539,-4.54688 -2.7421,-10.39296 -3.04544,-9.56313 3.79296,-10.37304 17.2211,-2.03959 32.59773,-17.3406 29.32813,-29.18164 -0.9487,-3.43597 -1.01261,-3.37093 -2.00781,1.96875 -2.3826,12.78436 -11.75009,19.95122 -27.55469,21.08203 -8.6062,0.61576 -8.74534,0.57506 -13.30274,-3.82032 -7.2802,-7.02143 -13.6876,-9.55169 -35.48242,-14.00976 -19.75992,-4.0418 -27.24804,-6.30152 -27.24804,-8.22461 0,-0.51031 3.79687,0.28191 8.4375,1.75976 7.00838,2.23187 11.29576,2.66822 25.3125,2.58008 9.28125,-0.0584 18.2812,-0.7155 20,-1.46093 2.3947,-1.03861 0.1851,-1.1926 -9.45313,-0.6543 -13.30918,0.74331 -16.28955,0.17285 -29.23633,-5.59766 -6.64236,-2.96058 -6.80298,-3.1409 -3.81054,-4.28711 3.72936,-1.42847 11.36514,-0.41209 16.38085,2.18164 1.99034,1.02925 3.61915,1.33218 3.61915,0.67383 0,-2.18669 -7.15019,-6.32663 -13.91016,-8.05664 -7.0812,-1.81221 -6.58948,-2.37108 3.4668,-3.93164 3.95462,-0.61369 7.36254,-0.0128 14.375,2.53516 32.14737,11.68086 32.63336,11.8136 42.94336,11.8125 7.9154,-8.2e-4 11.3029,-0.61632 16.25,-2.95508 5.9895,-2.83153 15.02771,-10.77149 12.26171,-10.77149 -0.7319,0 -1.97025,0.77106 -2.75195,1.71289 -0.7816,0.94183 -4.86873,3.2596 -9.08203,5.1504 -6.7499,3.02919 -8.79431,3.37303 -17.19531,2.88671 -7.8455,-0.45418 -11.53906,-1.47568 -20.84766,-5.76367 -6.2219,-2.86606 -13.48166,-5.96234 -16.13476,-6.88086 l -4.82422,-1.66992 6.78711,-2.18555 c 16.60546,-5.34652 26.33322,-17.51774 24.07812,-30.125 l -0.89453,-5 -0.87695,6.58204 c -0.9978,7.48964 -5.03881,13.63357 -11.65821,17.72461 -7.01896,4.33797 -19.44162,6.06718 -47.35547,6.59375 l -25.99414,0.49237 -3.98046,-7.46875 c -2.18945,-4.10781 -6.66346,-10.22444 -9.94336,-13.59179 -3.2799,-3.36735 -5.96289,-6.28808 -5.96289,-6.49024 0,-0.20216 2.86902,-0.70759 6.37695,-1.12305 6.56528,-0.77756 17.37305,-6.12131 17.37305,-8.58984 0,-0.76507 -1.06347,-0.43039 -2.36133,0.74414 -3.60461,3.26214 -14.5414,7.00195 -20.47656,7.00195 -7.87451,0 -24.80802,-6.48328 -33.73438,-12.91601 -4.29253,-3.09337 -14.27148,-10.70756 -22.17773,-16.92188 -19.08948,-15.00439 -26.08398,-18.65603 -40.37891,-21.07422 -16.58697,-2.80591 -41.49705,-2.72833 -54.24414,0.16797 l -10.2461,2.32813 -4.1289,-3.43555 c -11.2125,-9.33055 -20.2036,-24.44736 -21.70899,-36.49609 -1.0944,-8.75931 1.87387,-17.147867 7.00782,-19.802737 7.34414,-3.7978 11.44638,-1.67167 17.49804,9.068357 5.04343,8.9507 11.63161,17.09405 16.70703,20.65039 2.12764,1.49083 3.25137,1.88721 2.49805,0.88282 -0.75332,-1.00439 -3.74945,-4.88331 -6.6582,-8.6211 -2.90876,-3.73778 -7.55563,-10.92656 -10.32617,-15.97461 -5.56392,-10.137757 -9.18123,-12.855467 -17.11328,-12.855467 -6.50694,0 -12.0977,4.6244 -14.09571,11.656247 -2.34648,8.25831 -3.22126,7.94656 -4.16797,-1.480467 -0.89618,-8.92372 -0.2629,-16.18603 2.06836,-23.69531 0.70796,-2.28044 0.98368,-4.44992 0.61328,-4.82031 -0.3704,-0.3704 -1.9625,3.4644 -3.53906,8.52148 -2.3302,7.47456 -2.84652,11.88262 -2.76172,23.568357 0.0574,7.90625 0.66777,16.66724 1.35742,19.46875 1.22506,4.97635 0.84744,4.68882 -16.37695,-12.55859 -25.87186,-25.906447 -44.44244,-37.261587 -69.5957,-42.552737 -10.70297,-2.25143 -30.74881,-2.22584 -39.2832,0.0508 l -6.25,1.66796 6.25,-0.82226 c 21.91335,-2.87929 46.35058,2.16797 65.81445,13.5918 14.41544,8.46077 34.95379,27.952167 49.94726,47.404287 l 5.29883,6.875 -6.15625,-5.66992 c -3.38557,-3.11926 -11.50347,-10.71302 -18.03906,-16.875 -20.422,-19.254547 -36.64309,-29.741557 -52.15234,-33.714837 -13.79649,-3.5345 -24.13093,1.7853 -24.04883,12.38086 0.0675,8.713337 4.49971,12.052747 15.81445,11.916007 11.0965,-0.13411 14.22075,-2.21686 3.48633,-2.32422 -10.84632,-0.10907 -14.33984,-2.114367 -14.33984,-8.234367 0,-12.68548 17.96312,-13.67951 34.61718,-1.91602 11.50612,8.12726 26.04923,23.431007 29.35352,30.888667 4.09543,9.24325 7.37538,22.92383 5.49609,22.92383 -0.84286,0 -2.83489,1.38849 -4.42773,3.08399 l -2.89649,3.08203 -12.13867,-11.51953 c -13.23805,-12.56296 -23.03083,-18.97466 -37.55273,-24.58399 -21.8133,-8.42576 -44.68072,-12.53566 -69.95117,-12.57226 -9.28125,-0.0134 -18.04619,-0.33858 -19.47657,-0.72266 -1.58413,-0.42537 -5.4147,-5.310567 -9.80078,-12.498047 -7.66373,-12.55854 -15.22717,-20.98132 -22.12109,-24.63672 -1.88307,-0.99847 -2.85484,-1.49882 -3.00781,-1.50781 z m 74.13867,58.617187 c 0.0703,0.001 0.16015,0.0128 0.26758,0.0332 1.71875,0.3265 6.22044,0.92752 10.00585,1.33594 8.98383,0.9693 16.11032,5.06618 19.63477,11.28906 4.73255,8.35597 3.97486,8.6345 -5.87109,2.16016 -3.76999,-2.47901 -11.36374,-6.95348 -16.875,-9.94336 -5.16682,-2.80301 -8.21723,-4.89366 -7.16211,-4.875 z m 229.64258,36.47656 c 11.47391,-0.0256 17.90829,2.39177 32.59765,12.2461 9.88092,6.62859 8.93863,6.8083 -9.86719,1.89258 -7.49313,-1.95866 -21.14405,-4.26345 -30.625,-5.17188 l -17.10546,-1.63867 7.5,-3.6543 c 6.36014,-3.0976 9.01981,-3.65486 17.5,-3.67383 z m -8.09375,14.3418 c 11.12979,-0.0711 26.26048,1.67979 41.91406,4.84961 10.40201,2.10638 12.19595,2.93477 22.11523,10.2207 5.93736,4.36112 10.68709,8.00838 10.55469,8.10547 -0.80148,0.58772 -19.63751,1.32072 -22.74023,0.88477 -10.43165,-1.4657 -36.76081,-11.32009 -53.75,-20.11719 l -7.5,-3.88281 z m -296.32618,96.98242 c 0.7451,-0.0331 1.29493,1.11699 1.29493,3.46875 0,1.57558 0.61166,4.62491 1.36132,6.77539 1.78507,5.12063 1.16027,6.4239 -2.32617,4.84375 -3.64067,-1.65007 -4.66292,-5.82068 -2.80469,-11.45117 0.78772,-2.38681 1.72952,-3.60357 2.47461,-3.63672 z m 496.71289,19.60157 c 0.0516,-7.9e-4 0.1211,0.01 0.20704,0.0312 4.5332,1.136 7.45476,1.83239 10.91406,2.60156 2.0535,0.45662 4.1712,2.22279 5.3125,4.42969 3.5638,6.89165 2.55244,6.74924 -9.35156,-1.31055 -4.83404,-3.27293 -7.85623,-5.74024 -7.08204,-5.75195 z m -12.40625,20.44335 c 0.17763,0.005 0.42424,0.47429 0.77149,1.3379 2.47668,6.15959 2.75485,14.94477 0.69531,22.02929 -1.12656,3.87524 -2.45476,7.01807 -2.95117,6.98437 -0.49643,-0.0338 -2.77128,-1.38192 -5.05469,-2.99609 -2.51095,-1.77501 -3.61279,-3.26901 -2.78711,-3.7793 3.35247,-2.07195 8.79276,-13.96447 8.88086,-19.41406 0.0467,-2.89071 0.14927,-4.17077 0.44531,-4.16211 z m -503.91796,16.66211 c 1.955,0 -1.64417,3.6841 -10.34375,10.58594 -9.50873,7.5438 -12.04703,9.2146 -10.71094,7.05273 1.45239,-2.35 19.70193,-17.63867 21.05469,-17.63867 z m 489.96484,22.69141 c 0.71419,0.037 1.81225,0.3851 3.32031,1.00976 3.34117,1.38396 3.57382,1.83468 2.33985,4.54297 -1.77667,3.89935 -2.39007,3.78659 -5.07032,-0.92187 -1.87318,-3.29068 -2.16106,-4.71231 -0.58984,-4.63086 z m 11.58398,5.0664 c 0.79266,0.005 1.7898,0.45472 3.47266,1.26758 5.01592,2.42282 14.33524,9.80399 11.99414,9.5 -0.9539,-0.12388 -5.94788,-0.54574 -11.09766,-0.9375 -10.40062,-0.79122 -11.83564,-2.23391 -7.43554,-7.48047 1.36637,-1.62922 2.04727,-2.35636 3.0664,-2.34961 z m -522.99804,2.8086 c 0.3314,0.11185 -1.67943,3.98702 -4.70313,9.0293 -6.74286,11.24434 -6.6914,11.1723 -6.6914,9.74804 0,-1.55397 9.80472,-17.82585 11.29687,-18.74804 0.0433,-0.0268 0.0756,-0.0368 0.0977,-0.0293 z m 533.54492,11.93359 9.93945,0 3.625,5.3125 c 1.9938,2.92187 4.29012,6.57812 5.10352,8.125 1.4362,2.73112 1.30644,2.8136 -4.50196,2.8086 -3.8379,-0.002 -7.54836,-0.94364 -10.35546,-2.62305 -4.85474,-2.90445 -13.75,-11.07321 -13.75,-12.62695 0,-0.54797 4.47248,-0.9961 9.93945,-0.9961 z m -657.85742,6.92383 0.8223,6.84961 c 1.933,16.10252 0.7361,22.92798 -5.0938,29.03906 -4.8429,5.07647 -5.7663,4.36894 -4.8984,-3.75 0.4225,-3.95313 2.6579,-12.80218 4.9687,-19.66406 z m -3.6914,45.625 c 1.1935,0.0242 1.0426,1.17125 -0.2656,3.70117 -2.3488,4.54192 -2.6708,4.60639 -3.42,0.6875 -0.37,-1.93567 0.074,-3.31536 1.2071,-3.75 1.116,-0.42827 1.936,-0.64965 2.4785,-0.63867 z m 122.36327,23.89453 c 0.26227,-0.0123 0.49392,-0.005 0.68945,0.0234 2.46288,0.35435 1.76238,1.26332 -5.23632,6.78125 -4.4452,3.50467 -9.7028,7.41338 -11.6836,8.6875 l -3.6016,2.3164 0.8907,-3.0625 c 1.5658,-5.37832 5.0338,-9.23396 10.9902,-12.22265 2.7903,-1.40005 6.11527,-2.437 7.95117,-2.52344 z m 554.50195,10.00977 c 5.61173,0.13866 13.46958,4.49595 17.16211,9.68164 4.047,5.68346 3.34224,6.39268 -3.04296,3.05664 -2.0625,-1.07759 -7.39095,-4.29066 -11.83985,-7.13867 l -8.08789,-5.17774 4.7168,-0.39258 c 0.35225,-0.0293 0.71768,-0.0385 1.09179,-0.0293 z m 12,16.42773 c 2.33212,0.14692 9.72441,2.79484 10.53711,3.94531 0.5051,0.71506 0.91797,3.54883 0.91797,6.29883 0,8.52724 -1.51793,8.32179 -7.17382,-0.9707 -2.9359,-4.82354 -5.15831,-8.95106 -4.9375,-9.17188 0.0927,-0.0927 0.32309,-0.12255 0.65624,-0.10156 z m -8.40624,10.24414 1.9121,3.5293 c 2.6943,4.97066 5.54745,13.3692 4.49414,13.22851 -0.48509,-0.0649 -3.13085,-1.47064 -5.88085,-3.12304 -2.75,-1.6524 -7.9531,-3.95103 -11.5625,-5.10938 -3.6094,-1.15835 -6.5625,-2.56695 -6.5625,-3.1289 0,-1.67092 8.49486,-1.15991 13.16406,0.79101 l 4.33594,1.81055 0.0488,-3.99805 z m -427.44336,15.88281 c -5.57219,-0.0571 -9.81728,0.4595 -13.7793,1.47852 -14.27599,3.67174 -31.05793,16.07833 -42.22461,31.21484 -5.98735,8.1159 -6.8508,10.7843 -2.58984,7.9961 1.54687,-1.01222 5.72163,-3.6306 9.27929,-5.81836 9.40093,-5.78102 20.25904,-9.88995 30.22071,-11.43555 11.16192,-1.73184 20.89944,-0.4147 51.88476,7.01172 12.9656,3.10752 27.93915,6.19637 33.27344,6.86523 22.22477,2.78675 41.49133,-4.67675 49.67187,-19.24218 2.38196,-4.24106 2.01968,-4.5776 -4.95507,-4.5918 -11.16481,-0.0228 -39.09848,-3.39089 -67.03125,-8.08398 -21.4894,-3.61051 -34.46303,-5.29937 -43.75,-5.39454 z m 271.71289,1.0293 c -1.89955,0.0176 -4.22142,0.11714 -7.21485,0.26367 -9.40139,0.46022 -17.95672,1.97781 -32.35937,5.74024 -19.82576,5.17914 -40.64368,7.66476 -64.48242,7.69726 -10.66666,0.0145 -11.06998,0.77456 -4.77149,9.02344 4.88123,6.39276 13.9742,12.6236 21.33399,14.61914 12.2739,3.32796 29.59169,0.36446 58.34179,-9.98242 17.64837,-6.35149 29.81189,-8.79846 37.04883,-7.45508 7.28527,1.35236 17.5388,8.66658 27.55664,19.65625 4.56552,5.00843 8.39722,9.11651 8.51367,9.12891 0.1165,0.0125 -0.35409,-2.08789 -1.04492,-4.66602 -4.46092,-16.64779 -18.08065,-34.9574 -30.53906,-41.05273 -4.7898,-2.34343 -6.68418,-3.02538 -12.38281,-2.97266 z m -476.86911,42.12695 2.6308,3.34571 c 2.466,3.13503 2.5367,3.85338 1.1094,11.41797 -0.8378,4.4401 -2.0232,8.07226 -2.6328,8.07226 -0.6097,0 -1.1074,-5.13775 -1.1074,-11.41797 z m -4.8028,18.46094 1.8633,5.26563 c 1.7518,4.9463 0.9597,10.46355 -1.1934,8.31054 -0.4775,-0.47755 -0.8238,-3.72785 -0.7695,-7.22265 z m -5.8535,16.7168 c 0.3945,-0.0507 0.9555,0.35026 1.5723,1.33789 0.9731,1.55823 1.0817,2.73292 0.2988,3.2168 -0.6783,0.4192 -1.5631,-0.0982 -1.9668,-1.15039 -0.7593,-1.9788 -0.5617,-3.3198 0.096,-3.4043 z m 496.69338,153.20117 c -0.58415,0.11532 -1.94578,3.23242 -3.14649,7.26367 l -2.32812,7.81836 -8.48438,0.625 -8.48437,0.625 6.32812,4.71289 c 3.48009,2.5914 6.32813,5.17364 6.32813,5.74024 0,0.5665 -1.09562,4.21276 -2.4336,8.10156 -1.33797,3.8889 -2.08258,7.07031 -1.65429,7.07031 0.42827,0 3.7408,-2.0397 7.36132,-4.5332 l 6.58399,-4.5332 6.3789,4.68164 c 3.50897,2.5758 6.61655,4.4479 6.90625,4.1582 0.28969,-0.2897 -0.51034,-3.95734 -1.77929,-8.14844 l -2.30664,-7.61914 6.98437,-5.12695 6.98438,-5.12891 -8.81446,0 -8.8164,0 -2.28907,-7.55859 c -1.25891,-4.1578 -2.70479,-7.81676 -3.21289,-8.13086 -0.0317,-0.0196 -0.0665,-0.0253 -0.10546,-0.0176 z m -532.28708,3 0,9.47852 0,9.47851 7.875,0 c 4.4583,0 8.5258,0.6508 9.375,1.5 2.1595,2.1596 2.1595,116.0905 0,118.25 -0.8492,0.8492 -4.9167,1.5 -9.375,1.5 l -7.875,0 0,9.375 0,9.375 46.7636,0 c 35.8039,0 49.0004,-0.42742 56.3008,-1.82422 22.61941,-4.3278 33.48297,-16.28868 35.29885,-38.86328 1.67698,-20.8476 -8.2909,-34.61031 -29.90625,-41.29101 l -7.1699,-2.21485 7.5742,-2.48437 c 9.76176,-3.2005 18.86982,-11.19484 21.95507,-19.27344 3.08059,-8.0664 2.88357,-21.63323 -0.42187,-29.04883 -4.6678,-10.4719 -12.50195,-16.16671 -28.5977,-20.79101 -6.2365,-1.7917 -14.9573,-2.21609 -54.6093,-2.65039 z m 53.75,18.95703 12.8125,0.01 c 7.0468,0 15.0361,0.6243 17.7539,1.3789 10.3586,2.8759 16.7217,13.96398 15.2363,26.54688 -1.7023,14.4195 -9.2986,19.39171 -31.2871,20.47461 l -14.5156,0.71484 0,-24.56055 0,-0.004 z m 146.77926,24.25391 c -14.45748,-0.41055 -28.17313,4.69415 -38.67968,14.63086 -23.26873,22.0066 -23.92742,70.05584 -1.24805,90.96094 6.95265,6.40869 16.34695,10.95183 25.70117,12.42773 9.75427,1.539 6.78069,2.03157 -38.80273,6.42187 -82.70037,7.9652 -113.39307,10.22656 -148.40817,10.93946 -39.1205,0.7963 -48.4864,-0.0741 -72.2168,-6.71485 -4.3726,-1.2237 -0.4938,1.67688 7.5,5.60938 17.2296,8.4761 46.0057,15.13805 76.289,17.66015 22.4544,1.87011 74.8648,0.50609 115.58597,-3.00781 44.67261,-3.8549 76.89652,-6.87797 133.75,-12.54687 84.71883,-8.4473 123.26755,-11.08138 194.16796,-13.26758 103.25044,-3.1836 193.45165,2.01162 265.0293,15.26562 7.4651,1.3823 13.81257,2.27327 14.10547,1.98047 1.9747,-1.9747 -73.94522,-23.34212 -82.99023,-23.35742 -3.77131,-0.01 -3.55998,-1.76333 0.43164,-3.58203 5.39526,-2.4582 11.27677,-7.47253 14.90429,-12.70703 3.7089,-5.3519 8.10157,-17.29936 8.10157,-22.03516 0,-2.8264 -0.35159,-2.93164 -9.83789,-2.93164 l -9.8379,0 -1.63281,5.83399 c -2.11084,7.5392 -10.03359,15.91589 -16.8164,17.77929 -20.90515,5.7431 -36.875,-7.26807 -36.875,-30.04297 l 0,-6.0332 37.8125,-0.33008 37.8125,-0.33203 0.38281,-6.01758 c 0.904,-14.1582 -6.58888,-32.63069 -17.30078,-42.65039 -25.02155,-23.4048 -67.57723,-16.38067 -83.98633,13.86133 -12.09216,22.28584 -8.70727,59.32381 6.9375,75.91211 l 4.26172,4.51953 -7.96094,0 -7.95898,0 0,-4.375 0,-4.375 -7.98829,0 c -14.09976,0 -13.22505,3.2185 -13.58203,-50 l -0.30468,-45.625 -24.375,0 -24.375,0 -0.37305,7.8125 -0.37305,7.8125 7.61719,0 c 6.45684,0 8.09197,0.4767 10.74023,3.125 l 3.125,3.12305 -0.36914,34.9414 c -0.28035,26.6044 -0.75488,35.3266 -1.99218,36.5625 -2.36158,2.3587 -32.82516,2.28001 -35.6836,-0.0918 -1.81714,-1.5081 -2.07074,-5.3627 -2.08984,-31.875 -0.024,-33.35704 -1.42443,-44.057 -6.84375,-52.2461 -6.7537,-10.2055 -20.35504,-14.93239 -35.42188,-12.30859 -10.95313,1.9074 -18.89695,6.39105 -27.18554,15.34375 l -6.77539,7.31836 0,-10.07031 0,-10.07227 -22.59766,0 -22.59766,0 4.35938,5.09571 c 2.39833,2.8019 4.69906,6.43747 5.11133,8.08007 0.41228,1.6426 2.14959,4.38791 3.86132,6.09961 l 3.11329,3.11133 0,34.43164 c 0,41.2656 0.66853,39.43164 -14.375,39.43164 l -9.375,0 0,4.375 0,4.375 -10.625,0 -10.625,0 0,-4.375 0,-4.375 -9.80665,0 c -14.88224,0 -14.56935,0.66924 -14.56835,-31.07226 7.5e-4,-21.3837 0.37653,-26.87784 2.19531,-32.08594 5.02665,-14.3935 14.17898,-21.99768 26.61133,-22.10938 3.84329,-0.034 7.62398,0.57522 8.40234,1.35352 1.05356,1.0536 0.85676,1.41406 -0.77148,1.41406 -3.83661,0 -9.46034,3.67339 -11.41797,7.45899 -6.08691,11.7708 4.99417,24.57561 18.99414,21.94922 12.30854,-2.3091 18.66992,-19.10506 12.13281,-32.03516 -6.46002,-12.7777 -26.70839,-18.29309 -39.54297,-10.77149 -3.22329,1.889 -8.27783,6.53562 -11.23242,10.32422 l -5.37109,6.88672 -0.36915,-8.80664 -0.36718,-8.80664 -25.25782,0.33789 -25.25585,0.33789 -0.37305,7.8125 -0.37305,7.8125 8.53321,0 c 14.89528,0 14.08789,-2.29284 14.08789,40 0,42.2749 0.79664,40 -14.0293,40 l -8.4707,0 0,7.33985 0,7.33789 -9.0625,0.81445 c -4.98438,0.448 -12.15625,1.12892 -15.9375,1.51172 l -6.875,0.69531 7.54882,-3.67187 c 12.4456,-6.0527 20.8194,-17.79845 23.58985,-33.08985 l 0.84961,-4.6875 -10.09766,0 c -8.52127,0 -10.20211,0.3412 -10.7793,2.1875 -5.30038,16.9553 -14.77739,23.905 -30.63867,22.4668 -8.50009,-0.7708 -14.87464,-4.25456 -18.48828,-10.10156 -2.95147,-4.7756 -6.35937,-17.06886 -6.35937,-22.93946 l 0,-4.11328 37.97851,0 37.97852,0 0.64258,-3.36133 c 0.92459,-4.8367 -1.14716,-17.83273 -4.10352,-25.73437 -6.86758,-18.3552 -19.34164,-29.14726 -38.11914,-32.97656 -3.38521,-0.69034 -6.76132,-1.07909 -10.09766,-1.17382 z m 421.00977,17.04687 c 8.7367,0.20336 16.97691,6.63115 19.44336,17.31641 0.83459,3.6156 1.51758,7.93722 1.51758,9.60352 l 0,3.02929 -21.875,0 -21.875,0 0,-3.70312 c 0,-6.29944 4.81232,-17.12496 9.4082,-21.16016 4.09051,-3.59153 8.80449,-5.19246 13.38086,-5.08594 z m -423.47852,0.24805 c 3.19019,-0.12189 6.52341,0.50684 9.79297,1.95312 7.02532,3.10761 10.85925,9.74261 11.83203,20.47071 l 0.66016,7.27734 -21.34961,0 c -11.89458,0 -21.66986,-0.51687 -22.07227,-1.16797 -1.05026,-1.6993 1.49027,-12.02518 4.32618,-17.58398 3.4615,-6.78515 9.79213,-10.68107 16.81054,-10.94922 z m 230.72266,2.36328 c 1.04833,-0.0233 2.1394,0.004 3.2793,0.0762 6.5595,0.4177 8.51075,1.09511 11.54687,4.00391 5.45995,5.231 6.39063,11.3411 6.39063,41.99414 l 0,27.62695 -3.06836,3.06836 c -2.44676,2.4468 -4.34554,3.06836 -9.375,3.06836 -6.17424,0 -6.30664,0.079 -6.30664,3.75 0,3.5417 -0.27778,3.75 -5,3.75 -4.72222,0 -5,-0.2083 -5,-3.75 0,-3.7121 -0.0695,-3.75 -6.875,-3.75 -5.20834,0 -7.48106,-0.606 -9.375,-2.5 -2.34151,-2.3415 -2.5,-4.16556 -2.5,-28.78906 0,-29.09294 0.61036,-32.17911 7.875,-39.75781 5.79148,-6.04188 11.06989,-8.62806 18.4082,-8.79102 z m -375.03317,22.33789 9.6875,0.01 c 20.7106,0.02 32.937,4.00486 38.1855,12.44336 2.303,3.7026 2.752,6.25317 2.752,15.67187 0,13.3614 -2.3013,18.26323 -10.877,23.17383 -4.8567,2.781 -7.0282,3.11897 -22.5605,3.50977 l -17.1875,0.43164 0,-27.61914 z m 396.84762,99.37305 c -40.75112,-0.009 -80.4514,0.5225 -94.34765,1.59766 -25.48704,1.97229 -55.0624,4.86267 -130.625,12.76367 -186.32727,19.4828 -216.93357,20.93683 -252.18747,11.98633 -6.3595,-1.6146 -11.719,-2.79686 -11.9102,-2.62696 -0.888,0.7892 17.6434,9.47625 26.4668,12.40625 36.6899,12.1836 84.7189,15.16347 161.38087,10.01367 31.77651,-2.1346 76.14865,-5.77744 113.75,-9.33984 140.70684,-13.3307 168.498,-15.16164 255.625,-16.83984 85.75635,-1.6517 177.58033,4.86005 238.86523,16.93945 7.0193,1.3835 12.94392,2.33343 13.16602,2.11133 1.0484,-1.0484 -31.14378,-11.65288 -50.14258,-16.51758 -44.213,-11.3207 -76.59936,-15.30817 -169.38867,-20.85547 -18.09927,-1.08205 -59.90123,-1.63015 -100.65235,-1.63867 z m -40.7207,63.12695 c -2.72759,0 -14.17864,5.12427 -18.04883,8.07617 -15.41127,11.7548 -15.44797,39.69872 -0.0606,46.39842 5.34944,2.3291 11.81282,2.1705 16.95704,-0.414 6.53746,-3.2846 10.02539,-9.3336 10.02539,-17.3887 0,-5.8959 -0.52003,-7.2735 -4.28125,-11.377 -3.78391,-4.1283 -4.93253,-4.655 -9.92188,-4.5507 -3.10364,0.065 -7.1156,1.0821 -8.91602,2.2617 l -3.27343,2.1445 1.95312,-3.7754 c 2.03889,-3.94279 10.05111,-9.33485 16.07617,-10.81835 2.39935,-0.5908 3.28822,-1.44627 2.80664,-2.70117 -0.38767,-1.0103 -1.04558,-3.1908 -1.46093,-4.8457 -0.41535,-1.6549 -1.24988,-3.00977 -1.85547,-3.00977 z m -134.26758,1.16797 c -3.69848,0.12741 -7.43156,0.96033 -10.66016,2.60742 -5.53941,2.826 -5.77122,3.51241 -2.99609,8.87891 1.85701,3.591 2.09919,3.68566 4.84766,1.88476 2.83308,-1.8563 6.61208,-2.62052 11.04101,-2.23242 1.22013,0.1069 2.77188,1.64743 3.44727,3.42383 1.86177,4.89692 -1.45614,10.50922 -12.06641,20.41802 -8.56145,7.9954 -9.22265,8.9839 -9.22265,13.7343 l 0,5.1172 18.125,0 18.125,0 0,-5.625 0,-5.625 -10,0 c -5.5,0 -10,-0.4425 -10,-0.9844 0,-0.5419 2.57309,-3.138 5.71875,-5.7675 11.66154,-9.7478 15.32798,-18.29466 11.8125,-27.54106 -2.06457,-5.43022 -10.03522,-8.56936 -18.17188,-8.28906 z m 45.01563,0.082 c -6.62526,0 -7.52682,0.3589 -11.88477,4.7168 -5.60869,5.6087 -7.49459,11.5466 -7.42969,23.40822 0.0749,13.6762 3.79338,21.5824 11.81446,25.123 5.14845,2.2726 9.09741,2.1072 15.13085,-0.6328 6.29563,-2.859 10.12071,-9.9379 11.25977,-20.8359 1.21209,-11.5966 -1.32432,-21.38099 -7.01953,-27.07619 -4.34351,-4.3435 -5.24935,-4.70313 -11.87109,-4.70313 z m 48.83007,0 c -0.61433,0 -17.33838,3.39583 -21.64257,4.39453 -2.40878,0.559 -2.8125,1.47055 -2.8125,6.33985 0,4.816 0.33452,5.59006 2.1875,5.06836 1.20312,-0.3388 4.01562,-0.9839 6.25,-1.4336 l 4.0625,-0.81836 0,20.09964 0,20.0996 6.25,0 6.25,0 0,-26.875 c 0,-14.78122 -0.24612,-26.87502 -0.54493,-26.87502 z m -48.13476,10.19727 c 4.5827,0.27731 6.57774,6.90954 5.9082,19.66605 -0.47612,9.0709 -0.94405,10.8359 -3.4043,12.8281 -3.16233,2.5607 -3.77765,2.6971 -5.93359,1.3262 -2.70834,-1.7221 -4.14165,-7.8168 -4.12305,-17.5371 0.0217,-11.36785 1.77992,-15.69526 6.60157,-16.25396 0.32847,-0.0381 0.64565,-0.0478 0.95117,-0.0293 z m -294.44528,16.67775 -0.4004,2.8125 -0.3985,2.8125 105.79887,0 105.79882,0 -0.40039,-2.8125 -0.39843,-2.8125 -105,0 z m 414.99997,0 -0.40039,2.8125 -0.39844,2.8125 105.79883,0 105.79882,0 -0.40039,-2.8125 -0.39843,-2.8125 -105,0 z m -41.45704,2.123 c 3.64951,-0.091 5.83204,2.4361 5.83204,7.1368 0,8.585 -6.31172,11.736 -11.16016,5.5722 -3.92976,-4.9958 -3.43215,-9.8057 1.21484,-11.7305 1.51618,-0.628 2.89678,-0.9483 4.11328,-0.9785 z"
       style="color:#000000;clip-rule:nonzero;display:inline;overflow:visible;visibility:visible;opacity:1;isolation:auto;mix-blend-mode:normal;color-interpolation:sRGB;color-interpolation-filters:linearRGB;solid-color:#000000;solid-opacity:1;fill:#ffffff;fill-opacity:1;fill-rule:nonzero;stroke:none;stroke-width:1;stroke-linecap:butt;stroke-linejoin:miter;stroke-miterlimit:4;stroke-dasharray:none;stroke-dashoffset:0;stroke-opacity:1;marker:none;color-rendering:auto;image-rendering:auto;shape-rendering:auto;text-rendering:auto;enable-background:accumulate" />
  </g>
</svg>
