<?xml version="1.0" encoding="UTF-8" standalone="no"?>
<!-- Created with Inkscape (http://www.inkscape.org/) -->

<svg
   version="1.1"
   id="svg2"
   xml:space="preserve"
   width="128"
   height="128"
   viewBox="0 0 128 128"
   sodipodi:docname="destiny-dark.svg"
   inkscape:version="1.1 (c68e22c387, 2021-05-23)"
   xmlns:inkscape="http://www.inkscape.org/namespaces/inkscape"
   xmlns:sodipodi="http://sodipodi.sourceforge.net/DTD/sodipodi-0.dtd"
   xmlns="http://www.w3.org/2000/svg"
   xmlns:svg="http://www.w3.org/2000/svg"><defs
     id="defs6" /><sodipodi:namedview
     id="namedview4"
     pagecolor="#ffffff"
     bordercolor="#666666"
     borderopacity="1.0"
     inkscape:pageshadow="2"
     inkscape:pageopacity="0.0"
     inkscape:pagecheckerboard="0"
     showgrid="false"
     width="128px"
     inkscape:zoom="3.9235043"
     inkscape:cx="39.887812"
     inkscape:cy="41.926805"
     inkscape:window-width="1920"
     inkscape:window-height="1019"
     inkscape:window-x="0"
     inkscape:window-y="30"
     inkscape:window-maximized="1"
     inkscape:current-layer="g10" /><g
     id="g8"
     inkscape:groupmode="layer"
     inkscape:label="ink_ext_XXXXXX"
     transform="matrix(1.3333333,0,0,-1.3333333,0,575.06667)"><g
       id="g10"
       transform="matrix(0.0206735,0,0,0.0206735,-3.0841762e-6,338.7177)"><path
         d="m 1583.15,3948.86 c 4.09,-336.88 0,-661.13 0,-1028.2 0,-109 -5.45,-218.27 0,-320.2 26.41,-493.42 491,-854.21 992.12,-671.94 242.7,88.26 441.08,299.55 478.03,590.76 23.26,183.18 4.51,461.46 4.51,708.03 0,164.87 0,350.95 0,536.66 0,51.32 -5.18,141.96 0,175.86 0,0 134.17,73.67 162.36,90.2 163.21,95.71 294.31,201.77 491.55,257.05 323.83,90.76 580.52,-74.39 726.05,-225.48 160.45,-166.56 267.18,-455.88 166.86,-753.13 C 4520.11,3058.03 4315.6,2943.61 4113.09,2803.4 3721.46,2532.27 3420.71,2167.31 3233.69,1685 3143.94,1453.52 3091.64,1148.36 3062.33,868.75 3045.06,703.98 3036.5,567.059 2985.66,444.832 2893.74,223.859 2706.21,42.4414 2426.46,7.40234 1951.75,-52.0508 1662.77,254.082 1601.19,661.309 1577.92,815.199 1571.98,967.762 1551.58,1112.27 1450.89,1825.89 1113.59,2345.4 649.648,2708.7 370.57,2927.23 -11.3242,3073.2 0.257813,3556.52 3.875,3707.57 52.5352,3841.2 112.996,3939.83 c 119.598,195.12 327.586,367.65 640.379,369.8 369.905,2.54 549.735,-223.9 829.775,-360.77"
         style="fill:#100f0d;fill-opacity:1;fill-rule:nonzero;stroke:none"
         id="path12" /><path
         d="m 2300.19,3930.82 c 243.98,15.59 452.82,-159.49 500.57,-378.82 27.23,-125.01 9.03,-363.83 9.03,-496.06 0,-157.72 13.01,-354.7 -4.52,-500.57 -19.52,-162.43 -108.83,-281.76 -207.44,-347.26 -300.64,-199.65 -728.73,-21.61 -766.64,365.29 -17.58,179.45 0,353.34 0,532.15 0,173.93 -16.88,381.33 27.04,505.09 57.55,162.01 216.85,305.79 441.96,320.18"
         style="fill:#100f0d;fill-opacity:1;fill-rule:nonzero;stroke:none"
         id="path14" /></g></g></svg>
