<?xml version="1.0" encoding="UTF-8" standalone="no"?>
<svg version="1.1" width="128" height="128" viewBox="0 0 128 128" xmlns="http://www.w3.org/2000/svg" xmlns:svg="http://www.w3.org/2000/svg">
  <path d="M 64.491348,123.43 C 52.82812,123.81215 45.72758,115.73783 44.136241,105.21434 43.494812,100.97241 43.331094,96.767056 42.768775,92.783744 39.993291,73.113066 30.695724,58.792924 17.907329,48.778691 10.214645,42.75499 -0.31216166,38.731348 0.00709235,25.408809 0.10679881,21.245168 1.4481054,17.56168 3.1146854,14.84298 6.4113611,9.4645673 12.144491,4.7088078 20.766517,4.6495437 30.962814,4.5795295 35.919799,10.82132 43.639,14.59409 c 0.112739,9.285977 0,18.223816 0,28.341967 0,3.004546 -0.150228,6.016523 0,8.826187 0.727982,13.600944 13.53424,23.546047 27.347432,18.521841 6.689939,-2.432855 12.158259,-8.256999 13.176774,-16.284097 0.641154,-5.04929 0.124308,-12.720033 0.124308,-19.516644 V 19.690485 c 0,-1.414618 -0.142782,-3.913063 0,-4.847505 0,0 3.698338,-2.030667 4.475383,-2.486311 4.498826,-2.6382118 8.112584,-5.5617452 13.549433,-7.08552 8.92626,-2.5017664 16.00181,2.0505521 20.01329,6.215295 4.42275,4.591165 7.36477,12.566158 4.59948,20.759746 -2.32976,6.903287 -7.96705,10.057255 -13.54916,13.922094 -10.79514,7.4736 -19.085241,17.533634 -24.24038,30.828335 -2.473929,6.380663 -3.915547,14.792311 -4.723465,22.499659 -0.476042,4.541832 -0.711995,8.316012 -2.11338,11.685162 -2.533744,6.09104 -7.702932,11.09176 -15.414142,12.0576 -0.817825,0.10243 -1.615679,0.16549 -2.393225,0.19096 z M 64.099841,64.853631 c -6.565432,0.01098 -12.872652,-4.680178 -13.623726,-12.345473 -0.484587,-4.946474 0,-9.739716 0,-14.668549 0,-4.794317 -0.465264,-10.51123 0.745376,-13.922631 1.586344,-4.465748 5.977376,-8.428991 12.182453,-8.825646 6.725219,-0.429733 12.48184,4.396302 13.798053,10.442055 0.750583,3.445856 0.24889,10.028871 0.24889,13.673741 0,4.347497 0.358627,9.777201 -0.124582,13.798056 -0.538059,4.477324 -2.999848,7.766616 -5.717997,9.572098 -2.330728,1.547798 -4.939382,2.272051 -7.508467,2.276349 z" />
  <style>
    path { fill: #273445; }

    @media (prefers-color-scheme: dark) {
      path { fill: #fafafa; }
    }
  </style>
</svg>
