<?xml version="1.0" encoding="UTF-8" standalone="no"?>
<svg width="64" height="64" viewBox="0 0 64 64" version="1.1" xmlns="http://www.w3.org/2000/svg" xmlns:svg="http://www.w3.org/2000/svg">
  <path d="M 32,0 A 32,32 0 0 0 0,32 32,32 0 0 0 32,64 32,32 0 0 0 64,32 32,32 0 0 0 32,0 Z m 0,6.4 C 46.1385,6.4 57.6,17.86151 57.6,32 57.6,46.13849 46.1385,57.6 32,57.6 17.8615,57.6 6.4,46.13849 6.4,32 6.4,17.86151 17.8615,6.4 32,6.4 Z m 0,2.13333 C 19.03972,8.53333 8.53333,19.03971 8.53333,32 c 0,4.52375 1.28113,8.74725 3.49875,12.33063 2.58294,-0.34511 5.12973,-0.95772 7.58938,-1.81855 -0.44347,-0.48724 -0.85791,-1.00159 -1.23479,-1.54145 -1.6884,-2.41863 -2.67386,-5.30769 -2.90938,-8.24792 -0.47124,-5.88046 2.09776,-11.78879 6.25334,-15.97604 2.35755,-2.37555 5.29706,-4.28896 8.58937,-4.89063 1.64618,-0.30084 3.36288,-0.26651 4.97604,0.17854 1.61316,0.44505 3.11777,1.30885 4.26396,2.52813 1.17322,1.24805 1.94854,2.84596 2.29875,4.52271 0.35011,1.67674 0.28656,3.4271 -0.0881,5.09854 -0.74937,3.34288 -2.69557,6.30393 -4.92,8.90937 -3.38893,3.96941 -7.52893,7.28434 -12.1173,9.77063 1.73136,0.9599 3.68427,1.51057 5.66125,1.62396 2.6314,0.1509 5.27438,-0.46364 7.6773,-1.54667 2.40291,-1.08304 4.57841,-2.62121 6.57083,-4.34667 4.14753,-3.59179 7.55322,-8.0366 9.94666,-12.97333 C 51.81049,15.76085 42.74921,8.53333 32,8.53333 Z m 0.14917,4.74125 c -1.64962,-0.002 -3.28344,0.4781 -4.72792,1.27479 -2.88893,1.5934 -4.95266,4.36992 -6.46667,7.30126 -1.30578,2.52819 -2.27788,5.25811 -2.54937,8.09062 -0.27149,2.83252 0.19003,5.7757 1.58937,8.25333 0.6697,1.18574 1.54829,2.24965 2.57334,3.14667 0.49198,-0.21946 0.98175,-0.44771 1.46396,-0.68792 4.71086,-2.34681 8.94661,-5.69924 12.13333,-9.88791 1.79976,-2.36565 3.28946,-5.07373 3.62937,-8.02667 0.16996,-1.47647 0.0421,-2.99724 -0.45604,-4.3975 -0.49812,-1.40027 -1.37686,-2.67475 -2.56271,-3.57062 -1.31625,-0.99437 -2.97705,-1.49401 -4.62666,-1.49605 z m 23.10666,15.58438 c -2.20273,4.14916 -5.09615,7.93028 -8.52791,11.13833 -2.8808,2.69304 -6.18552,5.00867 -9.91209,6.29875 -3.72659,1.29008 -7.90694,1.49438 -11.58916,0.0827 -1.27862,-0.4902 -2.48166,-1.17052 -3.57084,-2 -2.49062,1.10323 -5.08721,1.96993 -7.74395,2.57333 4.3043,5.20118 10.8095,8.51459 18.08812,8.51459 12.96031,0 23.46667,-10.50638 23.46667,-23.46667 0,-1.06518 -0.0734,-2.11348 -0.21084,-3.14104 z" />
  <style>
    path { fill: #0d52bf; }

    @media (prefers-color-scheme: dark) {
      path { fill: #64baff; }
    }
  </style>
</svg>
