<?xml version="1.0" encoding="UTF-8" standalone="no"?>
<svg
   width="50"
   height="50"
   viewBox="0 0 50 49.999998"
   fill="none"
   version="1.1"
   id="svg42"
   sodipodi:docname="endless.svg"
   inkscape:version="1.2.2 (b0a8486541, 2022-12-01)"
   xmlns:inkscape="http://www.inkscape.org/namespaces/inkscape"
   xmlns:sodipodi="http://sodipodi.sourceforge.net/DTD/sodipodi-0.dtd"
   xmlns="http://www.w3.org/2000/svg"
   xmlns:svg="http://www.w3.org/2000/svg">
  <defs
     id="defs46" />
  <sodipodi:namedview
     id="namedview44"
     pagecolor="#ffffff"
     bordercolor="#000000"
     borderopacity="0.25"
     inkscape:showpageshadow="2"
     inkscape:pageopacity="0.0"
     inkscape:pagecheckerboard="true"
     inkscape:deskcolor="#d1d1d1"
     showgrid="false"
     inkscape:zoom="10.912015"
     inkscape:cx="-8.4310733"
     inkscape:cy="26.026357"
     inkscape:window-width="1728"
     inkscape:window-height="1011"
     inkscape:window-x="0"
     inkscape:window-y="0"
     inkscape:window-maximized="1"
     inkscape:current-layer="svg42" />
  <path
     d="m 43.800352,30.171423 c -2.281845,0 -6.241278,-1.118468 -11.546083,-3.250043 4.924489,-2.374396 8.858405,-3.611161 11.546083,-3.611161 2.904787,0 3.47363,1.303853 3.47363,3.553671 0,2.809027 -0.907513,3.307533 -3.47363,3.307533 z M 6.2028605,26.729642 c -2.9048907,0 -3.4737206,-1.303853 -3.4737206,-3.553636 0,-2.808984 0.9107652,-3.307531 3.4737206,-3.307531 2.2817405,0 6.2444575,1.115327 11.5460305,3.250055 -4.921362,2.37442 -8.8584395,3.611112 -11.5460305,3.611112 z M 43.800352,20.577953 c -4.055476,0 -9.638342,2.259384 -14.821852,4.930964 l -5.020359,-2.556585 c 4.103283,-2.284933 7.669743,-4.611391 9.647944,-5.93441 l 0.897826,-0.603997 c 0.183572,-0.14429 0.302565,-0.355173 0.331205,-0.58679 0.02881,-0.231618 -0.03503,-0.465211 -0.177617,-0.649939 l -0.508266,-0.722229 c -0.293957,-0.41544 -0.802134,-0.565638 -1.127943,-0.319569 l -0.198354,0.127825 c -1.572102,1.070562 -5.304807,3.553621 -9.663806,6.014305 -0.754015,0.425038 -1.48901,0.830943 -2.211263,1.214381 C 14.144154,18.615775 9.184444,17.145763 6.2028605,17.145763 3.3267359,17.145763 0,17.829622 0,23.182412 c 0,2.876168 1.0769497,6.282725 6.2028605,6.282725 4.0585685,0 9.6382755,-2.256116 14.8216255,-4.927698 l 5.023709,2.55657 c -3.879639,2.160193 -7.286214,4.355645 -9.309129,5.707461 l -1.16964,0.782828 c -0.197844,0.140986 -0.33223,0.354072 -0.374135,0.593401 -0.04191,0.239158 0.0122,0.4854 0.150478,0.685009 l 0.511318,0.722164 c 0.133182,0.19818 0.339599,0.335428 0.573832,0.38154 0.234284,0.04629 0.477248,-0.0026 0.675779,-0.135471 l 0.728551,-0.482484 c 1.818346,-1.230255 5.17056,-3.413053 9.00543,-5.579654 0.754245,-0.426113 1.491403,-0.83198 2.211493,-1.217637 6.806852,2.876237 11.766543,4.349293 14.745004,4.349293 C 46.673113,32.900459 50,32.213498 50,26.86389 50,23.987777 48.926144,20.577953 43.797176,20.577953"
     fill="#ee5a36"
     id="path2"
     style="stroke-width:0.167581" />
</svg>
