<?xml version="1.0" encoding="UTF-8" standalone="no"?>
<svg
   xmlns:dc="http://purl.org/dc/elements/1.1/"
   xmlns:cc="http://creativecommons.org/ns#"
   xmlns:rdf="http://www.w3.org/1999/02/22-rdf-syntax-ns#"
   xmlns:svg="http://www.w3.org/2000/svg"
   xmlns="http://www.w3.org/2000/svg"
   width="75.640778"
   height="48"
   viewBox="0 0 75.640779 48.000001"
   id="svg2"
   version="1.1">
  <defs
     id="defs4" />
  <metadata
     id="metadata7">
    <rdf:RDF>
      <cc:Work
         rdf:about="">
        <dc:format>image/svg+xml</dc:format>
        <dc:type
           rdf:resource="http://purl.org/dc/dcmitype/StillImage" />
        <dc:title></dc:title>
      </cc:Work>
    </rdf:RDF>
  </metadata>
  <path
     id="path4350"
     d="m 50.280599,2.1389418 c -0.02578,-2.96e-4 -0.04295,0.025479 -0.04295,0.073431 0,0.03645 0.01966,0.055509 0.05721,0.055509 0.03147,0 0.0572,0.017748 0.0572,0.039417 0,0.021673 0.02025,0.056179 0.04496,0.076693 0.03975,0.032986 0.04388,0.024284 0.03576,-0.075173 -0.005,-0.061851 -0.01933,-0.1087618 -0.03169,-0.1042683 -0.01243,0.0045 -0.04233,-0.011722 -0.06663,-0.036022 -0.0198,-0.019802 -0.03839,-0.029399 -0.05386,-0.029587 z"
     style="opacity:0.8;fill:#ff2a2a;fill-opacity:1" />
  <path
     id="path4172"
     d="M 49.244141 0 C 48.961817 0.00335025 48.388368 0.06996956 47.763672 0.38671875 C 48.247764 0.56110064 48.727094 0.73584017 49.044922 0.87890625 C 49.468411 1.0695343 49.761463 1.2322926 49.96875 1.3632812 C 50.17205 1.4917517 50.359758 1.6555893 50.367188 1.6621094 C 53.999749 5.1077108 57.336093 10.815942 57.457031 11.023438 C 57.467681 11.036547 57.477811 11.033035 57.488281 11.046875 C 57.498331 11.060195 57.49048 11.07985 57.5 11.09375 C 57.500419 11.09447 57.535156 11.146484 57.535156 11.146484 L 57.509766 11.125 C 57.683947 11.398485 57.7819 11.760831 57.751953 12.017578 C 57.750653 12.028578 57.747494 12.034252 57.746094 12.044922 C 57.289994 11.959132 56.877678 11.893496 56.414062 11.806641 C 56.414062 11.806641 56.402544 11.785496 56.402344 11.785156 L 56.400391 11.785156 C 56.361941 11.719956 52.899428 5.8548973 49.470703 2.6035156 C 49.470703 2.6035156 48.651284 1.8112914 44.251953 0.67773438 C 44.251953 0.67773438 43.959182 0.61427923 43.691406 0.64257812 C 43.423632 0.67087573 43.180976 0.79201265 43.277344 1.1660156 C 43.277344 1.1660156 45.448232 8.2915973 46.439453 9.3378906 C 46.439453 9.3378906 48.121707 10.872946 50.226562 12.523438 C 50.92828 13.073529 51.676978 13.637088 52.425781 14.160156 L 52.427734 14.162109 L 50.623047 15.978516 L 30.697266 6.9199219 C 30.697266 6.9199219 25.37128 4.7083697 19.498047 5.1601562 C 19.498047 5.1601562 9.3903301 5.6419801 6.0683594 12.714844 C 5.9043055 13.042043 5.6623137 13.182674 5.25 13.216797 C 3.8894659 13.36579 2.3282588 14.584801 1.234375 16.419922 C -0.33323547 19.04978 -0.41877505 22.03782 1.0429688 23.09375 C 1.9305802 23.731775 3.2144596 23.52038 4.4589844 22.595703 C 5.1384041 22.110222 5.3843419 22.300117 5.5058594 22.736328 C 7.7773061 28.62912 18.226565 32.523438 18.226562 32.523438 C 17.98845 33.376644 14.099609 39.169922 14.099609 39.169922 C 13.325782 40.439811 14.058594 40.916016 14.058594 40.916016 C 14.66799 41.30515 15.240893 41.707463 15.78125 42.111328 C 15.95199 42.239062 16.100072 42.366151 16.263672 42.494141 C 16.603186 42.759437 16.944886 43.024163 17.253906 43.287109 C 17.596844 43.579443 17.906334 43.865455 18.210938 44.148438 C 18.304437 44.235138 18.410139 44.324756 18.5 44.410156 C 18.878151 44.770213 19.227384 45.118878 19.541016 45.447266 C 20.947215 46.919628 21.699219 48 21.699219 48 L 31.421875 48 C 31.461555 47.464266 31.322266 46.353516 31.322266 46.353516 C 31.183376 45.579677 30.310547 45.361328 30.310547 45.361328 C 28.663656 45.063697 27.414065 44.25 27.414062 44.25 C 22.850386 41.650691 21.103516 39.427734 21.103516 39.427734 C 26.321979 31.947281 26.818359 29.705078 26.818359 29.705078 C 28.697157 23.110118 24.459123 19.158576 24.167969 18.896484 C 24.157779 18.887284 24.115234 18.845703 24.115234 18.845703 L 25.492188 18.03125 C 26.590474 19.213276 29.959611 23.460299 28.435547 29.644531 L 32.419922 32.357422 L 31.953125 39.427734 L 30.802734 40.304688 C 30.802734 40.304688 29.184018 39.593062 28.142578 39.894531 C 28.142578 39.894531 27.813747 40.744793 28.115234 42.169922 L 31.925781 42.826172 L 34.365234 41.291016 C 34.365234 41.291016 35.65394 38.743334 36.667969 35.673828 C 36.667969 35.673828 51.547762 43.128852 63.990234 32.029297 C 63.990234 32.029297 68.70501 31.23466 72.158203 29.398438 C 72.158203 29.398438 74.789078 27.314773 75.638672 23.751953 C 75.638672 23.751953 75.802684 22.161956 73.253906 20.517578 C 73.253906 20.517578 72.815149 20.299176 72.513672 18.435547 C 72.513672 18.435547 72.568552 17.475159 71.636719 16.378906 L 69.224609 14.242188 C 69.224609 14.242188 68.726982 13.653313 67.347656 13.482422 C 67.347656 13.482422 64.221577 13.042933 62 12.212891 C 61.544625 12.042753 61.084401 11.859269 59.314453 9.4667969 L 54.175781 2.875 C 54.175781 2.875 52.120627 0.31497749 49.427734 0.005859375 C 49.427734 0.005859375 49.361554 -0.00139321 49.244141 0 z M 66.804688 16.214844 C 66.963329 16.218944 67.092308 16.252282 67.183594 16.289062 C 67.270684 16.324153 67.335302 16.372223 67.341797 16.376953 C 67.389547 16.404613 69.778412 17.793797 70.261719 19.9375 C 70.281189 19.9832 70.392127 20.234753 70.472656 20.591797 C 70.516396 20.785719 70.549453 20.996734 70.539062 21.212891 C 70.528892 21.42434 70.469852 21.654239 70.298828 21.835938 C 70.279248 21.858957 70.244708 21.902738 70.181641 21.941406 C 70.102541 21.989896 69.991348 22.030644 69.857422 22.039062 C 69.590405 22.055843 69.249754 21.960392 68.769531 21.65625 C 68.768031 21.655299 68.767125 21.655299 68.765625 21.654297 C 68.739665 21.641217 67.869737 21.202855 66.929688 20.580078 C 66.452703 20.26408 65.96256 19.904648 65.560547 19.525391 C 65.158534 19.146134 64.831953 18.755973 64.724609 18.302734 L 64.722656 18.298828 C 64.615648 17.819836 64.853224 17.408736 65.072266 17.134766 C 65.291307 16.860795 65.529297 16.6875 65.529297 16.6875 L 65.535156 16.681641 C 66.058133 16.313621 66.488206 16.206546 66.804688 16.214844 z M 27.923828 31.175781 C 27.770644 31.535042 27.58311 31.94985 27.306641 32.482422 C 26.604375 33.835217 25.071403 36.275332 23.085938 39.208984 C 23.708901 39.850342 24.896081 40.901995 27.337891 42.373047 L 27.166016 40.693359 L 25.673828 39.607422 L 30.248047 32.753906 L 27.923828 31.175781 z M 55.554688 38.771484 C 55.501998 38.769484 55.440179 38.776322 55.367188 38.794922 C 55.367188 38.794922 50.739187 39.909404 48.414062 39.845703 C 48.414062 39.845703 47.553582 40.291763 47.542969 42.011719 C 47.542969 42.011719 48.190147 42.648188 52.224609 42.212891 C 52.224609 42.212891 53.340132 42.340449 54.773438 40.652344 C 54.773438 40.652344 55.697921 39.781702 55.835938 39.240234 C 55.835938 39.240234 55.923525 38.785707 55.554688 38.771484 z M 27.705078 42.595703 C 27.87944 42.698199 28.002284 42.78402 28.189453 42.890625 C 28.215953 42.905485 28.241998 42.92112 28.267578 42.9375 C 28.267578 42.9375 29.297964 43.586841 30.589844 43.820312 C 30.623926 43.826344 30.657796 43.833497 30.691406 43.841797 C 30.691406 43.841797 32.531967 44.230224 32.863281 46.076172 C 32.867901 46.103402 32.8718 46.130763 32.875 46.158203 C 32.875 46.158203 33.033807 47.073166 32.984375 47.998047 L 36.84375 47.998047 C 36.81766 46.916397 36.658203 46.132816 36.658203 46.132812 C 36.331121 45.633173 35.776185 45.396691 35.341797 45.285156 C 34.721779 45.125817 32.127856 44.096674 30.667969 43.255859 C 29.002331 42.981117 28.090826 42.714568 27.705078 42.595703 z "
     style="fill:#ffffff;fill-rule:evenodd;stroke:none;stroke-width:1px;stroke-linecap:butt;stroke-linejoin:miter;stroke-opacity:1" />
</svg>
