<?xml version="1.0" encoding="UTF-8" standalone="no"?>
<svg height="128" width="128" version="1.1" id="svg120" sodipodi:docname="jimmac.svg" inkscape:version="1.1 (c68e22c387, 2021-05-23)" xmlns:inkscape="http://www.inkscape.org/namespaces/inkscape" xmlns:sodipodi="http://sodipodi.sourceforge.net/DTD/sodipodi-0.dtd" xmlns:xlink="http://www.w3.org/1999/xlink" xmlns="http://www.w3.org/2000/svg" xmlns:svg="http://www.w3.org/2000/svg">
  <sodipodi:namedview id="namedview122" pagecolor="#505050" bordercolor="#ffffff" borderopacity="1" inkscape:pageshadow="0" inkscape:pageopacity="0" inkscape:pagecheckerboard="1" showgrid="false" inkscape:current-layer="svg120"/>
  <defs id="defs24">
    <linearGradient id="c">
      <stop offset="0" stop-color="#fff" id="stop2"/>
      <stop offset=".727" stop-color="#fff" id="stop4"/>
      <stop offset="1" stop-color="#f6f5f4" id="stop6"/>
    </linearGradient>
    <linearGradient xlink:href="#a" id="g" gradientUnits="userSpaceOnUse" x1="52.954" y1="229.984" x2="39.951" y2="223.426" gradientTransform="matrix(-1,0,0,1,1180,257)"/>
    <linearGradient id="a">
      <stop offset="0" stop-color="#4b4752" id="stop10"/>
      <stop offset="1" stop-color="#4b4752" stop-opacity="0" id="stop12"/>
    </linearGradient>
    <linearGradient xlink:href="#b" id="i" gradientUnits="userSpaceOnUse" gradientTransform="matrix(0.8,0,0,1,18.5,0)" x1="88.781" y1="232.5" x2="94.5" y2="232.5"/>
    <linearGradient id="b">
      <stop offset="0" stop-color="#3d3846" id="stop16"/>
      <stop offset="1" stop-color="#3d3846" stop-opacity="0" id="stop18"/>
    </linearGradient>
    <radialGradient xlink:href="#c" id="d" gradientUnits="userSpaceOnUse" gradientTransform="matrix(0.9088,0,0,0.9088,30.459,21.198)" cx="334" cy="231.209" fx="334" fy="231.209" r="7"/>
    <radialGradient xlink:href="#c" id="e" gradientUnits="userSpaceOnUse" gradientTransform="matrix(0.9088,0,0,0.9088,30.459,21.198)" cx="334" cy="231.209" fx="334" fy="231.209" r="7"/>
    <clipPath clipPathUnits="userSpaceOnUse" id="f"/>
  </defs>
  <rect width="136.193" height="137.808" x="-3.358" y="-3.097" rx="0" ry="0" fill="#99c1f1" id="rect26" style="fill:#26a269"/>
  <path d="m 127.79108,197.0751 v -35.13252 c 0,-12.74708 -11.27382,-19.47682 -23.00841,-23.00841 l -72.956946,-21.94135 -75.551837,21.94439 c -12.240834,3.55432 -23.008403,10.26132 -23.008403,23.00688 v 35.13101 z" fill="#63452c" id="path28" style="stroke-width:1.51571"/>
  <g transform="matrix(2.121972,0,0,2.121972,-2338.052,-977.58727)" id="g118">
    <circle style="font-variation-settings:normal" cx="1116" cy="483" r="30" fill="#5e5c64" id="circle30"/>
    <g transform="translate(692,77)" id="g48">
      <rect style="font-variation-settings:normal" width="8" height="12" x="448" y="412" rx="2" ry="2" fill="#cdab8f" id="rect32"/>
      <path style="font-variation-settings:normal" d="m 456,421 a 7,7 0 0 1 -7,7 v -7 z" fill="#cdab8f" id="path34"/>
      <path style="font-variation-settings:normal" d="m 454,414 v 7 a 5,5 0 0 1 -10,0 c 0,-1.573 0.742,-5.054 2,-5.998 V 414 h 3 z" opacity="0.124" id="path36"/>
      <circle style="font-variation-settings:normal" cx="452" cy="422" r="2" opacity="0.124" id="circle38"/>
      <rect style="font-variation-settings:normal" width="8" height="12" x="-400" y="412" rx="2" ry="2" transform="scale(-1,1)" fill="#cdab8f" id="rect40"/>
      <path style="font-variation-settings:normal" d="m 392,421 a 7,7 0 0 0 7,7 v -7 z" fill="#cdab8f" id="path42"/>
      <path style="font-variation-settings:normal" d="m 394,414 v 7 a 5,5 0 0 0 10,0 c 0,-1.573 -0.742,-5.054 -2,-5.998 V 414 h -3 z" opacity="0.124" id="path44"/>
      <circle style="font-variation-settings:normal" cx="-396" cy="422" r="2" transform="scale(-1,1)" opacity="0.124" id="circle46"/>
    </g>
    <path d="m 1116,455 a 28,28 0 0 0 -28,28 v 28 c 0,2.308 0.967,4.38 2.52,5.838 l 7.855,7.86 A 7.974,7.974 0 0 0 1104,527 h 24 a 7.974,7.974 0 0 0 5.625,-2.303 l 7.856,-7.86 A 7.973,7.973 0 0 0 1144,511 v -28 a 28,28 0 0 0 -28,-28 z" fill="#cdab8f" id="path50"/>
    <path style="font-variation-settings:normal" d="m 1113.066,507.98 c -1.87,0 -5.066,1.014 -5.066,1.014 V 510 h 15.954 v -1.006 c 0,0 -3.197,-1.013 -5.067,-1.013 l -2.91,0.343 z" opacity="0.35" fill="#6c131e" id="path52"/>
    <path style="line-height:normal;font-variant-ligatures:normal;font-variant-position:normal;font-variant-caps:normal;font-variant-numeric:normal;font-variant-alternates:normal;font-variant-east-asian:normal;font-feature-settings:normal;font-variation-settings:normal;text-indent:0;text-align:start;text-decoration-line:none;text-decoration-style:solid;text-decoration-color:#000000;text-transform:none;text-orientation:mixed;white-space:normal;shape-padding:0;shape-margin:0;inline-size:0;isolation:auto;mix-blend-mode:normal;solid-color:#000000;solid-opacity:1" d="m 1108,510 h 16 c 0,1.019 -1.02,1.984 -2,1.984 h -12 c -0.964,0 -2,-0.822 -2,-1.984 z" color="#000000" font-weight="400" font-family="sans-serif" overflow="visible" opacity="0.137" fill="#ffffff" id="path54"/>
    <path style="font-variation-settings:normal" d="m 1119.842,512.146 a 7.683,7.683 0 0 1 -7.684,0" opacity="0.25" fill-opacity="0.402" id="path56"/>
    <g transform="translate(771,261)" id="g66">
      <circle cx="334" cy="232" r="6" fill="url(#d)" id="circle58" style="fill:url(#d)"/>
      <circle cx="334" cy="232" r="4" fill="#47311f" id="circle60"/>
      <circle cx="334" cy="232" r="2" id="circle62"/>
      <circle cx="334" cy="230.383" r="1.383" fill="#ffffff" id="circle64"/>
    </g>
    <g transform="translate(793,261)" id="g76">
      <circle cx="334" cy="232" r="6" fill="url(#e)" id="circle68" style="fill:url(#e)"/>
      <circle cx="334" cy="232" r="4" fill="#47311f" id="circle70"/>
      <circle cx="334" cy="232" r="2" id="circle72"/>
      <circle cx="334" cy="230.383" r="1.383" fill="#ffffff" id="circle74"/>
    </g>
    <path d="m 1137,484 h -20 v 7 h 20 z m 0,14 h -20 v 7 h 20 z m -42,0 h 20 v 7 h -20 z" fill="#cdab8f" id="path78"/>
    <path d="m 1088.264,487 v 24 c 0,2.308 0.967,4.38 2.52,5.838 l 7.856,7.859 a 7.974,7.974 0 0 0 5.625,2.303 h 24 a 7.974,7.974 0 0 0 5.625,-2.303 l 7.855,-7.859 a 7.975,7.975 0 0 0 2.52,-5.838 v -24 h -2 v 16.602 c 0,1.749 -0.74,3.27 -1.329,3.856 l -4.452,4.418 a 6.035,6.035 0 0 1 -0.401,0.363 2.598,2.598 0 0 1 -2.202,0.161 c -0.888,-0.35 -1.617,-1.131 -1.617,-2.798 V 509 c 0,-4.397 -3.602,-8 -8,-8 h -16 c -4.397,0 -8,3.603 -8,8 v 0.602 c 0,1.667 -0.729,2.448 -1.617,2.798 a 2.595,2.595 0 0 1 -2.2,-0.161 6.035,6.035 0 0 1 -0.404,-0.363 l -4.45,-4.418 c -0.59,-0.586 -1.328,-2.107 -1.328,-3.856 V 487 Z m 20,18 h 16 c 2.251,0 4,1.75 4,4 v 7 c 0,2.25 -1.749,4 -4,4 h -16 c -2.25,0 -4,-1.75 -4,-4 v -7 c 0,-2.25 1.75,-4 4,-4 z" fill="#b89a80" id="path80"/>
    <g clip-path="url(#f)" transform="translate(1052,259)" opacity="0.1" id="g84">
      <path style="line-height:normal;font-variant-ligatures:normal;font-variant-position:normal;font-variant-caps:normal;font-variant-numeric:normal;font-variant-alternates:normal;font-variant-east-asian:normal;font-feature-settings:normal;font-variation-settings:normal;text-indent:0;text-align:start;text-decoration-line:none;text-decoration-style:solid;text-decoration-color:#000000;text-transform:none;text-orientation:mixed;white-space:normal;shape-padding:0;shape-margin:0;inline-size:0;isolation:auto;mix-blend-mode:normal;solid-color:#000000;solid-opacity:1" d="m 56,242 c -4.397,0 -8,3.603 -8,8 v 7 c 0,4.397 3.603,8 8,8 h 16 c 4.397,0 8,-3.603 8,-8 v -7 c 0,-4.397 -3.603,-8 -8,-8 z" color="#000000" font-weight="400" font-family="sans-serif" overflow="visible" id="path82"/>
    </g>
    <path d="m 1112.443,484 h -20 v 7 h 20 z" fill="#cdab8f" id="path86"/>
    <path style="line-height:normal;font-variant-ligatures:normal;font-variant-position:normal;font-variant-caps:normal;font-variant-numeric:normal;font-variant-alternates:normal;font-variant-east-asian:normal;font-feature-settings:normal;font-variation-settings:normal;text-indent:0;text-align:start;text-decoration-line:none;text-decoration-style:solid;text-decoration-color:#000000;text-transform:none;text-orientation:mixed;white-space:normal;shape-padding:0;shape-margin:0;inline-size:0;isolation:auto;mix-blend-mode:normal;solid-color:#000000;solid-opacity:1" d="m 1116,454 c -16.004,0 -29,12.996 -29,29 v 28 a 8.984,8.984 0 0 0 2.836,6.566 l -0.024,-0.021 7.858,7.861 v 0.002 A 8.987,8.987 0 0 0 1104,528 h 24 c 2.464,0 4.705,-0.99 6.328,-2.592 v -0.002 l 7.858,-7.861 -0.024,0.021 A 8.984,8.984 0 0 0 1145,511 v -28 c 0,-16.004 -12.996,-29 -29,-29 z m 0,2 c 14.924,0 27,12.077 27,27 v 28 a 6.963,6.963 0 0 1 -2.203,5.11 l -0.012,0.01 -7.863,7.866 A 6.96,6.96 0 0 1 1128,526 h -24 a 6.96,6.96 0 0 1 -4.918,-2.01 v -0.004 l -7.863,-7.867 -0.012,-0.01 A 6.963,6.963 0 0 1 1089,511 v -28 c 0,-14.923 12.076,-27 27,-27 z" color="#000000" font-weight="400" font-family="sans-serif" overflow="visible" fill="#86664c" id="path88"/>
    <path id="h" style="font-variation-settings:normal;fill:url(#g)" d="m 1118,479.546 20,3.636 V 485 h -20 z" display="inline" opacity="0.876" vector-effect="none" fill="url(#g)" fill-opacity="1" stroke="none" stroke-width="7" stroke-linecap="square" stroke-linejoin="miter" stroke-miterlimit="4" stroke-dasharray="none" stroke-dashoffset="0" stroke-opacity="1" stop-color="#000000"/>
    <use xlink:href="#h" transform="matrix(-1,0,0,1,2232,2)" width="100%" height="100%" id="use91" x="0" y="0"/>
    <path style="font-variation-settings:normal" fill="#77767b" d="m 1088,480.882 h 2 V 495 h -2 z M 1142,480 h 2 v 15 h -2 z m -54,17.118 h 2 V 499 h -2 z M 1142,497 h 2 v 2 h -2 z" id="path93"/>
    <g transform="translate(1052,260)" id="g112">
      <g id="j" fill="none" stroke="#241f31" stroke-width="1" stroke-miterlimit="4" stroke-dasharray="none">
        <path style="font-variation-settings:normal" d="m 68,230.023 c -0.547,0 -1.065,0.213 -1.45,0.573 -0.383,0.36 -0.636,0.912 -0.519,1.498 l 1,5 c 0.095,0.475 0.291,0.93 0.617,1.285 0.327,0.355 0.805,0.598 1.352,0.598 h 17 c 1.087,0 1.977,-0.89 1.977,-1.977 v -5 c 0,-1.087 -0.89,-1.977 -1.977,-1.977 z" opacity="0.483" fill="#ffffff" stroke="none" stroke-linecap="square" id="path95"/>
        <path style="font-variation-settings:normal" d="M 67.117,235.086 66.5,232 c -0.163,-0.815 0.669,-1.5 1.5,-1.5 h 18 c 0.831,0 1.5,0.669 1.5,1.5 v 2" stroke-linecap="round" id="path97"/>
        <path style="font-variation-settings:normal;fill:url(#i)" d="m 88.5,231.5 4,-4 v 2 l -4,4 z" fill="url(#i)" stroke="none" stroke-linecap="round" transform="translate(0.5,0.5)" id="path99"/>
        <path style="font-variation-settings:normal" d="m 74.219,77.035 c -0.174,0.31 -0.264,0.675 -0.188,1.059 l 1,5 c 0.095,0.475 0.291,0.93 0.617,1.285 0.327,0.355 0.805,0.598 1.352,0.598 h 17 c 1.087,0 1.977,-0.89 1.977,-1.977 v -2 c 0,1.087 -0.89,1.977 -1.977,1.977 H 77 a 1.834,1.834 0 0 1 -1.352,-0.598 c -0.326,-0.356 -0.522,-0.81 -0.617,-1.285 z" transform="translate(-8,156)" opacity="0.07" fill="#000000" stroke="none" stroke-linecap="square" id="path101"/>
      </g>
      <use xlink:href="#j" transform="matrix(-1,0,0,1,128,0)" width="100%" height="100%" id="use104" x="0" y="0"/>
      <path d="m 62,232 c 0,0 1,-0.5 2,-0.5 1,0 2,0.5 2,0.5" fill="none" stroke="#241f31" stroke-linecap="round" id="path106"/>
      <path style="font-variation-settings:normal" fill="#9a9996" d="m 87,232 h 2 v 2 h -2 z" id="path108"/>
      <path style="font-variation-settings:normal" fill="#c0bfbc" d="m 39,232 h 2 v 2 h -2 z" id="path110"/>
    </g>
    <path d="M 1115.855,453 C 1099.343,453.08 1086,466.488 1086,483 h 4 a 26,26 0 0 1 10.646,-20.98 l 30.71,-0.002 A 26,26 0 0 1 1142,483 h 4 c 0,-16.569 -13.431,-30 -30,-30 a 29,29 0 0 0 -0.144,0 z" fill="#24222e" id="path114"/>
    <path style="font-variation-settings:normal" d="m 1115.856,453 c -0.841,0.004 -1.672,0.05 -2.496,0.123 v 8.896 l 9.245,-0.001 v -8.279 a 30.074,30.074 0 0 0 -6.75,-0.739 z" fill="#77767b" id="path116"/>
  </g>
</svg>
