<?xml version="1.0" encoding="UTF-8"?>
<svg id="svg8" width="1280" height="720" version="1.1" viewBox="0 0 1280 720" xmlns="http://www.w3.org/2000/svg" xmlns:rdf="http://www.w3.org/1999/02/22-rdf-syntax-ns#">
 <metadata id="metadata5">
  <rdf:RDF/>
 </metadata>
 <g id="layer1" transform="matrix(2.4,0,0,2.4,-5840,0)" stroke-width=".41667">
  <rect id="rect2007" x="2433.3" width="533.33" height="300" fill="#241f31" stop-color="#000000"/>
  <g id="g2041" class="logofill" transform="matrix(.44369 0 0 .44369 2965.7 -7.4691)" fill="#fff" stroke-width=".9391">
   <g id="g2021" transform="matrix(3.6654 0 0 3.6654 -775.25 138.17)" fill="#fff">
    <g id="g2019" fill="#fff" stroke-width=".7468">
     <path id="path2009" d="m86.068 0c-24.602 0-29.217 35.041-15.377 35.041 13.838 0 39.98-35.041 15.377-35.041z"/>
     <path id="path2011" d="m45.217 30.699c7.369 0.45 15.454-28.122 1.604-26.325-13.845 1.797-8.976 25.875-1.604 26.325z"/>
     <path id="path2013" d="m11.445 48.453c5.241-2.307 0.675-24.872-8.237-18.718-8.908 6.155 2.996 21.024 8.237 18.718z"/>
     <path id="path2015" d="m26.212 36.642c6.239-1.272 6.581-26.864-4.545-22.273-11.128 4.592-1.689 23.547 4.545 22.273z"/>
     <path id="path2017" d="m58.791 93.913c1.107 8.454-6.202 12.629-13.36 7.179-22.787-17.349 37.729-26.004 33.74-49.706-3.311-19.674-63.676-13.617-70.55 17.167-4.653 20.821 19.153 49.707 43.993 49.707 12.22 0 26.315-11.034 28.952-25.012 2.014-10.659-23.699-6.388-22.775 0.665z"/>
    </g>
   </g>
  </g>
 </g>
</svg>
