<?xml version="1.0" encoding="UTF-8"?>
<svg id="svg8" width="1280" height="720" version="1.1" viewBox="0 0 1280 720" xmlns="http://www.w3.org/2000/svg" xmlns:cc="http://creativecommons.org/ns#" xmlns:dc="http://purl.org/dc/elements/1.1/" xmlns:rdf="http://www.w3.org/1999/02/22-rdf-syntax-ns#">
 <metadata id="metadata5">
  <rdf:RDF>
   <cc:Work rdf:about="">
    <dc:format>image/svg+xml</dc:format>
    <dc:type rdf:resource="http://purl.org/dc/dcmitype/StillImage"/>
    <cc:license rdf:resource="http://creativecommons.org/licenses/by-sa/4.0/"/>
   </cc:Work>
   <cc:License rdf:about="http://creativecommons.org/licenses/by-sa/4.0/">
    <cc:permits rdf:resource="http://creativecommons.org/ns#Reproduction"/>
    <cc:permits rdf:resource="http://creativecommons.org/ns#Distribution"/>
    <cc:requires rdf:resource="http://creativecommons.org/ns#Notice"/>
    <cc:requires rdf:resource="http://creativecommons.org/ns#Attribution"/>
    <cc:permits rdf:resource="http://creativecommons.org/ns#DerivativeWorks"/>
    <cc:requires rdf:resource="http://creativecommons.org/ns#ShareAlike"/>
   </cc:License>
  </rdf:RDF>
 </metadata>
 <g id="layer1" transform="matrix(2.4,0,0,2.4,-5096,0)" fill="#fff" stroke-width=".41667">
  <rect id="rect9865" x="2123.3" width="533.33" height="300" stop-color="#000000"/>
  <g id="g2041" class="logofill" transform="matrix(.44369 0 0 .44369 2965.7 -7.4691)" stroke-width=".9391">
   <g id="g2055" transform="matrix(3.6654 0 0 3.6654 -1473.9 138.17)" fill="#241f31">
    <g id="g2053" fill="#241f31" stroke-width=".7468">
     <path id="path2043" d="m86.068 0c-24.602 0-29.217 35.041-15.377 35.041 13.838 0 39.98-35.041 15.377-35.041z"/>
     <path id="path2045" d="m45.217 30.699c7.369 0.45 15.454-28.122 1.604-26.325-13.845 1.797-8.976 25.875-1.604 26.325z"/>
     <path id="path2047" d="m11.445 48.453c5.241-2.307 0.675-24.872-8.237-18.718-8.908 6.155 2.996 21.024 8.237 18.718z"/>
     <path id="path2049" d="m26.212 36.642c6.239-1.272 6.581-26.864-4.545-22.273-11.128 4.592-1.689 23.547 4.545 22.273z"/>
     <path id="path2051" d="m58.791 93.913c1.107 8.454-6.202 12.629-13.36 7.179-22.787-17.349 37.729-26.004 33.74-49.706-3.311-19.674-63.676-13.617-70.55 17.167-4.653 20.821 19.153 49.707 43.993 49.707 12.22 0 26.315-11.034 28.952-25.012 2.014-10.659-23.699-6.388-22.775 0.665z"/>
    </g>
   </g>
  </g>
 </g>
</svg>
