<?xml version="1.0" encoding="UTF-8" standalone="no"?>
<svg
   width="448"
   height="211.19815"
   viewBox="0 0 336.00001 158.39861"
   version="1.1"
   id="svg25"
   sodipodi:docname="laptop-with-linux.svg"
   inkscape:version="1.1.1 (3bf5ae0d25, 2021-09-20)"
   xmlns:inkscape="http://www.inkscape.org/namespaces/inkscape"
   xmlns:sodipodi="http://sodipodi.sourceforge.net/DTD/sodipodi-0.dtd"
   xmlns="http://www.w3.org/2000/svg"
   xmlns:svg="http://www.w3.org/2000/svg">
  <defs
     id="defs29" />
  <sodipodi:namedview
     id="namedview27"
     pagecolor="#ffffff"
     bordercolor="#666666"
     borderopacity="1.0"
     inkscape:pageshadow="2"
     inkscape:pageopacity="0.0"
     inkscape:pagecheckerboard="0"
     inkscape:document-units="pt"
     showgrid="false"
     units="px"
     width="1505.3334px"
     fit-margin-top="24"
     fit-margin-left="24"
     fit-margin-right="24"
     fit-margin-bottom="24"
     lock-margins="true"
     inkscape:zoom="0.5"
     inkscape:cx="790"
     inkscape:cy="447"
     inkscape:window-width="1920"
     inkscape:window-height="1019"
     inkscape:window-x="0"
     inkscape:window-y="30"
     inkscape:window-maximized="1"
     inkscape:current-layer="svg25" />
  <g
     id="#4b4b4bff"
     transform="matrix(0.26882684,0,0,0.26882684,16.368221,17.455062)">
    <path
       fill="#4b4b4b"
       opacity="1"
       d="M 80.91,32.84 C 105.27,12.21 137.44,2.73 169,2.09 c 36.66,-0.79 74.75,5.75 105.99,25.93 25.55,16.23 44.62,41.4 55.75,69.36 8.08,20 12.67,41.32 14.46,62.79 1.18,13.92 0.66,27.9 1.04,41.86 0.96,38.89 4.09,77.96 13.22,115.87 4.23,17.12 9.69,34.07 17.86,49.75 6.43,11.82 14.07,24.07 26.23,30.67 -32.51,-0.13 -65.02,-0.01 -97.53,-0.05 -10.64,-24.79 -21.26,-49.57 -31.87,-74.36 10.78,-11.76 18.93,-26.72 19.87,-42.88 0.62,-8.07 -1.7,-16.21 -6.06,-22.98 -5.38,-8.41 -13.29,-14.92 -21.9,-19.83 7.33,-15.54 9.52,-33.41 7.06,-50.36 -2.62,-17.96 -14.52,-34.35 -31.23,-41.66 -11.49,-5.51 -25,-5.18 -36.9,-1.22 -10.39,3.44 -19.14,11.08 -24.37,20.64 -5.78,10.51 -8.25,22.59 -8.44,34.51 -14.13,0 -28.26,0.01 -42.38,0 -1.26,-14.66 -5.74,-29.9 -16.34,-40.57 -8.39,-8.44 -20.83,-12.29 -32.56,-11 -10.77,2.05 -20.14,9.26 -26.01,18.36 -5.36,8.27 -7.41,18.32 -6.94,28.08 0.57,19.25 7.22,38.56 19.84,53.26 -11.97,9.73 -20.48,24.13 -21.6,39.66 -1.16,10.2 3.8,19.7 8.64,28.31 3.78,6.93 8.61,13.22 12.98,19.75 0.62,22.76 -3.46,46.42 -15.56,66.02 -15.39,0.01 -30.79,-0.02 -46.18,0.01 13.16,-6.98 21.61,-20.33 25.73,-34.31 4.94,-16.38 5.75,-33.65 5.54,-50.65 -0.82,-41.9 -8.87,-83.23 -11.1,-125.04 -0.83,-25.96 1.07,-52.15 7.21,-77.44 7.44,-30.99 22.62,-61.11 47.46,-81.73 m 156.42,9.71 c -6.5,1.5 -11.56,9.16 -8.75,15.6 2.78,6.51 8.3,11.29 13.65,15.68 6.12,4.85 14.78,7.8 22.35,4.78 5.21,-2.02 7.5,-8.33 6,-13.49 -1.88,-6.77 -6.97,-12.07 -12.23,-16.46 -5.75,-4.72 -13.53,-7.93 -21.02,-6.11 z"
       id="path2" />
    <path
       fill="#4b4b4b"
       opacity="1"
       d="m 412.56,23.59 c 13.68,-9.81 30.81,-15.25 47.68,-13.47 -8.57,40.46 -17.37,80.88 -25.97,121.34 16.56,4.49 30.02,16.4 46.71,20.58 8,2.08 16.6,1.53 24.28,-1.51 -0.93,7.26 -2.55,14.75 -6.96,20.77 -2.2,3.03 -5.45,5.65 -9.31,5.94 -6.43,0.56 -12.7,-1.82 -18.12,-5.1 -13.55,-8.21 -24.73,-19.82 -38.6,-27.54 -7.35,-4.07 -15.81,-6.18 -24.21,-5.53 8.37,-38.97 16.77,-77.93 25.12,-116.91 -9.97,4.09 -18.27,12.42 -21.32,22.87 -2.38,8.25 -3.25,17.55 0.5,25.53 -5,-0.38 -10.71,-0.64 -14.44,-4.47 -4.49,-4.44 -4.36,-11.4 -3.56,-17.2 2.2,-10.52 9.76,-19.07 18.2,-25.3 z"
       id="path4" />
    <path
       fill="#4b4b4b"
       opacity="1"
       d="m 641.82,27.08 c 8.42,-1.16 16.84,-2.35 25.28,-3.41 -1.86,8.95 -3.86,17.86 -5.73,26.8 3.36,0.04 6.73,0.04 10.1,0.01 -0.46,2.34 -0.93,4.69 -1.42,7.02 -3.37,0 -6.74,0 -10.1,0.01 -3.72,17.54 -7.56,35.06 -11.18,52.62 -0.69,3.2 -0.58,8.02 3.34,8.97 5.37,1.77 10.39,-1.71 13.82,-5.53 -0.88,-16.15 3.71,-32.62 12.62,-46.11 6.15,-9.44 16.1,-16.63 27.4,-18.16 7.21,-1.08 15.55,-0.66 21.13,4.63 5.84,5.74 6.82,14.45 6.98,22.23 5.91,0.24 11.91,-1.45 17.04,-4.29 2.18,-9.24 3.94,-18.59 5.99,-27.87 8.22,0.01 16.44,-0.02 24.65,0.02 -0.92,4.12 -1.76,8.25 -2.68,12.37 7.86,-6.32 19.08,-8.95 28.63,-5.16 7.63,3.35 10.91,12 11.41,19.81 1.01,17.49 -1.89,36.11 -12.46,50.53 -5.68,7.98 -14.76,13.54 -24.58,14.35 -6.58,0.7 -14.45,0.32 -18.85,-5.38 -2.73,13.63 -5.72,27.21 -8.65,40.8 -8.6,1.94 -17.14,4.12 -25.74,6.07 6.76,-32.33 13.72,-64.62 20.52,-96.94 -5.09,2.01 -10.35,3.58 -15.76,4.47 -1.53,15.92 -6.85,32.57 -19.45,43.2 -8.93,7.84 -22.06,9.48 -33.14,5.89 -5.58,-1.79 -10.17,-5.95 -12.67,-11.22 -5.29,6.63 -12.74,11.85 -21.29,12.98 -6.51,1.09 -14.11,0.12 -18.57,-5.23 -5.3,-6.26 -5.02,-15.12 -3.82,-22.75 3.4,-16.8 7.17,-33.52 10.64,-50.3 -1.86,-0.01 -3.71,-0.01 -5.55,-0.02 0.45,-2.34 0.93,-4.68 1.43,-7.02 1.84,0.01 3.7,0.02 5.56,0.02 1.69,-7.8 3.36,-15.61 5.1,-23.41 m 65.39,35.1 c -4.7,4.26 -7.31,10.23 -9.77,15.94 -4.63,11.57 -7.77,24.42 -5.39,36.86 0.64,4.94 6.66,6.38 10.68,4.74 3.32,-1.46 5.64,-4.44 7.55,-7.41 4.97,-8.07 7.62,-17.37 8.83,-26.71 -4.92,-1.41 -5.03,-7.44 -3.86,-11.49 0.71,-2.41 2.79,-3.96 4.63,-5.49 -0.43,-2.94 -0.49,-6.58 -3.2,-8.43 -3.14,-1.69 -7.03,-0.32 -9.47,1.99 m 77.22,0.4 c -4.24,1.96 -8.33,5.59 -8.98,10.46 -2.95,14.39 -6.07,28.74 -9.04,43.13 -0.91,2.73 2.36,4.53 4.63,4.93 6.37,0.86 12.25,-3.36 15.51,-8.54 6.57,-10.2 8.98,-22.51 9.41,-34.48 0.06,-4.32 -0.02,-8.93 -2.18,-12.79 -1.76,-3.22 -6.14,-4.08 -9.35,-2.71 z"
       id="path6" />
    <path
       fill="#4b4b4b"
       opacity="1"
       d="m 558.7,44.32 c 7.98,-0.78 16.46,-0.09 24.63,-0.32 -0.9,4.11 -1.73,8.23 -2.64,12.33 5.77,-4.46 12.96,-7.15 20.32,-6.84 5.54,0.09 11.35,2.25 14.72,6.83 4.04,5.27 4.96,12.15 5.24,18.59 0.13,15.04 -2.42,30.62 -10.59,43.51 -5.27,8.74 -14.07,15.63 -24.32,17.18 -7.26,1.1 -15.94,1.15 -21.26,-4.77 -2.8,13.49 -5.73,26.94 -8.59,40.42 -8.58,2.09 -17.18,4.18 -25.8,6.13 3.58,-17.09 7.2,-34.16 10.88,-51.23 -4.53,4.88 -10.48,8.59 -17.14,9.58 -5.81,1.01 -12.65,0.51 -17.01,-3.91 -2.98,-2.82 -4.23,-6.89 -4.74,-10.84 -4.46,6.54 -10.69,12.34 -18.51,14.36 -7.56,1.85 -16.54,0.74 -22.09,-5.14 -5.78,-5.77 -7.19,-14.38 -7.07,-22.22 0.29,-12.66 3.78,-25.25 9.91,-36.31 5.66,-9.86 14.53,-18.63 25.89,-21.29 5.86,-1.23 12.43,-1.58 17.87,1.33 2.47,1.24 3.41,3.95 3.99,6.46 0.2,-2.59 0.73,-5.14 1.3,-7.68 8.21,0.02 16.41,-0.01 24.62,0.02 -4.11,19.51 -8.26,39.01 -12.38,58.51 -0.54,3.21 -1.14,7.15 1.25,9.78 3.06,2.75 8.09,2.03 11.03,-0.58 4.18,-3.62 6.38,-8.96 7.72,-14.2 4.34,-19.88 8.34,-39.85 12.77,-59.7 m -58.27,16.41 c -5.27,1.8 -8.73,6.63 -11.36,11.29 -5.56,10.43 -8.95,22.15 -9.09,34.01 0.02,3.63 0.22,7.51 2.18,10.69 2.42,3.42 7.5,3.45 10.86,1.49 4.71,-2.88 7.99,-7.82 9.11,-13.21 2.56,-11.84 4.99,-23.71 7.59,-35.54 0.27,-1.74 0.97,-3.6 0.13,-5.29 -1.48,-3.56 -6.02,-4.77 -9.42,-3.44 m 85.9,1.78 c -4.39,1.82 -8.57,5.54 -9.27,10.45 -2.95,14.38 -6.07,28.73 -9.04,43.11 -1,3.34 3.21,5.12 5.9,5.18 6.88,0.01 12.48,-5.06 15.57,-10.83 5.96,-10.75 8.17,-23.26 8.03,-35.45 -0.16,-3.66 -0.48,-7.64 -2.82,-10.63 -1.96,-2.45 -5.57,-2.92 -8.37,-1.83 z"
       id="path8" />
    <path
       fill="#4b4b4b"
       opacity="1"
       d="m 68.28,197.28 c 2.83,-8.67 10.52,-15.65 19.6,-17.05 7.27,-0.34 14.2,3.74 18.35,9.57 5.81,8.08 8.41,18.3 7.78,28.19 -0.22,4.7 -0.89,9.35 -1.71,13.97 11.91,-6.1 25.18,-10.99 38.78,-9.76 17.47,1.22 34.25,7.99 48.61,17.84 -4.06,-10.13 -7,-21.3 -4.75,-32.22 1.57,-7.91 5.67,-15.77 12.71,-20.09 8.76,-5.3 21.09,-5.42 28.98,1.62 12.43,10.82 14.53,30.77 6.4,44.75 -4.1,7.27 -11.04,12.28 -18.32,16.05 12.98,2.66 26.09,6.41 37.16,13.94 5.76,3.95 10.96,9.66 12,16.81 1.18,7.42 -2.1,14.73 -6.59,20.47 -6.05,7.65 -13.99,13.53 -22.11,18.82 -8.34,5.44 -16.96,10.43 -25.53,15.49 -16.18,10.57 -32.09,22.22 -50.66,28.28 -12.42,3.93 -26.23,6.3 -38.83,1.81 -14.02,-4.9 -25.33,-14.95 -36.17,-24.73 -11.14,-10.18 -23.24,-19.67 -31.8,-32.27 -4.12,-6.09 -7.24,-13.46 -5.85,-20.95 1.71,-10.99 9.49,-19.85 17.9,-26.57 5.52,-4.41 11.64,-8.01 17.96,-11.15 -9.66,-7.37 -18.92,-16.12 -23.86,-27.45 -3.47,-8.01 -2.68,-17.24 -0.05,-25.37 m 91.26,39.76 c 0.41,3.65 3.03,6.39 5.42,8.95 3.24,3.18 6.69,6.52 11.09,7.96 2.52,0.86 3.61,-1.93 3.87,-3.88 0.47,-2.87 0.56,-6.85 -2.49,-8.34 -5.47,-2.94 -11.67,-4.64 -17.89,-4.69 m -43.84,10.97 c 2.2,1.9 4.35,3.92 6.91,5.34 1.15,0.57 2.79,1.5 3.76,0.1 3.18,-3.27 6.16,-6.92 7.89,-11.18 0.65,-1.38 0.72,-3.84 -1.32,-3.95 -6.8,-0.11 -14.31,3.25 -17.24,9.69 m 65.75,67.55 c -10.58,3.16 -21.41,5.86 -32.48,6.36 -12.89,0.4 -25.71,-2.14 -37.94,-6.05 -15.12,-4.82 -29.47,-11.83 -43.07,-19.96 8.82,10.55 18.87,20.11 30.04,28.14 15.06,10.76 33.11,19.11 52.03,17.8 21.16,-1.55 40.65,-11.29 58.39,-22.33 17.01,-10.76 32.82,-23.4 47.36,-37.31 -23.77,13.16 -48.34,25.21 -74.33,33.35 z"
       id="path10" />
    <path
       fill="#4b4b4b"
       opacity="1"
       d="m 470.36,207.3 c 5.02,-3.09 12.11,1.97 10.79,7.73 -0.78,5.49 -8.42,8.09 -12.27,4.02 -3.68,-3.15 -2.71,-9.52 1.48,-11.75 z"
       id="path12" />
    <path
       fill="#4b4b4b"
       opacity="1"
       d="m 518.12,209.41 c 4.53,-0.56 9.05,-1.2 13.58,-1.82 -1.64,7.66 -3.21,15.33 -4.96,22.96 3.23,-3.22 7.6,-5.5 12.29,-4.8 4.87,-0.02 8.73,4.47 8.68,9.21 0.13,8.24 -3.41,15.96 -4.4,24.06 -0.49,2.22 1.04,5.03 3.62,4.57 4.5,0.17 6.22,-4.75 7.84,-8.07 0.96,-0.01 2.87,-0.02 3.83,-0.02 -1.74,4.83 -3.89,9.74 -7.68,13.34 -3.99,3.79 -10.33,4.85 -15.3,2.46 -3.44,-1.65 -5.18,-5.6 -5,-9.29 0.34,-7.84 3.69,-15.2 4.13,-23.03 0.28,-2.24 -0.99,-5.38 -3.71,-4.98 -3.72,0.78 -5.74,4.7 -6.66,8.06 -2.17,9.97 -4.25,19.96 -6.37,29.93 -4.42,0.01 -8.84,0.02 -13.25,0 0.43,-2.1 0.89,-4.2 1.38,-6.28 -4.33,5.06 -11.41,8.34 -18.02,6.19 -3.24,-1.06 -4.84,-4.31 -5.73,-7.34 -4.12,5.96 -12.06,9.72 -19.15,7.21 -5.15,-2.29 -6.17,-8.82 -5.17,-13.8 2.07,-10.69 4.45,-21.32 6.72,-31.97 4.4,0 8.8,-0.01 13.2,0.01 -2.17,10.31 -4.34,20.61 -6.55,30.91 -0.33,2.03 -1.08,4.54 0.62,6.21 4.94,2.07 9.65,-2.55 10.76,-7.08 2.02,-8.74 3.8,-17.53 5.66,-26.31 -0.76,0.01 -2.26,0.02 -3.02,0.03 0.26,-1.25 0.5,-2.5 0.76,-3.74 0.76,-0.02 2.28,-0.04 3.04,-0.05 0.94,-4.24 1.79,-8.5 2.82,-12.71 4.53,-0.56 9.05,-1.2 13.58,-1.81 -1.09,4.83 -2.1,9.68 -3.16,14.53 1.84,0 3.69,0.01 5.55,0.02 -0.27,1.24 -0.53,2.47 -0.78,3.71 -1.85,0.02 -3.7,0.03 -5.53,0.04 -1.98,9.79 -4.3,19.5 -6.15,29.31 -0.52,1.89 0.28,4.52 2.59,4.47 5.65,0.79 8.58,-5.24 10.35,-9.6 3.35,-14.8 6.33,-29.7 9.59,-44.53 z"
       id="path14" />
    <path
       fill="#4b4b4b"
       opacity="1"
       d="m 599.93,230.89 c 20.1,-14.45 45.32,-22.39 70.12,-19.82 -12.82,59.57 -25.52,119.18 -38.38,178.75 19.46,5.2 35.89,17.53 54.31,25.26 15.59,7.26 34.14,9.68 50.33,2.86 -1.64,12.73 -4.73,26.71 -14.94,35.44 -5.39,4.83 -13.25,4.45 -19.85,2.96 -13.03,-3.19 -23.69,-11.82 -34.26,-19.6 -13.24,-10.23 -26.04,-21.32 -41,-29 -10.12,-5.16 -21.65,-7.74 -33.01,-6.76 12.36,-57.44 24.73,-114.88 37.04,-172.32 -15.67,6.19 -28.28,19.82 -32.32,36.29 -2.63,11.34 -3.94,24 1.47,34.76 -7.92,0.1 -17.09,-1.09 -22.41,-7.63 -5.18,-6.75 -5.29,-15.99 -3.94,-24.04 3.26,-15.5 14.46,-27.95 26.84,-37.15 z"
       id="path16" />
    <path
       fill="#4b4b4b"
       opacity="1"
       d="m 703.36,217.6 c 6.51,-1.15 13.61,0.96 18.09,5.93 6.03,5.89 7.23,15.8 3.33,23.17 -3.9,7.33 -12.58,11.71 -20.8,10.3 -9.26,-1.1 -17,-9.69 -16.78,-19.07 -0.65,-9.54 6.73,-18.82 16.16,-20.33 z"
       id="path18" />
    <path
       fill="#4b4b4b"
       opacity="1"
       d="m 445.01,230.09 c -1.41,-5.54 6.91,-7.98 9.86,-3.98 2.46,3.85 1.5,8.66 1.09,12.94 -1.4,9.63 -4.42,19.52 -11.1,26.87 -4.97,5.52 -13.31,8.36 -20.41,5.58 -2.8,-1.06 -4.38,-3.77 -5.41,-6.4 -2.31,3.09 -5.24,6.02 -9.11,6.98 -3.86,0.97 -8.72,0.66 -11.32,-2.74 -2.76,-3.54 -2.69,-8.36 -1.85,-12.55 2.11,-10.27 4.33,-20.52 6.51,-30.77 4.4,-0.03 8.81,-0.03 13.22,-0.01 -2.16,10.34 -4.38,20.67 -6.56,31.01 -0.39,2.04 -0.81,4.65 0.92,6.22 1.8,0.9 3.92,0.1 5.29,-1.21 2.57,-2.34 3.46,-5.87 4.16,-9.14 1.87,-8.97 3.78,-17.93 5.69,-26.89 4.41,0 8.83,-0.01 13.24,0.01 -2.21,10.35 -4.38,20.71 -6.59,31.06 -0.21,2.03 -1.33,4.94 0.91,6.25 3.73,1.22 7.23,-1.66 9.25,-4.53 5.22,-7.45 7.58,-16.52 8.59,-25.47 -2.76,1.12 -6.33,0.23 -6.38,-3.23 z"
       id="path20" />
    <path
       fill="#4b4b4b"
       opacity="1"
       d="m 1086.41,256.63 c 4.06,-0.61 8.82,-1.05 12.17,1.87 5.18,4.57 7.01,11.79 7.38,18.45 0.6,9.96 -3.97,19.4 -9.83,27.18 -7.64,10.18 -16.1,19.72 -24.7,29.09 0.85,7.12 1.68,14.25 2.79,21.34 1,5.06 2.23,10.49 5.84,14.4 4.53,4.31 11.81,4.03 16.97,1 7.25,-4.26 11.71,-11.91 14.24,-19.72 3.58,0.01 7.17,0.01 10.76,0 -4.53,13.05 -11.09,25.89 -21.65,35.09 -8.48,7.56 -19.88,11.97 -31.3,11.16 -7.6,-0.25 -14.12,-5.32 -18.09,-11.51 -6.03,-9.4 -8.57,-20.5 -10.47,-31.37 -11.35,13.73 -22.68,27.48 -33.91,41.31 -6.16,0.16 -12.33,0.07 -18.48,0.05 16.75,-18.97 33.58,-37.88 50.34,-56.85 -2.13,-13.12 -3.2,-26.43 -6.27,-39.37 -0.93,-3.75 -2.55,-8.81 -7.16,-9.05 -6.43,0.66 -10.83,6.1 -14.29,11.04 -10.1,14.98 -14.99,32.68 -18.98,50.1 -4.1,12.03 -10.01,23.78 -19.07,32.85 -8.02,8.06 -19.19,13.14 -30.65,12.85 -7.47,0.34 -15.47,-2.41 -19.94,-8.65 -3.24,-4.12 -4.46,-9.34 -5.15,-14.42 -6.23,10.17 -15.42,19.51 -27.45,22.15 -8.5,1.68 -18.25,1.65 -25.5,-3.73 -5.2,-3.8 -8.36,-9.74 -9.7,-15.94 -5.96,9.09 -14.51,17.19 -25.4,19.64 -7.57,1.52 -15.73,1.5 -22.98,-1.36 -6.17,-2.44 -11.21,-7.52 -13.58,-13.71 -2.61,-6.55 -2.44,-13.79 -1.43,-20.64 2.2,-14.65 6.6,-28.84 9.32,-43.38 0.89,-6.18 2.24,-12.71 0.1,-18.79 -0.95,-2.75 -3.33,-5.04 -6.28,-5.36 -4.98,-0.7 -9.53,2.43 -12.5,6.15 -5.17,6.42 -8.02,14.41 -9.48,22.44 -5.18,24.68 -10.48,49.33 -15.64,74.02 -12.06,0.09 -24.12,0.02 -36.17,0.03 0.8,-3.83 1.59,-7.66 2.43,-11.49 -9.02,8.47 -21.23,13.69 -33.71,13.03 -8.92,0.3 -17.88,-4.48 -21.99,-12.51 -5.1,-9.82 -4.19,-21.41 -2.1,-31.91 5.69,-27.21 11.5,-54.4 17.26,-81.6 12.05,-0.02 24.1,-0.02 36.16,0 -5.35,25.15 -10.67,50.31 -15.99,75.47 -1.1,5.96 -3.07,11.86 -2.95,17.99 0,3.19 1.57,6.78 4.96,7.55 9.71,3.14 19.4,-4.2 23.48,-12.59 6.42,-29.44 12.54,-58.96 18.82,-88.44 12.04,0.02 24.09,0.01 36.14,0 -0.86,4.19 -1.71,8.39 -2.7,12.55 6.98,-8.02 17.13,-13.74 27.96,-13.58 8.1,-0.38 16.98,1.7 22.42,8.14 6.42,7.14 6.89,17.47 6,26.55 -2.03,17.07 -7.49,33.48 -10.82,50.31 -0.73,4.78 -1.82,10.35 1.21,14.59 3.4,3.99 9.58,3.82 14.04,1.88 4.99,-2.15 7.93,-7.02 10.34,-11.64 1.77,-3.64 3.92,-7.19 4.72,-11.2 5.47,-25.87 10.97,-51.73 16.43,-77.6 12.05,0.02 24.1,0 36.15,0.01 -6.01,28.52 -12.06,57.04 -18.12,85.56 -0.74,3.97 -1.06,8.25 0.47,12.09 0.95,2.44 3.4,4.05 6.02,4.12 5.51,0.03 10.48,-3.42 13.53,-7.83 3.73,-5.35 6.18,-11.57 7.38,-17.97 5.33,-25.33 10.72,-50.64 16.07,-75.97 12.05,-0.01 24.1,0.01 36.15,-0.01 -5.46,25.99 -11,51.97 -16.49,77.95 -0.99,5.18 -2.63,10.32 -2.43,15.65 0.2,2.45 0.87,5.33 3.19,6.64 5.19,2.72 11.87,1.69 16.27,-2.11 5.41,-4.67 8.51,-11.44 10.58,-18.16 4.81,-22.11 11.53,-44.61 25.52,-62.8 7.85,-10.34 19.8,-18.85 33.27,-18.45 8.56,-0.54 17.19,3.88 21.49,11.36 6.66,11.09 5.9,24.51 7.94,36.87 6.2,-7.23 12.46,-14.51 17.24,-22.79 2.19,-3.83 3.69,-8.05 4.22,-12.44 -3.83,0.42 -8.12,0.8 -11.37,-1.69 -4.28,-3.4 -5.17,-9.51 -4.38,-14.6 0.94,-5.36 6.37,-8.44 11.33,-9.29 z"
       id="path22" />
  </g>
</svg>
