<?xml version="1.0" encoding="UTF-8" standalone="no"?>
<!-- Created with Inkscape (http://www.inkscape.org/) -->

<svg
   width="1280"
   height="720"
   viewBox="0 0 1280 720"
   version="1.1"
   id="svg1"
   xml:space="preserve"
   inkscape:version="1.4 (e7c3feb100, 2024-10-09)"
   sodipodi:docname="card.svg"
   xmlns:inkscape="http://www.inkscape.org/namespaces/inkscape"
   xmlns:sodipodi="http://sodipodi.sourceforge.net/DTD/sodipodi-0.dtd"
   xmlns="http://www.w3.org/2000/svg"
   xmlns:svg="http://www.w3.org/2000/svg"><sodipodi:namedview
     id="namedview1"
     pagecolor="#ffffff"
     bordercolor="#000000"
     borderopacity="0.25"
     inkscape:showpageshadow="2"
     inkscape:pageopacity="0.0"
     inkscape:pagecheckerboard="0"
     inkscape:deskcolor="#d1d1d1"
     inkscape:document-units="px"
     inkscape:zoom="0.5696138"
     inkscape:cx="344.09279"
     inkscape:cy="361.64854"
     inkscape:window-width="2560"
     inkscape:window-height="1371"
     inkscape:window-x="0"
     inkscape:window-y="0"
     inkscape:window-maximized="1"
     inkscape:current-layer="layer1" /><defs
     id="defs1" /><g
     inkscape:label="Layer 1"
     inkscape:groupmode="layer"
     id="layer1"><rect
       style="fill:#452981;fill-opacity:1;stroke-width:2;stroke-linejoin:round"
       id="rect1"
       width="1280"
       height="720"
       x="0"
       y="0" /><g
       fill="#ffffff"
       id="g4"
       transform="matrix(0.42025862,0,0,0.42025862,94.052876,143.80321)"
       style="stroke-width:2.37949"><path
         d="m 417.61523,76.875 c -42.39203,9.424151 -84.32671,22.54494 -123.64257,42.33398 0.89912,34.71618 3.14362,67.97967 7.69336,101.76758 -15.26846,9.78214 -31.31507,18.17757 -45.57618,29.62891 -14.49005,11.14747 -29.2896,21.81231 -42.41015,34.84961 C 187.46773,268.1178 159.72502,251.82518 131.14453,237.44336 100.33705,270.59856 71.53124,306.38342 48,346.42773 c 18.493057,29.02877 38.32949,58.20569 56.69922,80.95899 v 197.7832 25.1211 22.86132 c 0.44956,0.004 0.89835,0.0209 1.34375,0.0625 l 150.66992,14.52735 c 7.89231,0.76176 14.07749,7.11448 14.62695,15.02343 l 4.64649,66.50977 131.42969,9.37891 9.05468,-61.38672 c 1.17386,-7.95891 8.00029,-13.85742 16.05078,-13.85742 h 158.96094 c 8.04633,0 14.87302,5.89851 16.04688,13.85742 l 9.05468,61.38672 131.4336,-9.37891 4.64258,-66.50977 c 0.55362,-7.90895 6.73464,-14.25751 14.62695,-15.02343 l 150.61133,-14.52735 c 0.4454,-0.0416 0.89028,-0.0583 1.33984,-0.0625 v -19.61132 l 0.0625,-0.0195 v -226.1348 c 21.2165,-26.70928 41.30684,-56.1715 56.69922,-80.95899 -23.52291,-40.04431 -52.34486,-75.82917 -83.15234,-108.98437 -28.57217,14.38182 -56.32515,30.67444 -82.53711,48.01172 -13.11639,-13.0373 -27.88953,-23.70214 -42.40039,-34.84961 -14.25695,-11.45134 -30.32318,-19.84677 -45.5625,-29.62891 4.53724,-33.78791 6.7803,-67.0514 7.68359,-101.76758 C 690.71123,99.41994 648.78198,86.299151 606.36914,76.875 c -16.9335,28.45977 -32.41939,59.27922 -45.90625,89.4082 -15.99275,-2.67239 -32.05995,-3.66203 -48.14844,-3.85351 v -0.0254 c -0.11239,0 -0.21676,0.0254 -0.3125,0.0254 -0.0999,0 -0.20478,-0.0254 -0.30468,-0.0254 v 0.0254 c -16.11763,0.19148 -32.17106,1.18112 -48.16797,3.85351 C 450.05076,136.15422 434.57371,105.33477 417.61523,76.875 Z M 298.41602,436.39844 c 50.15113,0 90.79882,40.61746 90.79882,90.75195 0,50.16779 -40.64769,90.80859 -90.79882,90.80859 -50.12617,0 -90.78711,-40.6408 -90.78711,-90.80859 0,-50.13449 40.66094,-90.75195 90.78711,-90.75195 z m 427.17773,0 c 50.122,0 90.7793,40.61746 90.7793,90.75195 0,50.16779 -40.6573,90.80859 -90.7793,90.80859 -50.15946,0 -90.80664,-40.6408 -90.80664,-90.80859 0,-50.13449 40.64718,-90.75195 90.80664,-90.75195 z m -213.59961,53.10937 c 16.14261,0 29.25391,11.90816 29.25391,26.56055 v 83.58984 c 0,14.66488 -13.1113,26.5625 -29.25391,26.5625 -16.1426,0 -29.22656,-11.89762 -29.22656,-26.5625 v -83.58984 c 0,-14.65239 13.08396,-26.56055 29.22656,-26.56055 z"
         stroke-width="9.90487"
         id="path1" /><path
         d="m 0,0 -1.121,-16.063 c -0.135,-1.936 -1.675,-3.477 -3.611,-3.616 l -38.555,-2.751 c -0.094,-0.007 -0.188,-0.01 -0.281,-0.01 -1.916,0 -3.569,1.406 -3.852,3.33 l -2.211,14.994 H -81.09 l -2.211,-14.994 c -0.297,-2.018 -2.101,-3.469 -4.133,-3.32 l -38.555,2.751 c -1.936,0.139 -3.476,1.68 -3.611,3.616 L -130.721,0 -163.268,3.138 c 0.015,-3.498 0.06,-7.33 0.06,-8.093 0,-34.374 43.605,-50.896 97.781,-51.086 h 0.066 0.067 c 54.176,0.19 97.766,16.712 97.766,51.086 0,0.777 0.047,4.593 0.063,8.093 z"
         transform="matrix(4.162611,0,0,-4.162611,784.07144,718.72312)"
         id="path2"
         style="stroke-width:2.37949" /><path
         d="m 0,0 c 0,-7.994 -6.479,-14.473 -14.479,-14.473 -7.996,0 -14.479,6.479 -14.479,14.473 0,7.994 6.483,14.479 14.479,14.479 C -6.479,14.479 0,7.994 0,0"
         transform="matrix(4.162611,0,0,-4.162611,367.36686,532.53707)"
         id="path3"
         style="stroke-width:2.37949" /><path
         d="m 0,0 c 0,-7.994 6.477,-14.473 14.471,-14.473 8.002,0 14.479,6.479 14.479,14.473 0,7.994 -6.477,14.479 -14.479,14.479 C 6.477,14.479 0,7.994 0,0"
         transform="matrix(4.162611,0,0,-4.162611,656.64056,532.53707)"
         id="path4"
         style="stroke-width:2.37949" /></g><g
       id="g738"
       transform="matrix(1.8745137,0,0,1.8745137,-1467.1603,-154.76819)"
       style="fill:#ffffff;stroke-width:0.533471"><g
         id="g9130"
         transform="matrix(0.65355666,0,0,0.65355666,1083.9554,58.477411)"
         style="mix-blend-mode:normal;fill:#ffffff;stroke-width:0.533471"><path
           style="fill:#ffffff;stroke:none;stroke-width:0.533471px;stroke-linecap:butt;stroke-linejoin:miter;stroke-opacity:1"
           d="m 474.6092,255.1181 1e-5,151.18111 -130.92667,75.59055 v -151.1811 z"
           id="path9124"
           sodipodi:nodetypes="ccccc" /><path
           style="fill:#ffffff;stroke:none;stroke-width:0.533471px;stroke-linecap:butt;stroke-linejoin:miter;stroke-opacity:1"
           d="M 343.68252,330.70866 V 179.52756 L 212.75586,255.1181 Z"
           id="path9126" /><path
           style="fill:#ffffff;fill-opacity:1;fill-rule:nonzero;stroke:none;stroke-width:44.2441;stroke-linecap:round;stroke-linejoin:round;stroke-dasharray:none;stroke-opacity:1"
           d="m 218.61226,233.26169 c -13.54108,7.81795 -21.85641,22.22052 -21.85641,37.85641 v 119.18111 c 0,15.63589 8.31533,30.03846 21.85641,37.85641 l 103.21385,59.59055 c 13.54108,7.81794 30.17174,7.81794 43.71282,0 l 103.21386,-59.59055 c 13.54108,-7.81795 21.85641,-22.22052 21.85641,-37.85641 V 271.1181 c 0,-15.63589 -8.31533,-30.03846 -21.85641,-37.85641 L 365.53893,173.67115 c -13.54108,-7.81794 -30.17174,-7.81794 -43.71282,0 z m 130.92667,-31.87772 103.21386,59.59054 c 3.60767,2.08289 5.85641,5.97781 5.85641,10.14359 v 119.18111 c 0,4.16578 -2.24874,8.0607 -5.85641,10.14359 l -103.21386,59.59055 c -3.60767,2.08289 -8.10515,2.08289 -11.71282,0 L 234.61226,400.4428 c -3.60767,-2.08289 -5.85641,-5.97781 -5.85641,-10.14359 V 271.1181 c 0,-4.16578 2.24874,-8.0607 5.85641,-10.14359 l 103.21385,-59.59054 c 3.60767,-2.08289 8.10515,-2.08289 11.71282,0 z"
           id="path9128" /></g></g><text
       xml:space="preserve"
       style="font-weight:900;font-size:256px;line-height:100%;font-family:'Inter Variable';-inkscape-font-specification:'Inter Variable Heavy';text-align:start;text-decoration-color:#000000;writing-mode:lr-tb;direction:ltr;text-anchor:start;fill:#f9f9f9;fill-opacity:1;stroke-width:2;stroke-linejoin:round"
       x="589.87335"
       y="368.67084"
       id="text1"><tspan
         sodipodi:role="line"
         id="tspan1"
         x="589.87335"
         y="368.67084" /></text><text
       xml:space="preserve"
       style="font-weight:900;font-size:256px;line-height:100%;font-family:'Inter Variable';-inkscape-font-specification:'Inter Variable Heavy';text-align:start;text-decoration-color:#000000;writing-mode:lr-tb;direction:ltr;text-anchor:start;fill:#ffffff;fill-opacity:1;stroke-width:2;stroke-linejoin:round"
       x="526.5"
       y="461.5"
       id="text2"><tspan
         sodipodi:role="line"
         id="tspan2"
         x="526.5"
         y="461.5">→</tspan></text></g></svg>
